<?xml version="1.0" encoding="utf-8"?>
<!-- Generator: Adobe Illustrator 20.0.0, SVG Export Plug-In . SVG Version: 6.00 Build 0)  -->
<svg version="1.1" id="Layer_1" xmlns="http://www.w3.org/2000/svg" xmlns:xlink="http://www.w3.org/1999/xlink" x="0px" y="0px"
	 viewBox="0 0 600 120" enable-background="new 0 0 600 120" xml:space="preserve">
<g>
	<circle fill="none" stroke="#FFFFFF" stroke-miterlimit="10" cx="60" cy="33.7" r="26.8"/>
	<g>
		<g>
			<g>
				<g>
					<g>
						<polygon fill="#202020" points="85.4,33.7 85.5,33.6 85.2,33.4 						"/>
						<path fill="#202020" d="M84.6,32.4c-0.1,0-0.1,0-0.2,0.1l0.9,0.7C85.8,32.8,84.3,32.6,84.6,32.4z"/>
						<path fill="#202020" d="M84.7,32.2c0.2-0.3-0.2-0.4-0.4-0.4C84.6,31.8,84.2,32.3,84.7,32.2z"/>
						<path fill="#202020" d="M71.7,12.1C71.7,12.1,71.8,12.1,71.7,12.1C71.8,12.1,71.7,12.1,71.7,12.1z"/>
						<path fill="#202020" d="M65.3,11.2l-0.1,0.3c0.6-0.1,1.2,0,1.8,0.2c0.6,0.3,1.1,0.5,1.7,0.6l-0.1,0.1c2.7,1.3,5.4,2.3,7.9,4.3
							c-0.1,0-0.1,0.1-0.2,0c0.2,0,0.5,0,0.6,0.1c0,0.1-0.1,0.1-0.2,0.1c0.1,0.8,1.6,1.2,1.5,1.8c0.2,0.1,0.4,0,0.5-0.2
							c1.7,1.8,3.1,4.1,4.4,6.3c0,0.1-0.2,0.2-0.3,0.3c1.7,1.7,1.8,4.2,1.9,6.4c0.2,0.1,0.2-0.3,0.5-0.1c0.3-0.8-0.7-1.3-0.4-2
							l0.2,0c0.1-0.5-0.6,0-0.4-0.5c0.2-0.2,0.3,0,0.3-0.1c-0.3-1-0.4-2.1-1.2-2.9c0.4-0.4-0.4-1-0.1-1.6c-0.3-0.2-0.3-0.5-0.7-0.4
							c-1.2-3.4-3.8-6.2-6.4-8.7c-0.9-0.2-1.6-0.8-2.3-1.5c-0.7-0.7-1.5-1.3-2.4-1.7c0,0,0-0.1,0-0.1c-0.7-0.1-1.6-0.4-2.3-0.8
							l-0.8,0.1c-2-1.3-4.4-1.8-6.7-2c-2.4-0.2-4.8,0.1-7.2,0.4c-2.7,0.4-5.2,1.3-7.4,2.5c-1.1,0.6-2.1,1.4-3.1,2.3
							c-0.4,0.5-0.9,1-1.3,1.5c-0.4,0.5-0.7,1.1-1.1,1.7c-0.1-0.1-0.1-0.1-0.1-0.2c-0.5,0.6-0.9,1.2-1.4,1.7
							c-0.2,0.3-0.5,0.5-0.7,0.8c-0.2,0.3-0.4,0.6-0.5,0.9L39.2,21c-0.1,0.4-0.3,0.8-0.5,1.3c-0.1,0.4-0.3,0.9-0.5,1.3
							c-0.4,0.8-0.7,1.7-1,2.5c-0.3,0.8-0.5,1.7-0.7,2.6c-0.1,0.9-0.1,1.8-0.1,2.6c-0.5,4,0.3,8.8,2.4,12.5l-0.2,0.1
							c0.2,0.4,0.4,0.7,0.6,1.1c0.2,0.4,0.4,0.7,0.6,1.1c0.4,0.8,0.8,1.5,1.3,2.2c0.9,1.4,2,2.8,3.4,3.8c0.6,0.6,1.4,1.2,2.2,1.6
							c0.4,0.2,0.8,0.4,1.2,0.6c0.4,0.2,0.8,0.4,1.3,0.5c0.9,0.3,1.7,0.6,2.6,0.8c0.4,0.1,0.8,0.3,1.3,0.4c0.4,0.1,0.8,0.3,1.2,0.5
							c0.2,0.2,0.5,0.3,0.8,0.4c0.3,0.1,0.6,0.1,0.9,0.2c0.6,0,1.2,0.1,1.9-0.1c0.6-0.1,1.2-0.2,1.8-0.2c0.6,0,1.1,0,1.7,0.2
							c1.1,0.4,2.1,0.3,3.2,0.3c0.5-0.1,1-0.2,1.6-0.3c0.5-0.1,1-0.3,1.5-0.5c0.5-0.2,1-0.5,1.4-0.7c0.5-0.3,0.9-0.6,1.3-0.9
							l0.6-0.5l0.6-0.5l1.1-1.1c1.7-0.9,3.1-2.3,4.2-3.8c0.6-0.7,1.1-1.5,1.7-2.2c0.5-0.8,1.1-1.5,1.8-2.2c0.1-1,0.7-1.6,1.3-2.5
							c0.3-0.4,0.6-0.8,0.9-1.2c0.2-0.4,0.4-0.9,0.5-1.4l-0.2,0c0.4-0.3,0.3-0.7,0.2-1.1c-0.1-0.4-0.3-0.7,0.3-0.9l0,0.1
							c0.6-0.3-1.1-1-0.5-1.2l-0.3-0.1c0-0.4,0.3,0,0.4-0.4c0-0.1-0.5-0.1-0.3-0.3c1.1,0-0.2-1.1,1-1.1c0,0.3,0.5-0.4,0.7,0.2
							c0.1-0.2,0.1-1-0.4-0.9c-0.5-0.1-1-0.4-1.5,0.1l0.4,0.1C82.7,34,82.9,34,82.6,34c-0.1,0.6-0.7,0.6-0.9,1c0,0,0,0,0,0
							c0.5,0.3,0.2,0.7,0.1,0.9L81.6,36c-0.5,0.1,0.8,0.7,0,0.5c0,0.6,0,1.2-0.1,1.8c-0.1,0.6-0.3,1.3-0.5,1.9
							c0.2,0.3-0.4,0.9,0.3,0.8c-0.8,0.1-1.2,0.9-1.3,1.3c-0.1,0-0.1-0.1-0.1-0.1c-1.1,0.2,0.4,1.1-0.9,1.2c0.3,0.2,0.1,0.5-0.1,0.7
							c-0.2,0.3-0.4,0.5-0.1,0.9c-0.2,0-0.3-0.1-0.4-0.2c-0.3,0.5-0.7,1-1.1,1.4c-0.4,0.4-0.8,0.8-1.1,1.2c-0.1,1-1.5,1.3-1.5,2.4
							c-0.3,0.1-0.7,0.3-1,0.5c-0.4,0.2-0.7,0.5-1,0.8l0-0.1c-0.7,0.6-1.7,1.2-2,2.1c-0.7-0.6-0.9-0.3-1.4-0.4
							c-0.2,0.3-0.6,0.6-1,0.9c-0.5,0.2-0.9,0.5-1.3,0.8c-0.3-0.3-0.7,0.4-0.9-0.1c-0.6,0.4-1.2,0.8-1.9,1.1
							c-0.7,0.2-1.5,0.4-2.2,0.4c-0.8,0-1.6,0-2.3-0.2c-0.8-0.2-1.5-0.4-2.2-0.7l0,0c-0.4,0.3-0.9,0.9-1.4,1.2c0-0.1,0-0.1,0.1-0.1
							c-0.3,0-0.5-0.1-0.8-0.3c-0.2-0.2-0.5-0.4-0.7-0.4c0-0.1,0-0.1,0.1-0.2c-0.5,0.1-0.9-0.7-1.6-0.4l0-0.2L53,54.6
							c0.1-0.2,0.2-0.4,0.3-0.3c-2.1-0.8-4.2-1.6-6.2-2.8c-1-0.6-1.9-1.3-2.9-2.1c-0.4-0.4-0.8-0.8-1.2-1.3
							c-0.4-0.4-0.7-0.9-1.1-1.4l0.3,0l-0.8-0.5c0.1,0,0.1,0,0.2,0c-0.3-1.2-1.5-1.9-1.8-3c0.1,0,0.3,0,0.4-0.1
							c-0.9-0.5,0.1-1.5-1.1-1.5c0-0.1,0.3-0.2,0.4-0.1c-0.6-1-1-2.2-1.3-3.3c-0.2-1.2-0.4-2.4-0.3-3.5c-0.6-1-0.5-2-0.5-3.1
							c0-0.5,0.2-1.1,0.2-1.6c0-0.3,0-0.5,0-0.8c0-0.3,0-0.5,0-0.8l0.2,0.1c0-1.4,0.5-2.8,1.1-4c0.4-0.6,0.7-1.3,1.1-1.9
							c0.4-0.6,0.8-1.2,1.1-1.8c0.8-0.9,1-1.7,1.8-2.6l0.2,0.1c0.3-1.1,1.3-1.6,2.2-2.2c0.5-0.3,1-0.5,1.4-0.8
							c0.2-0.2,0.4-0.3,0.6-0.5c0.2-0.2,0.4-0.4,0.5-0.6l0.1,0.4c0-0.6,1.2-0.5,0.6-1.2l0.4,0c0.4-0.8,1-1,1.7-1.1
							c0.7-0.1,1.5-0.1,2.2-0.8l0,0.2c0.4-0.3,0.9-0.6,1.3-0.5c0,0,0,0.1-0.1,0.2c0.8,0.2,1.5,0,2.2-0.2c0.7-0.2,1.5-0.6,2.3-0.6
							l-0.1,0.4c0.3-0.2,0.9-0.3,1.4-0.3c0.5,0,1.1,0.1,1.6,0l-0.1,0.2l0.5-0.2l0,0.4c0.6,0,1.2,0.1,1.8,0.1
							C64.1,11,64.7,11,65.3,11.2z"/>
						<path fill="#202020" d="M76.6,16.9C76.6,16.9,76.6,16.9,76.6,16.9C76.5,16.9,76.5,16.9,76.6,16.9z"/>
						<path fill="#202020" d="M81.6,35.2c0-0.1,0-0.1,0.1-0.1C81.6,35.1,81.6,35.1,81.6,35.2z"/>
					</g>
				</g>
			</g>
		</g>
	</g>
	<g>
		<g>
			<g>
				<g>
					<g>
						<polygon fill="#202020" points="62,86 62.1,86 61.8,85.9 						"/>
						<path fill="#202020" d="M61.3,85.6c-0.1,0-0.1,0-0.2,0l0.9,0.2C62.5,85.8,61,85.7,61.3,85.6z"/>
						<path fill="#202020" d="M61.4,85.6c0.2-0.1-0.2-0.1-0.4-0.1C61.4,85.5,61,85.6,61.4,85.6z"/>
						<path fill="#202020" d="M61.2,78.1C61.2,78.1,61.2,78.1,61.2,78.1C61.2,78.1,61.2,78.1,61.2,78.1z"/>
						<path fill="#202020" d="M59.8,76.1l-0.3,0c0.6,0.4,0,0.8,0.2,1.2l-0.1,0c-0.1,1,0.4,1.9,0.7,2.8c0,0-0.1,0-0.2,0
							c0.1,0,0.3,0.1,0.3,0.2c-0.1,0-0.2,0-0.2,0c-0.6,0.2,0.3,0.6-0.1,0.7c0.1,0.1,0.3,0.1,0.5,0.1c0.1,0.8,0.2,1.6,0.7,2.3
							c-0.1,0-0.2,0-0.4,0c0.9,0.7,0.5,1.4,0.4,2c0.2,0,0.2-0.1,0.5,0c0.3-0.2-0.6-0.4-0.1-0.6l0.2,0c0.1-0.1-0.6,0-0.3-0.2
							c0.2-0.1,0.3,0,0.3,0c-0.1-0.3,0.1-0.6-0.4-0.9c0.5-0.1,0-0.3,0.5-0.4c-0.2-0.1-0.1-0.2-0.5-0.2c0.3-1.1-0.2-2.2-0.2-3.3
							c-1-0.5,0.2-1.1-0.1-1.7c0,0,0.1,0,0.1,0c-0.2-0.2-0.3-0.5-0.2-0.7l-0.4-0.2c0.8-1.4,0.2-2.9,0.6-4.3c0.2-1.6,0.9-3.1-0.3-4.7
							c0.1,0,0.1,0,0.2,0c-0.2-0.5,0.2-0.9,0-1.3l0.1,0c-0.8-1.1,0.1-2.2-0.7-3.3c0.1-1.3,0-2.7-0.2-4l0.2,0
							c-0.4-1.1,0.6-2.1,0.3-3.2c0.4-1.1-1.1-2.3-0.5-3.4c0.9-0.7-1.1-1.6-0.1-2.2c1.4-1.3,0.5-2.6-0.4-3.9c0.5-1.2-0.8-2.4,0.2-3.6
							c-0.7-0.6,0.8-1.2,0.6-1.8l-0.2,0c0.7-0.2-1-0.5,0.1-0.6l0,0c0.5-0.1-1.3-0.3-0.6-0.3l-0.3,0c-0.1-0.1,0.3,0,0.4-0.1
							c0,0-0.5,0-0.3-0.1c1.1,0-0.2-0.4,1-0.4c0,0.1,0.5-0.1,0.7,0.1c0.1-0.1,0.1-0.3-0.5-0.3c-0.5,0-1-0.1-1.4,0l0.4,0
							c-0.4,0-0.2,0-0.5,0.1c-0.1,0.2-0.6,0.2-0.9,0.4c0,0,0,0,0,0c0.5,0.1,0.2,0.2,0.1,0.3l-0.2,0c-0.5,0,0.9,0.2,0.1,0.2
							c0.2,0.4,0.2,0.8,0.2,1.3c0.3,0.1,0,0.3,0.6,0.2c-0.7,0.1-0.8,0.4-0.8,0.6c-0.1,0-0.1,0-0.1,0c-0.9,0.2,0.8,0.3-0.3,0.5
							c0.7,0-0.2,0.4,0.6,0.5c-0.2,0-0.3,0-0.4,0c0,0.4-0.3,0.8-0.3,1.2c0.7,0.3-0.3,0.7,0.6,0.9c-0.2,0.2-0.6,0.5-0.2,0.8l-0.1,0
							c0.1,0.3,0.1,0.7,0.7,0.9c-0.9,0.1-0.7,0.2-1,0.4c0.4,0.2,0.3,0.6,0.6,1c-0.4,0,0.2,0.3-0.4,0.3c1.1,0.9,0.7,2-0.1,3l0,0
							c0.3,0.1,1,0.3,1.4,0.4c-0.1,0-0.1,0-0.1,0c0.1,0.2-0.5,0.3-0.4,0.5c-0.1,0-0.1,0-0.2,0c0.3,0.2-0.5,0.3,0,0.5l-0.2,0l0.2,0.1
							c-0.2,0-0.5,0-0.4-0.1c-0.2,1.5,0.8,3.1,0.7,4.7l-0.2-0.1l0.3,0.3c-0.1,0-0.1,0-0.2,0c-0.3,0.4,0.2,0.8,0.1,1.2
							c-0.1,0-0.3-0.1-0.4,0c0.5,0.3-0.7,0.4,0.4,0.6c-0.1,0-0.3,0-0.4,0c0.4,0.8,0.3,1.6,0.2,2.3c1,0.6,0.1,1.4,0.9,2l-0.2,0
							c0.7,0.9,0,1.8,0.1,2.7c-0.1,0.4,0.2,0.6,0.2,1l-0.2,0c0.9,0.6-0.8,1.3,0.2,2l-0.3,0c0.5,0.1-0.2,0.4,0.7,0.4l-0.3,0.1
							c1.2,0.5-0.5,0.8,0.2,1.4l-0.2,0c0.2,0.1,0.3,0.3,0.1,0.4c0,0-0.1,0-0.1,0c-0.8,0.5,0.1,1,0.1,1.5l-0.4-0.1
							c0.5,0.2,0,0.7,0.2,1l-0.2,0l0.3,0.2l-0.4,0C59.4,75.4,59.7,75.7,59.8,76.1z"/>
						<path fill="#202020" d="M60.2,80.2C60.2,80.2,60.2,80.2,60.2,80.2C60.2,80.2,60.2,80.2,60.2,80.2z"/>
						<path fill="#202020" d="M58.3,40.2C58.3,40.2,58.4,40.2,58.3,40.2C58.3,40.1,58.3,40.2,58.3,40.2z"/>
					</g>
				</g>
			</g>
		</g>
	</g>
	<g>
		<g>
			<g>
				<g>
					<g>
						<polygon fill="#202020" points="59.7,85.3 59.7,85.3 59.9,85.2 						"/>
						<path fill="#202020" d="M60.3,85.1c0,0,0.1-0.1,0.1-0.1l-0.5,0.3C59.6,85.6,60.4,84.9,60.3,85.1z"/>
						<path fill="#202020" d="M60.2,85.2c-0.1,0.1,0.2,0,0.2-0.1C60.3,85.2,60.4,85,60.2,85.2z"/>
						<path fill="#202020" d="M64,88.8C64,88.8,64,88.8,64,88.8C64,88.8,64,88.8,64,88.8z"/>
						<path fill="#202020" d="M65.6,89.1l0.2-0.1c-0.5,0.1-0.4-0.4-0.7-0.5l0.1,0c-0.4-0.5-1.1-0.7-1.7-1.1c0,0,0.1-0.1,0.1-0.1
							c-0.1,0-0.2,0.1-0.2,0.1c0,0,0.1-0.1,0.1-0.1c0.2-0.4-0.5-0.1-0.3-0.4c-0.1,0-0.2,0.1-0.2,0.2c-0.4-0.3-0.9-0.7-1.5-0.8
							c0-0.1,0.1-0.1,0.2-0.2c-0.7,0.1-0.9-0.4-1.2-0.8c-0.1,0.1-0.1,0.2-0.2,0.2c0,0.2,0.5-0.1,0.4,0.2l-0.1,0.1
							c0,0.1,0.3-0.3,0.2,0c-0.1,0.1-0.1,0.1-0.1,0.2c0.2,0.1,0.3,0.4,0.7,0.2c-0.2,0.3,0.2,0.2,0,0.4c0.1-0.1,0.1,0,0.3-0.1
							c0.4,0.6,1.2,1,1.7,1.5c0.7-0.2,0.5,0.6,0.9,0.8c0,0,0,0,0,0c0.2,0,0.4,0.1,0.5,0.2l0.3-0.1c0.3,1.1,1.3,1.5,1.8,2.4
							c0.7,0.9,1.1,1.9,2.4,2.1c0,0-0.1,0.1-0.1,0.1c0.3,0.1,0.4,0.5,0.7,0.6l0,0c0.9,0.2,1,1.1,2,1.3c0.6,0.7,1.3,1.3,2.1,1.9
							l-0.1,0.1c0.7,0.3,0.7,1.3,1.4,1.7c0.3,0.7,1.6,0.6,1.9,1.4c-0.1,0.8,1.3,0.3,1.1,1c0,1.3,1,1.5,2.1,1.8
							c0.4,0.8,1.6,0.8,1.7,1.9c0.6,0,0.2,1,0.6,1.2l0.1-0.1c-0.2,0.4,0.7-0.2,0.3,0.3l0,0c-0.2,0.3,0.7-0.5,0.5-0.1l0.1-0.1
							c0.1,0-0.1,0.1-0.1,0.3c0,0,0.2-0.2,0.2-0.1c-0.5,0.5,0.3,0.1-0.3,0.6c0,0-0.2,0.3-0.4,0.3c0,0.1,0.1,0.2,0.3-0.1
							c0.3-0.2,0.5-0.4,0.7-0.7l-0.2,0.2c0.2-0.2,0.1-0.1,0.2-0.3c-0.1-0.1,0.2-0.4,0.2-0.6c0,0,0,0,0,0c-0.3,0.2-0.2,0-0.2-0.1
							l0.1-0.1c0.2-0.2-0.5,0.3-0.1,0c-0.3-0.1-0.5-0.3-0.7-0.5c-0.2,0.1-0.1-0.2-0.4,0.1c0.3-0.4,0.2-0.6,0.1-0.7
							c0,0,0.1-0.1,0.1,0c0.3-0.5-0.5,0.2-0.1-0.4c-0.4,0.3-0.1-0.3-0.6,0c0.1-0.1,0.1-0.2,0.2-0.2c-0.2-0.2-0.3-0.5-0.4-0.7
							c-0.4,0.2-0.2-0.5-0.7-0.2c0-0.2,0-0.5-0.3-0.5l0.1,0c-0.2-0.1-0.4-0.3-0.8-0.1c0.4-0.5,0.2-0.4,0.3-0.6
							c-0.3,0.1-0.4-0.2-0.8-0.2c0.2-0.2-0.2-0.1,0.1-0.3c-1,0.1-1.3-0.7-1.4-1.5l0,0c-0.2,0.1-0.6,0.3-0.9,0.5c0,0,0.1-0.1,0.1-0.1
							c-0.1,0,0-0.4-0.1-0.4c0,0,0,0,0.1-0.1c-0.2,0,0.1-0.4-0.3-0.3l0.1-0.1l-0.2,0c0.1-0.1,0.2-0.2,0.2-0.2
							c-0.7-0.8-1.9-1.1-2.6-2l0.1-0.1l-0.3,0c0,0,0.1-0.1,0.1-0.1c0-0.3-0.5-0.3-0.6-0.5c0,0,0.2-0.1,0.2-0.2
							c-0.4,0.1,0.1-0.5-0.5-0.1c0,0,0.1-0.1,0.2-0.2c-0.5-0.2-0.9-0.6-1.2-1.1c-0.8,0.1-0.7-0.6-1.4-0.6l0.1-0.1
							c-0.8-0.1-0.9-0.9-1.4-1.3c-0.1-0.2-0.4-0.2-0.6-0.4l0.1-0.1c-0.7,0.1-0.3-1-1.1-0.9l0.2-0.1c-0.3,0.2-0.1-0.3-0.5,0.2
							l0.1-0.2c-0.8,0.3-0.1-0.7-0.8-0.6l0.1-0.1c-0.1,0-0.3,0-0.3-0.2c0,0,0,0,0.1,0c0.2-0.6-0.5-0.4-0.7-0.7l0.2-0.2
							c-0.3,0.1-0.3-0.3-0.6-0.4l0.1-0.1l-0.2,0l0.2-0.2C66.2,89.3,65.8,89.2,65.6,89.1z"/>
						<path fill="#202020" d="M63.4,87.3C63.4,87.3,63.4,87.3,63.4,87.3C63.5,87.3,63.5,87.3,63.4,87.3z"/>
						<path fill="#202020" d="M83.9,105.9C83.9,106,83.9,106,83.9,105.9C83.9,106,83.9,106,83.9,105.9z"/>
					</g>
				</g>
			</g>
		</g>
	</g>
	<g>
		<g>
			<g>
				<g>
					<g>
						<polygon fill="#202020" points="60.9,82.7 60.8,82.7 61,82.9 						"/>
						<path fill="#202020" d="M61.2,83.4c0,0,0.1,0.1,0.2,0.1l-0.5-0.7C60.4,82.5,61.4,83.6,61.2,83.4z"/>
						<path fill="#202020" d="M61.1,83.4c-0.2-0.1,0.1,0.2,0.2,0.3C61,83.5,61.4,83.7,61.1,83.4z"/>
						<path fill="#202020" d="M57.1,87.7C57.1,87.7,57.1,87.7,57.1,87.7C57.1,87.7,57.1,87.7,57.1,87.7z"/>
						<path fill="#202020" d="M57,89.8l0.2,0.2c-0.2-0.6,0.4-0.4,0.5-0.8l0.1,0.1c0.6-0.4,0.7-1.3,1.1-2.1c0,0,0.1,0.1,0.1,0.1
							c-0.1-0.1-0.2-0.3-0.1-0.3c0.1,0,0.1,0.1,0.1,0.2c0.5,0.3,0.1-0.6,0.5-0.4c0-0.1-0.2-0.3-0.3-0.4c0.3-0.5,0.7-1,0.8-1.8
							c0.1,0,0.2,0.1,0.3,0.3c-0.3-1,0.4-1.1,0.8-1.4c-0.2-0.2-0.2-0.1-0.3-0.3c-0.3-0.1,0.2,0.6-0.2,0.4l-0.1-0.2
							c-0.2,0,0.4,0.4,0.1,0.3c-0.2-0.1-0.2-0.2-0.2-0.2c-0.1,0.2-0.4,0.3-0.2,0.8c-0.4-0.3-0.2,0.2-0.6-0.1c0.1,0.2,0,0.2,0.2,0.4
							c-0.8,0.4-1,1.3-1.7,1.9c0.4,1-0.8,0.5-0.9,1.1c0,0-0.1,0-0.1-0.1c0.1,0.3,0,0.5-0.2,0.6l0.2,0.4c-1.4,0.2-1.8,1.4-2.8,2
							c-1.1,0.7-2.4,1.1-2.4,2.8c-0.1-0.1-0.1-0.1-0.1-0.1c-0.1,0.4-0.6,0.4-0.7,0.8L51,94c0,1.2-1.3,1.2-1.3,2.3
							c-0.8,0.6-1.5,1.5-2.1,2.4l-0.1-0.1c-0.3,0.9-1.6,0.7-2,1.5c-0.9,0.3-0.5,2-1.5,2.2c-1-0.3-0.1,1.6-1.2,1.3
							c-1.8-0.3-1.8,1.1-1.9,2.4c-1,0.3-0.8,1.9-2.2,1.8c0.2,0.8-1.2,0.1-1.5,0.5l0.2,0.2c-0.6-0.4,0.4,1-0.4,0.3l0,0
							c-0.4-0.3,0.7,1,0.2,0.6l0.2,0.2c0,0.1-0.2-0.2-0.4-0.2c0,0,0.3,0.3,0.2,0.3c-0.8-0.8,0,0.4-0.9-0.5c0,0-0.4-0.3-0.5-0.5
							c-0.1-0.1-0.2,0.1,0.2,0.5c0.4,0.4,0.7,0.8,1,1l-0.3-0.3c0.3,0.3,0.2,0.1,0.4,0.3c0.1-0.1,0.6,0.3,0.8,0.4c0,0,0,0,0,0
							c-0.3-0.4,0-0.3,0.1-0.3l0.2,0.1c0.4,0.3-0.5-0.8,0-0.2c0.1-0.4,0.3-0.6,0.6-0.8c-0.2-0.2,0.2-0.2-0.3-0.5
							c0.5,0.4,0.8,0.4,0.9,0.3c0,0,0.1,0.1,0.1,0.1c0.7,0.5-0.4-0.7,0.5-0.1c-0.5-0.5,0.4-0.1-0.2-0.7c0.1,0.1,0.2,0.2,0.3,0.3
							c0.2-0.2,0.7-0.3,0.9-0.4c-0.3-0.6,0.6-0.2,0.1-0.9c0.2,0,0.7,0.1,0.6-0.3l0.1,0.1c0.1-0.2,0.3-0.5,0-1
							c0.7,0.6,0.6,0.4,0.9,0.5c-0.2-0.4,0.2-0.6,0.1-1c0.3,0.3,0-0.3,0.4,0.1c-0.3-1.3,0.6-1.6,1.7-1.6l0,0
							c-0.2-0.3-0.6-0.9-0.8-1.2c0,0,0.1,0.1,0.1,0.1c0-0.2,0.5,0.1,0.5,0c0.1,0.1,0.1,0.1,0.1,0.1c-0.1-0.3,0.5,0.1,0.3-0.3
							l0.1,0.1l-0.1-0.2c0.1,0.1,0.3,0.3,0.3,0.3c1-0.7,1.1-2.3,2.1-3l0.1,0.2l-0.1-0.4c0.1,0.1,0.1,0.1,0.1,0.1
							c0.4,0,0.3-0.6,0.5-0.7c0.1,0.1,0.2,0.2,0.3,0.3c-0.2-0.5,0.7,0.2,0-0.6c0,0,0.2,0.2,0.3,0.3c0.2-0.7,0.6-1.1,1.2-1.4
							c-0.3-1.1,0.7-0.8,0.5-1.8l0.1,0.1c0-1,1-1,1.4-1.6c0.3-0.2,0.2-0.5,0.4-0.7l0.2,0.2c-0.3-1,1.3-0.2,1-1.2l0.2,0.3
							c-0.3-0.4,0.4-0.1-0.3-0.7l0.3,0.1c-0.6-1.1,0.8-0.1,0.6-0.9l0.1,0.2c0-0.2,0-0.4,0.2-0.3c0,0,0.1,0.1,0.1,0.1
							c0.8,0.3,0.5-0.6,0.8-0.8l0.2,0.3c-0.2-0.5,0.3-0.4,0.4-0.7l0.1,0.1l-0.1-0.3l0.3,0.3C56.8,90.5,56.8,90,57,89.8z"/>
						<path fill="#202020" d="M58.9,87.3C58.9,87.3,58.9,87.3,58.9,87.3C58.9,87.3,59,87.3,58.9,87.3z"/>
						<path fill="#202020" d="M38.1,110.7C38.1,110.7,38.1,110.7,38.1,110.7C38.1,110.8,38.1,110.7,38.1,110.7z"/>
					</g>
				</g>
			</g>
		</g>
	</g>
	<g>
		<g>
			<g>
				<g>
					<g>
						<polygon fill="#202020" points="58.7,56.2 58.6,56.1 58.8,56.3 						"/>
						<path fill="#202020" d="M59,56.8c0,0,0.1,0.1,0.2,0.1l-0.5-0.7C58.2,55.9,59.3,57,59,56.8z"/>
						<path fill="#202020" d="M58.9,56.8c-0.2-0.1,0.1,0.2,0.2,0.3C58.9,56.8,59.2,57.1,58.9,56.8z"/>
						<path fill="#202020" d="M56.1,59.9C56.1,59.9,56.1,59.9,56.1,59.9C56.1,59.9,56.1,59.9,56.1,59.9z"/>
						<path fill="#202020" d="M56.3,61.7l0.2,0.2c-0.3-0.6,0.3-0.3,0.3-0.6l0.1,0.1c0.5-0.3,0.4-1,0.7-1.6c0,0,0.1,0.1,0.1,0.1
							c-0.1-0.1-0.2-0.3-0.2-0.3c0.1,0,0.1,0.1,0.1,0.1c0.5,0.3,0-0.5,0.3-0.2c0-0.1-0.2-0.2-0.3-0.3c0.2-0.4,0.5-0.8,0.5-1.4
							c0.1,0,0.2,0.1,0.3,0.3c-0.4-0.9,0.2-0.9,0.5-1.1c-0.2-0.2-0.2-0.1-0.3-0.3c-0.3-0.1,0.2,0.6-0.1,0.3l-0.1-0.2
							c-0.2,0,0.4,0.4,0.1,0.3c-0.2-0.1-0.2-0.2-0.2-0.2c-0.1,0.2-0.3,0.2-0.1,0.7c-0.4-0.3-0.1,0.1-0.5-0.2c0.1,0.2,0,0.2,0.3,0.4
							c-0.6,0.2-0.7,1-1.2,1.4c0.5,0.9-0.6,0.3-0.6,0.8c0,0-0.1,0-0.1-0.1c0.1,0.2,0.1,0.4-0.1,0.4l0.2,0.4c-1.1,0-1.3,1-2.1,1.3
							c-0.8,0.5-1.9,0.6-1.6,2.1C52.3,64,52.3,64,52.3,64c0,0.3-0.5,0.2-0.5,0.6l-0.1-0.1c0.1,1-1,0.8-0.8,1.8
							c-0.6,0.4-1.1,1.1-1.4,1.8l-0.1-0.1c-0.1,0.7-1.3,0.4-1.5,1c-0.7,0.1-0.1,1.7-1,1.7c-0.9-0.4,0.1,1.4-0.8,1
							c-1.5-0.5-1.4,0.7-1.3,1.8c-0.8,0.1-0.4,1.5-1.6,1.3c0.3,0.7-1.1-0.1-1.2,0.3l0.2,0.2c-0.6-0.4,0.5,0.9-0.3,0.2l0,0
							c-0.4-0.3,0.8,1,0.3,0.6l0.2,0.2c0,0.1-0.2-0.2-0.3-0.2c0,0,0.3,0.3,0.2,0.3c-0.8-0.8,0,0.3-0.8-0.5c0,0-0.4-0.3-0.5-0.5
							c-0.1-0.1-0.2,0.1,0.2,0.4c0.4,0.4,0.7,0.8,1,1l-0.3-0.3c0.3,0.3,0.2,0.1,0.4,0.3c0.1,0,0.5,0.4,0.8,0.5c0,0,0,0,0,0
							c-0.3-0.4,0-0.2,0-0.2l0.2,0.1c0.3,0.3-0.6-0.7,0-0.1c0-0.3,0.2-0.5,0.4-0.6c-0.2-0.2,0.2-0.1-0.3-0.5C43.7,76,44,76,44,75.9
							c0,0,0.1,0.1,0.1,0.1c0.7,0.5-0.5-0.7,0.4,0c-0.5-0.5,0.3,0-0.2-0.7c0.1,0.1,0.2,0.2,0.3,0.3c0.2-0.1,0.5-0.1,0.7-0.2
							c-0.3-0.6,0.5-0.1-0.1-0.8c0.2,0.1,0.6,0.2,0.5-0.2l0.1,0.1c0.1-0.2,0.2-0.4-0.1-0.8c0.6,0.6,0.6,0.4,0.8,0.5
							c-0.2-0.4,0.1-0.5-0.1-0.8c0.3,0.3,0-0.2,0.4,0.2c-0.4-1.2,0.3-1.3,1.3-1.1l0,0c-0.2-0.3-0.6-0.8-0.9-1.2c0,0,0.1,0.1,0.1,0.1
							c0-0.1,0.5,0.2,0.5,0c0.1,0.1,0.1,0.1,0.1,0.1c-0.1-0.2,0.5,0.2,0.2-0.2l0.1,0.1l-0.1-0.2c0.1,0.1,0.3,0.3,0.3,0.3
							c0.7-0.5,0.7-1.8,1.4-2.3l0.1,0.2l-0.1-0.4c0.1,0.1,0.1,0.1,0.1,0.1c0.4,0.1,0.2-0.5,0.4-0.6c0.1,0.1,0.2,0.2,0.3,0.3
							c-0.3-0.5,0.7,0.3-0.1-0.5c0,0,0.2,0.2,0.3,0.3c0.1-0.6,0.4-0.9,0.8-1c-0.4-1,0.5-0.6,0.2-1.4l0.1,0.1c-0.1-0.8,0.7-0.7,1-1.1
							c0.2-0.1,0.1-0.4,0.3-0.5l0.2,0.2C52.9,64,54.5,65,54,64l0.2,0.3c-0.3-0.4,0.3,0-0.4-0.6l0.2,0.1c-0.6-1,0.7,0.1,0.4-0.7
							l0.1,0.2c-0.1-0.2-0.1-0.3,0.1-0.2c0,0,0.1,0.1,0.1,0.1c0.8,0.4,0.3-0.4,0.5-0.6l0.3,0.3c-0.2-0.4,0.2-0.3,0.2-0.6l0.1,0.1
							l-0.1-0.2l0.3,0.3C56.3,62.2,56.2,61.9,56.3,61.7z"/>
						<path fill="#202020" d="M57.6,59.8C57.6,59.8,57.6,59.8,57.6,59.8C57.6,59.8,57.6,59.8,57.6,59.8z"/>
						<path fill="#202020" d="M43.1,77C43,77,43,77,43.1,77C43.1,77,43.1,77,43.1,77z"/>
					</g>
				</g>
			</g>
		</g>
	</g>
	<g>
		<g>
			<g>
				<g>
					<g>
						<polygon fill="#202020" points="59.1,58.6 59,58.7 59.2,58.5 						"/>
						<path fill="#202020" d="M59.5,58.4c0,0,0.1-0.1,0.1-0.1l-0.5,0.3C58.9,58.9,59.7,58.2,59.5,58.4z"/>
						<path fill="#202020" d="M59.5,58.5c-0.1,0.1,0.1-0.1,0.2-0.1C59.6,58.5,59.7,58.3,59.5,58.5z"/>
						<path fill="#202020" d="M62.6,61.3C62.6,61.3,62.5,61.3,62.6,61.3C62.5,61.4,62.5,61.4,62.6,61.3z"/>
						<path fill="#202020" d="M64,61.4l0.2-0.1c-0.4,0.1-0.3-0.3-0.6-0.3l0.1,0c-0.3-0.4-0.9-0.5-1.4-0.8c0,0,0.1-0.1,0.1-0.1
							c-0.1,0-0.2,0.1-0.2,0.1c0,0,0.1-0.1,0.1-0.1c0.2-0.3-0.4-0.1-0.3-0.3c-0.1,0-0.2,0.1-0.2,0.2c-0.4-0.2-0.7-0.5-1.2-0.6
							c0-0.1,0.1-0.1,0.2-0.2c-0.7,0.2-0.8-0.3-1-0.6c-0.1,0.1-0.1,0.1-0.2,0.2c-0.1,0.2,0.4-0.1,0.3,0.2L59.6,59
							c0,0.1,0.3-0.3,0.2-0.1c-0.1,0.1-0.1,0.1-0.1,0.1c0.2,0.1,0.2,0.3,0.6,0.2c-0.2,0.3,0.1,0.1-0.1,0.4c0.1-0.1,0.1,0,0.3-0.1
							c0.3,0.5,1,0.7,1.4,1.2c0.7-0.2,0.4,0.5,0.7,0.6c0,0,0,0,0,0c0.2,0,0.4,0,0.4,0.2l0.3-0.1c0.2,1,1,1.2,1.4,2
							c0.5,0.8,0.8,1.6,2,1.7c0,0-0.1,0.1-0.1,0.1c0.3,0.1,0.3,0.4,0.5,0.5l0,0c0.8,0.1,0.8,0.9,1.6,0.9c0.5,0.5,1.1,1.1,1.7,1.5
							l-0.1,0.1c0.6,0.2,0.5,1.1,1.1,1.4c0.2,0.6,1.4,0.4,1.6,1.1c-0.2,0.7,1.1,0.1,0.9,0.8c-0.2,1.2,0.8,1.3,1.7,1.4
							c0.2,0.7,1.3,0.6,1.3,1.5c0.5-0.1,0.1,0.9,0.4,1l0.1-0.1c-0.2,0.4,0.7-0.3,0.2,0.3l0,0c-0.2,0.3,0.7-0.5,0.4-0.2l0.1-0.1
							c0.1,0-0.1,0.1-0.1,0.2c0,0,0.2-0.2,0.2-0.1c-0.5,0.5,0.2,0-0.3,0.6c0,0-0.2,0.3-0.4,0.3c0,0.1,0.1,0.1,0.3-0.1
							c0.3-0.2,0.5-0.4,0.7-0.7l-0.2,0.2c0.2-0.2,0.1-0.1,0.2-0.3c-0.1-0.1,0.2-0.4,0.3-0.6c0,0,0,0,0,0c-0.3,0.2-0.2,0-0.2-0.1
							l0.1-0.1c0.2-0.2-0.5,0.3-0.1,0c-0.2-0.1-0.4-0.2-0.6-0.4c-0.2,0.1-0.1-0.1-0.4,0.2c0.3-0.4,0.2-0.6,0.2-0.6
							c0,0,0.1-0.1,0.1,0c0.3-0.5-0.5,0.3-0.1-0.3c-0.4,0.3,0-0.3-0.5,0.1c0.1-0.1,0.1-0.2,0.2-0.2c-0.1-0.2-0.2-0.5-0.3-0.6
							c-0.4,0.2-0.1-0.4-0.7-0.1c0-0.2,0.1-0.5-0.2-0.4l0.1,0c-0.2-0.1-0.3-0.2-0.7-0.1c0.4-0.4,0.2-0.4,0.3-0.6
							c-0.3,0.1-0.4-0.1-0.7-0.1c0.2-0.2-0.2,0,0.1-0.3c-0.9,0.2-1.1-0.5-1.1-1.2l0,0c-0.2,0.1-0.6,0.4-0.8,0.5c0,0,0.1-0.1,0.1-0.1
							c-0.1,0,0.1-0.4,0-0.4c0,0,0,0,0.1-0.1c-0.2,0.1,0.1-0.4-0.2-0.2l0.1-0.1l-0.2,0.1c0.1-0.1,0.2-0.2,0.2-0.2
							c-0.5-0.7-1.6-0.8-2.1-1.5l0.1-0.1l-0.3,0c0,0,0.1-0.1,0.1-0.1c0-0.3-0.4-0.2-0.5-0.4c0,0,0.2-0.1,0.2-0.2
							c-0.4,0.1,0.1-0.5-0.4,0c0,0,0.1-0.1,0.2-0.2c-0.5-0.1-0.8-0.5-1-0.8c-0.7,0.2-0.6-0.5-1.2-0.4l0.1-0.1c-0.7,0-0.7-0.7-1.1-1
							c-0.1-0.2-0.3-0.2-0.5-0.3l0.1-0.1c-0.7,0.2-0.1-0.9-0.9-0.7l0.2-0.1c-0.3,0.2-0.1-0.2-0.5,0.2l0.1-0.2
							C65.4,64,66,63,65.4,63.2l0.1-0.1c-0.1,0-0.3,0-0.2-0.1c0,0,0,0,0.1-0.1c0.2-0.6-0.4-0.3-0.6-0.5l0.2-0.2
							c-0.3,0.1-0.3-0.2-0.5-0.3l0.1-0.1l-0.2,0.1l0.2-0.2C64.5,61.6,64.2,61.6,64,61.4z"/>
						<path fill="#202020" d="M62.2,60C62.2,60.1,62.2,60.1,62.2,60C62.2,60,62.2,60,62.2,60z"/>
						<path fill="#202020" d="M78.9,74.9C78.9,74.9,78.8,75,78.9,74.9C78.9,74.9,78.9,74.9,78.9,74.9z"/>
					</g>
				</g>
			</g>
		</g>
	</g>
</g>
<g>
	<circle fill="none" stroke="#FFFFFF" stroke-miterlimit="10" cx="180" cy="33.8" r="26.8"/>
	<g>
		<g>
			<g>
				<g>
					<g>
						<polygon fill="#202020" points="205.4,33.8 205.5,33.8 205.2,33.6 						"/>
						<path fill="#202020" d="M204.6,32.6c-0.1,0-0.1,0-0.2,0.1l0.9,0.7C205.8,33,204.3,32.8,204.6,32.6z"/>
						<path fill="#202020" d="M204.7,32.4c0.2-0.3-0.2-0.4-0.4-0.4C204.6,32,204.2,32.5,204.7,32.4z"/>
						<path fill="#202020" d="M191.7,12.2C191.7,12.3,191.8,12.3,191.7,12.2C191.8,12.2,191.7,12.2,191.7,12.2z"/>
						<path fill="#202020" d="M185.3,11.3l-0.1,0.3c0.6-0.1,1.2,0,1.8,0.2c0.6,0.3,1.1,0.5,1.7,0.6l-0.1,0.1
							c2.7,1.3,5.4,2.3,7.9,4.3c-0.1,0-0.1,0.1-0.2,0c0.2,0,0.5,0,0.6,0.1c0,0.1-0.1,0.1-0.2,0.1c0.1,0.8,1.6,1.2,1.5,1.8
							c0.2,0.1,0.4,0,0.5-0.2c1.7,1.8,3.1,4.1,4.4,6.3c0,0.1-0.2,0.2-0.3,0.3c1.7,1.7,1.8,4.2,1.9,6.4c0.2,0.1,0.2-0.3,0.5-0.1
							c0.3-0.8-0.7-1.3-0.4-2l0.2,0c0.1-0.5-0.6,0-0.4-0.5c0.2-0.2,0.3,0,0.3-0.1c-0.3-1-0.4-2.1-1.2-2.9c0.4-0.4-0.4-1-0.1-1.6
							c-0.3-0.2-0.3-0.5-0.7-0.4c-1.2-3.4-3.8-6.2-6.4-8.7c-0.9-0.2-1.6-0.8-2.3-1.5c-0.7-0.7-1.5-1.3-2.4-1.7c0,0,0-0.1,0-0.1
							c-0.7-0.1-1.6-0.4-2.3-0.8l-0.8,0.1c-2-1.3-4.4-1.8-6.7-2c-2.4-0.2-4.8,0.1-7.2,0.4c-2.7,0.4-5.2,1.3-7.4,2.5
							c-1.1,0.6-2.1,1.4-3.1,2.3c-0.4,0.5-0.9,1-1.3,1.5c-0.4,0.5-0.7,1.1-1.1,1.7c-0.1-0.1-0.1-0.1-0.1-0.2
							c-0.5,0.6-0.9,1.2-1.4,1.7c-0.2,0.3-0.5,0.5-0.7,0.8c-0.2,0.3-0.4,0.6-0.5,0.9l-0.1-0.1c-0.1,0.4-0.3,0.8-0.5,1.3
							c-0.1,0.4-0.3,0.9-0.5,1.3c-0.4,0.8-0.7,1.7-1,2.5c-0.3,0.8-0.5,1.7-0.7,2.6c-0.1,0.9-0.1,1.8-0.1,2.6
							c-0.5,4,0.3,8.8,2.4,12.5l-0.2,0.1c0.2,0.4,0.4,0.7,0.6,1.1c0.2,0.4,0.4,0.7,0.6,1.1c0.4,0.8,0.8,1.5,1.3,2.2
							c0.9,1.4,2,2.8,3.4,3.8c0.6,0.6,1.4,1.2,2.2,1.6c0.4,0.2,0.8,0.4,1.2,0.6c0.4,0.2,0.8,0.4,1.3,0.5c0.9,0.3,1.7,0.6,2.6,0.8
							c0.4,0.1,0.8,0.3,1.3,0.4c0.4,0.1,0.8,0.3,1.2,0.5c0.2,0.2,0.5,0.3,0.8,0.4c0.3,0.1,0.6,0.1,0.9,0.2c0.6,0,1.2,0.1,1.9-0.1
							c0.6-0.1,1.2-0.2,1.8-0.2c0.6,0,1.1,0,1.7,0.2c1.1,0.4,2.1,0.3,3.2,0.3c0.5-0.1,1-0.2,1.6-0.3c0.5-0.1,1-0.3,1.5-0.5
							c0.5-0.2,1-0.5,1.4-0.7c0.5-0.3,0.9-0.6,1.3-0.9l0.6-0.5l0.6-0.5l1.1-1.1c1.7-0.9,3.1-2.3,4.2-3.8c0.6-0.7,1.1-1.5,1.7-2.2
							c0.5-0.8,1.1-1.5,1.8-2.2c0.1-1,0.7-1.6,1.3-2.5c0.3-0.4,0.6-0.8,0.9-1.2c0.2-0.4,0.4-0.9,0.5-1.4l-0.2,0
							c0.4-0.3,0.3-0.7,0.2-1.1c-0.1-0.4-0.3-0.7,0.3-0.9l0,0.1c0.6-0.3-1.1-1-0.5-1.2l-0.3-0.1c0-0.4,0.3,0,0.4-0.4
							c0-0.1-0.5-0.1-0.3-0.3c1.1,0-0.2-1.1,1-1.1c0,0.3,0.5-0.4,0.7,0.2c0.1-0.2,0.1-1-0.4-0.9c-0.5-0.1-1-0.4-1.5,0.1l0.4,0.1
							c-0.4,0.1-0.2,0.1-0.5,0.2c-0.1,0.6-0.7,0.6-0.9,1c0,0,0,0,0,0c0.5,0.3,0.2,0.7,0.1,0.9l-0.2,0.1c-0.5,0.1,0.8,0.7,0,0.5
							c0,0.6,0,1.2-0.1,1.8c-0.1,0.6-0.3,1.3-0.5,1.9c0.2,0.3-0.4,0.9,0.3,0.8c-0.8,0.1-1.2,0.9-1.3,1.3c-0.1,0-0.1-0.1-0.1-0.1
							c-1.1,0.2,0.4,1.1-0.9,1.2c0.3,0.2,0.1,0.5-0.1,0.7c-0.2,0.3-0.4,0.5-0.1,0.9c-0.2,0-0.3-0.1-0.4-0.2c-0.3,0.5-0.7,1-1.1,1.4
							c-0.4,0.4-0.8,0.8-1.1,1.2c-0.1,1-1.5,1.3-1.5,2.4c-0.3,0.1-0.7,0.3-1,0.5c-0.4,0.2-0.7,0.5-1,0.8l0-0.1
							c-0.7,0.6-1.7,1.2-2,2.1c-0.7-0.6-0.9-0.3-1.4-0.4c-0.2,0.3-0.6,0.6-1,0.9c-0.5,0.2-0.9,0.5-1.3,0.8c-0.3-0.3-0.7,0.4-0.9-0.1
							c-0.6,0.4-1.2,0.8-1.9,1.1c-0.7,0.2-1.5,0.4-2.2,0.4c-0.8,0-1.6,0-2.3-0.2c-0.8-0.2-1.5-0.4-2.2-0.7l0,0
							c-0.4,0.3-0.9,0.9-1.4,1.2c0-0.1,0-0.1,0.1-0.1c-0.3,0-0.5-0.1-0.8-0.3c-0.2-0.2-0.5-0.4-0.7-0.4c0-0.1,0-0.1,0.1-0.2
							c-0.5,0.1-0.9-0.7-1.6-0.4l0-0.2l-0.4,0.1c0.1-0.2,0.2-0.4,0.3-0.3c-2.1-0.8-4.2-1.6-6.2-2.8c-1-0.6-1.9-1.3-2.9-2.1
							c-0.4-0.4-0.8-0.8-1.2-1.3c-0.4-0.4-0.7-0.9-1.1-1.4l0.3,0l-0.8-0.5c0.1,0,0.1,0,0.2,0c-0.3-1.2-1.5-1.9-1.8-3
							c0.1,0,0.3,0,0.4-0.1c-0.9-0.5,0.1-1.5-1.1-1.5c0-0.1,0.3-0.2,0.4-0.1c-0.6-1-1-2.2-1.3-3.3c-0.2-1.2-0.4-2.4-0.3-3.5
							c-0.6-1-0.5-2-0.5-3.1c0-0.5,0.2-1.1,0.2-1.6c0-0.3,0-0.5,0-0.8c0-0.3,0-0.5,0-0.8l0.2,0.1c0-1.4,0.5-2.8,1.1-4
							c0.4-0.6,0.7-1.3,1.1-1.9c0.4-0.6,0.8-1.2,1.1-1.8c0.8-0.9,1-1.7,1.8-2.6l0.2,0.1c0.3-1.1,1.3-1.6,2.2-2.2
							c0.5-0.3,1-0.5,1.4-0.8c0.2-0.2,0.4-0.3,0.6-0.5c0.2-0.2,0.4-0.4,0.5-0.6l0.1,0.4c0-0.6,1.2-0.5,0.6-1.2l0.4,0
							c0.4-0.8,1-1,1.7-1.1c0.7-0.1,1.5-0.1,2.2-0.8l0,0.2c0.4-0.3,0.9-0.6,1.3-0.5c0,0,0,0.1-0.1,0.2c0.8,0.2,1.5,0,2.2-0.2
							c0.7-0.2,1.5-0.6,2.3-0.6l-0.1,0.4c0.3-0.2,0.9-0.3,1.4-0.3c0.5,0,1.1,0.1,1.6,0l-0.1,0.2l0.5-0.2l0,0.4
							c0.6,0,1.2,0.1,1.8,0.1C184.1,11.2,184.7,11.2,185.3,11.3z"/>
						<path fill="#202020" d="M196.6,17.1C196.6,17.1,196.6,17.1,196.6,17.1C196.5,17.1,196.5,17.1,196.6,17.1z"/>
						<path fill="#202020" d="M201.6,35.4c0-0.1,0-0.1,0.1-0.1C201.6,35.2,201.6,35.3,201.6,35.4z"/>
					</g>
				</g>
			</g>
		</g>
	</g>
	<g>
		<g>
			<g>
				<g>
					<g>
						<polygon fill="#202020" points="182,86.2 182.1,86.1 181.8,86.1 						"/>
						<path fill="#202020" d="M181.3,85.8c-0.1,0-0.1,0-0.2,0L182,86C182.5,85.9,181,85.9,181.3,85.8z"/>
						<path fill="#202020" d="M181.4,85.7c0.2-0.1-0.2-0.1-0.4-0.1C181.4,85.6,181,85.7,181.4,85.7z"/>
						<path fill="#202020" d="M181.2,78.2C181.2,78.3,181.2,78.3,181.2,78.2C181.2,78.3,181.2,78.2,181.2,78.2z"/>
						<path fill="#202020" d="M179.8,76.3l-0.3,0c0.6,0.4,0,0.8,0.2,1.2l-0.1,0c-0.1,1,0.4,1.9,0.7,2.8c0,0-0.1,0-0.2,0
							c0.1,0,0.3,0.1,0.3,0.2c-0.1,0-0.2,0-0.2,0c-0.6,0.2,0.3,0.6-0.1,0.7c0.1,0.1,0.3,0.1,0.5,0.1c0.1,0.8,0.2,1.6,0.7,2.3
							c-0.1,0-0.2,0-0.4,0c0.9,0.7,0.5,1.4,0.4,2c0.2,0,0.2-0.1,0.5,0c0.3-0.2-0.6-0.4-0.1-0.6l0.2,0c0.1-0.1-0.6,0-0.3-0.2
							c0.2-0.1,0.3,0,0.3,0c-0.1-0.3,0.1-0.6-0.4-0.9c0.5-0.1,0-0.3,0.5-0.4c-0.2-0.1-0.1-0.2-0.5-0.2c0.3-1.1-0.2-2.2-0.2-3.3
							c-1-0.5,0.2-1.1-0.1-1.7c0,0,0.1,0,0.1,0c-0.2-0.2-0.3-0.5-0.2-0.7l-0.4-0.2c0.8-1.4,0.2-2.9,0.6-4.3c0.2-1.6,0.9-3.1-0.3-4.7
							c0.1,0,0.1,0,0.2,0c-0.2-0.5,0.2-0.9,0-1.3l0.1,0c-0.8-1.1,0.1-2.2-0.7-3.3c0.1-1.3,0-2.7-0.2-4l0.2,0
							c-0.4-1.1,0.6-2.1,0.3-3.2c0.4-1.1-1.1-2.3-0.5-3.4c0.9-0.7-1.1-1.6-0.1-2.2c1.4-1.3,0.5-2.6-0.4-3.9c0.5-1.2-0.8-2.4,0.2-3.6
							c-0.7-0.6,0.8-1.2,0.6-1.8l-0.2,0c0.7-0.2-1-0.5,0.1-0.6l0,0c0.5-0.1-1.3-0.3-0.6-0.3l-0.3,0c-0.1-0.1,0.3,0,0.4-0.1
							c0,0-0.5,0-0.3-0.1c1.1,0-0.2-0.4,1-0.4c0,0.1,0.5-0.1,0.7,0.1c0.1-0.1,0.1-0.3-0.5-0.3c-0.5,0-1-0.1-1.4,0l0.4,0
							c-0.4,0-0.2,0-0.5,0.1c-0.1,0.2-0.6,0.2-0.9,0.4c0,0,0,0,0,0c0.5,0.1,0.2,0.2,0.1,0.3l-0.2,0c-0.5,0,0.9,0.2,0.1,0.2
							c0.2,0.4,0.2,0.8,0.2,1.3c0.3,0.1,0,0.3,0.6,0.2c-0.7,0.1-0.8,0.4-0.8,0.6c-0.1,0-0.1,0-0.1,0c-0.9,0.2,0.8,0.3-0.3,0.5
							c0.7,0-0.2,0.4,0.6,0.5c-0.2,0-0.3,0-0.4,0c0,0.4-0.3,0.8-0.3,1.2c0.7,0.3-0.3,0.7,0.6,0.9c-0.2,0.2-0.6,0.5-0.2,0.8l-0.1,0
							c0.1,0.3,0.1,0.7,0.7,0.9c-0.9,0.1-0.7,0.2-1,0.4c0.4,0.2,0.3,0.6,0.6,1c-0.4,0,0.2,0.3-0.4,0.3c1.1,0.9,0.7,2-0.1,3l0,0
							c0.3,0.1,1,0.3,1.4,0.4c-0.1,0-0.1,0-0.1,0c0.1,0.2-0.5,0.3-0.4,0.5c-0.1,0-0.1,0-0.2,0c0.3,0.2-0.5,0.3,0,0.5l-0.2,0l0.2,0.1
							c-0.2,0-0.5,0-0.4-0.1c-0.2,1.5,0.8,3.1,0.7,4.7l-0.2-0.1l0.3,0.3c-0.1,0-0.1,0-0.2,0c-0.3,0.4,0.2,0.8,0.1,1.2
							c-0.1,0-0.3-0.1-0.4,0c0.5,0.3-0.7,0.4,0.4,0.6c-0.1,0-0.3,0-0.4,0c0.4,0.8,0.3,1.6,0.2,2.3c1,0.6,0.1,1.4,0.9,2l-0.2,0
							c0.7,0.9,0,1.8,0.1,2.7c-0.1,0.4,0.2,0.6,0.2,1l-0.2,0c0.9,0.6-0.8,1.3,0.2,2l-0.3,0c0.5,0.1-0.2,0.4,0.7,0.4l-0.3,0.1
							c1.2,0.5-0.5,0.8,0.2,1.4l-0.2,0c0.2,0.1,0.3,0.3,0.1,0.4c0,0-0.1,0-0.1,0c-0.8,0.5,0.1,1,0.1,1.5l-0.4-0.1
							c0.5,0.2,0,0.7,0.2,1l-0.2,0l0.3,0.2l-0.4,0C179.4,75.5,179.7,75.9,179.8,76.3z"/>
						<path fill="#202020" d="M180.2,80.3C180.2,80.3,180.2,80.3,180.2,80.3C180.2,80.3,180.2,80.3,180.2,80.3z"/>
						<path fill="#202020" d="M178.3,40.4C178.3,40.3,178.4,40.3,178.3,40.4C178.3,40.3,178.3,40.3,178.3,40.4z"/>
					</g>
				</g>
			</g>
		</g>
	</g>
	<g>
		<g>
			<g>
				<g>
					<g>
						<polygon fill="#202020" points="179.5,86.7 179.4,86.7 179.6,86.7 						"/>
						<path fill="#202020" d="M180,86.7c0,0,0.1,0,0.1-0.1l-0.6,0.1C179.2,86.9,180.2,86.6,180,86.7z"/>
						<path fill="#202020" d="M179.9,86.8c-0.1,0.1,0.2,0,0.2,0C180,86.8,180.2,86.7,179.9,86.8z"/>
						<path fill="#202020" d="M181.4,91C181.4,90.9,181.4,90.9,181.4,91C181.4,91,181.4,91,181.4,91z"/>
						<path fill="#202020" d="M182.7,91.8l0.2-0.1c-0.4-0.1-0.1-0.4-0.4-0.6l0.1,0c-0.1-0.6-0.6-1-0.9-1.5c0,0,0.1,0,0.1,0
							c-0.1,0-0.2,0-0.2,0c0,0,0.1,0,0.1,0c0.3-0.2-0.3-0.3-0.1-0.4c0,0-0.2,0-0.3,0.1c-0.2-0.4-0.4-0.8-0.9-1.2
							c0,0,0.1-0.1,0.3-0.1c-0.7-0.2-0.6-0.7-0.6-1.1c-0.2,0-0.1,0.1-0.3,0.1c-0.1,0.2,0.4,0.1,0.2,0.3l-0.1,0
							c-0.1,0.1,0.4-0.1,0.2,0c-0.1,0.1-0.2,0.1-0.2,0.1c0.1,0.2,0,0.4,0.4,0.4c-0.3,0.1,0,0.2-0.2,0.3c0.1,0,0.1,0.1,0.3,0
							c0,0.7,0.5,1.2,0.7,1.8c0.7,0.1,0.1,0.7,0.4,0.9c0,0,0,0-0.1,0c0.2,0.1,0.3,0.2,0.3,0.4l0.3,0c-0.3,1,0.4,1.7,0.4,2.6
							c0.1,1,0,1.9,1.1,2.6c-0.1,0-0.1,0-0.1,0c0.2,0.2,0.1,0.5,0.3,0.7l-0.1,0c0.7,0.4,0.3,1.3,1.1,1.7c0.2,0.7,0.5,1.5,0.9,2.2
							l-0.1,0c0.4,0.5,0,1.3,0.4,1.8c-0.1,0.7,1.1,1.1,0.9,1.8c-0.5,0.6,1,0.7,0.5,1.2c-0.7,1,0.1,1.6,0.9,2.1
							c-0.1,0.8,1,1.2,0.5,2.1c0.5,0.2-0.3,0.8-0.1,1.1l0.1-0.1c-0.4,0.3,0.7,0.1,0.1,0.4l0,0c-0.3,0.2,0.8-0.1,0.5,0.1l0.2,0
							c0.1,0.1-0.2,0.1-0.2,0.2c0,0,0.3-0.1,0.2,0c-0.7,0.2,0.2,0.1-0.6,0.4c0,0-0.3,0.2-0.5,0.1c-0.1,0.1,0,0.2,0.3,0.1
							c0.4-0.1,0.7-0.1,0.9-0.3l-0.3,0.1c0.2-0.1,0.1-0.1,0.3-0.1c0-0.1,0.4-0.3,0.5-0.4c0,0,0,0,0,0c-0.3,0-0.2-0.1-0.1-0.1
							l0.1-0.1c0.3-0.1-0.6,0.1-0.1-0.1c-0.2-0.2-0.3-0.4-0.4-0.7c-0.2,0,0-0.2-0.4,0c0.4-0.2,0.5-0.4,0.4-0.5c0,0,0.1,0,0.1,0
							c0.5-0.3-0.6,0,0.1-0.3c-0.5,0.1,0.1-0.3-0.5-0.2c0.1,0,0.2-0.1,0.3-0.1c-0.1-0.2,0-0.5,0-0.7c-0.5,0,0.1-0.4-0.6-0.4
							c0.1-0.2,0.3-0.4,0-0.5l0.1,0c-0.1-0.2-0.2-0.4-0.6-0.4c0.5-0.2,0.4-0.3,0.5-0.4c-0.3,0-0.3-0.3-0.6-0.4
							c0.2-0.1-0.2-0.1,0.2-0.2c-0.9-0.3-0.8-1-0.5-1.7l0,0c-0.2,0-0.7,0.1-1,0.1c0,0,0.1,0,0.1,0c-0.1-0.1,0.2-0.3,0.1-0.4
							c0.1,0,0.1,0,0.1,0c-0.2,0,0.2-0.3-0.1-0.3l0.1,0l-0.2,0c0.1,0,0.3-0.1,0.3,0c-0.2-0.9-1.1-1.6-1.3-2.5l0.1,0l-0.3-0.1
							c0.1,0,0.1,0,0.1,0c0.1-0.3-0.3-0.4-0.3-0.6c0.1,0,0.2,0,0.2-0.1c-0.4,0,0.3-0.4-0.4-0.2c0,0,0.2-0.1,0.2-0.1
							c-0.4-0.4-0.5-0.8-0.5-1.3c-0.7-0.2-0.3-0.8-0.9-1l0.1,0c-0.6-0.4-0.3-1-0.5-1.5c0-0.2-0.2-0.3-0.3-0.5l0.2-0.1
							c-0.7-0.2,0.3-0.9-0.5-1.1l0.2,0c-0.3,0,0-0.3-0.5-0.1l0.1-0.1c-0.8,0,0.2-0.6-0.4-0.7l0.1,0c-0.1,0-0.2-0.1-0.1-0.2
							c0,0,0.1,0,0.1,0c0.4-0.4-0.2-0.5-0.3-0.8l0.3,0c-0.3,0-0.1-0.4-0.3-0.5l0.1,0l-0.2,0l0.2-0.1C183,92.1,182.8,92,182.7,91.8z"
							/>
						<path fill="#202020" d="M181.7,89.6C181.7,89.6,181.7,89.6,181.7,89.6C181.7,89.6,181.7,89.6,181.7,89.6z"/>
						<path fill="#202020" d="M190.1,111.7C190.1,111.7,190.1,111.7,190.1,111.7C190.1,111.7,190.1,111.7,190.1,111.7z"/>
					</g>
				</g>
			</g>
		</g>
	</g>
	<g>
		<g>
			<g>
				<g>
					<g>
						<polygon fill="#202020" points="180.5,83.6 180.3,83.5 180.6,83.7 						"/>
						<path fill="#202020" d="M181,84.1c0.1,0,0.1,0.1,0.2,0.1l-0.8-0.5C179.9,83.5,181.3,84.2,181,84.1z"/>
						<path fill="#202020" d="M180.9,84.1c-0.2,0,0.2,0.2,0.3,0.2C180.9,84.1,181.3,84.2,180.9,84.1z"/>
						<path fill="#202020" d="M179.2,88.7C179.2,88.7,179.2,88.7,179.2,88.7C179.2,88.6,179.2,88.7,179.2,88.7z"/>
						<path fill="#202020" d="M180.1,90.4l0.3,0.1c-0.5-0.4,0.2-0.5,0.1-0.8l0.1,0.1c0.4-0.5,0.1-1.3,0.1-2c0,0,0.1,0.1,0.2,0.1
							c-0.1-0.1-0.3-0.2-0.2-0.2c0.1,0,0.1,0.1,0.2,0.1c0.6,0.1-0.2-0.5,0.2-0.4c0-0.1-0.2-0.2-0.4-0.2c0.1-0.5,0.2-1,0-1.7
							c0.1,0,0.2,0.1,0.4,0.1c-0.7-0.7-0.2-1,0.1-1.4c-0.2-0.1-0.2-0.1-0.5-0.2c-0.3,0,0.4,0.5,0,0.4l-0.2-0.1
							c-0.2,0,0.5,0.2,0.2,0.2c-0.2,0-0.3-0.1-0.3-0.1c0,0.2-0.3,0.3,0.2,0.7c-0.5-0.1-0.1,0.2-0.6,0.1c0.2,0.1,0.1,0.2,0.4,0.3
							c-0.5,0.5-0.3,1.4-0.6,2c0.8,0.7-0.4,0.6-0.3,1.1c0,0-0.1,0-0.1,0c0.2,0.2,0.2,0.4,0,0.5l0.3,0.3c-1.1,0.5-0.9,1.6-1.6,2.4
							c-0.6,0.9-1.6,1.5-0.8,3c-0.1,0-0.1,0-0.2-0.1c0.1,0.4-0.4,0.5-0.3,0.8l-0.1,0c0.5,0.9-0.7,1.3-0.1,2.3
							c-0.4,0.7-0.7,1.6-0.8,2.5l-0.2-0.1c0.1,0.8-1.1,1-1.1,1.8c-0.7,0.5,0.4,1.8-0.4,2.2c-1,0.1,0.6,1.4-0.5,1.4
							c-1.7,0.3-1.1,1.4-0.6,2.5c-0.8,0.5,0.1,1.8-1.1,2.1c0.5,0.6-1.1,0.4-1,0.8l0.2,0.1c-0.7-0.1,0.8,0.7-0.2,0.4l0,0
							c-0.5-0.1,1.1,0.6,0.5,0.4l0.2,0.1c0,0.1-0.3-0.1-0.4-0.1c0,0,0.4,0.2,0.3,0.2c-1-0.4,0.1,0.3-1-0.2c0,0-0.5-0.1-0.7-0.3
							c-0.1,0-0.1,0.2,0.4,0.3c0.5,0.2,0.9,0.5,1.3,0.5l-0.4-0.2c0.4,0.1,0.2,0.1,0.5,0.2c0.1-0.1,0.6,0.1,0.9,0.1c0,0,0,0,0,0
							c-0.4-0.2-0.1-0.2,0-0.2l0.2,0.1c0.4,0.1-0.8-0.5-0.1-0.1c-0.1-0.3,0-0.6,0.1-0.8c-0.3-0.2,0.1-0.2-0.5-0.4
							c0.6,0.2,0.9,0.1,0.9,0c0.1,0,0.1,0.1,0.1,0.1c0.9,0.2-0.7-0.5,0.4-0.2c-0.7-0.3,0.3-0.1-0.5-0.6c0.2,0,0.3,0.1,0.4,0.2
							c0.1-0.2,0.5-0.4,0.6-0.6c-0.5-0.4,0.4-0.3-0.3-0.8c0.2,0,0.7-0.1,0.4-0.4l0.1,0.1c0-0.2,0.1-0.5-0.4-0.8
							c0.8,0.3,0.7,0.1,1,0.1c-0.3-0.3-0.1-0.5-0.4-0.8c0.4,0.1-0.1-0.2,0.4,0c-0.8-1-0.2-1.5,0.8-1.8l0,0c-0.3-0.2-0.9-0.5-1.2-0.8
							c0,0,0.1,0,0.1,0.1c-0.1-0.1,0.5,0,0.5-0.2c0.1,0,0.1,0,0.2,0.1c-0.2-0.2,0.5,0,0.1-0.3l0.1,0.1l-0.2-0.2
							c0.2,0.1,0.4,0.2,0.4,0.2c0.5-0.8,0-2.2,0.5-3.1l0.2,0.1l-0.2-0.3c0.1,0,0.1,0.1,0.2,0.1c0.4-0.1,0-0.6,0.2-0.8
							c0.1,0,0.2,0.1,0.4,0.1c-0.4-0.4,0.7,0-0.2-0.5c0,0,0.3,0.1,0.4,0.1c-0.1-0.6,0.1-1.1,0.4-1.5c-0.7-0.8,0.3-0.9-0.3-1.6
							l0.2,0.1c-0.4-0.8,0.5-1.1,0.6-1.7c0.2-0.2,0-0.4,0.1-0.7l0.2,0.1c-0.7-0.7,1.1-0.5,0.3-1.3l0.3,0.2c-0.5-0.3,0.3-0.2-0.6-0.5
							l0.3,0c-1-0.7,0.7-0.3,0.1-0.9l0.2,0.1c-0.1-0.1-0.2-0.3,0-0.3c0,0,0.1,0,0.1,0.1c0.9,0,0.2-0.6,0.3-0.9l0.3,0.2
							c-0.4-0.3,0.1-0.4,0-0.7l0.2,0.1l-0.2-0.2l0.3,0.1C180.2,91,180,90.6,180.1,90.4z"/>
						<path fill="#202020" d="M180.7,87.8C180.7,87.8,180.7,87.8,180.7,87.8C180.7,87.8,180.7,87.8,180.7,87.8z"/>
						<path fill="#202020" d="M172.6,112.7C172.5,112.7,172.5,112.7,172.6,112.7C172.6,112.7,172.6,112.7,172.6,112.7z"/>
					</g>
				</g>
			</g>
		</g>
	</g>
	<g>
		<g>
			<g>
				<g>
					<g>
						<polygon fill="#202020" points="178.2,57 178.1,56.9 178.4,57.1 						"/>
						<path fill="#202020" d="M178.8,57.4c0.1,0,0.1,0.1,0.2,0.1l-0.8-0.5C177.7,56.9,179.1,57.5,178.8,57.4z"/>
						<path fill="#202020" d="M178.7,57.4c-0.2,0,0.2,0.1,0.3,0.2C178.7,57.5,179.1,57.6,178.7,57.4z"/>
						<path fill="#202020" d="M177.4,61C177.4,61,177.4,61,177.4,61C177.4,60.9,177.4,61,177.4,61z"/>
						<path fill="#202020" d="M178.3,62.4l0.3,0.1c-0.5-0.4,0.2-0.4,0-0.6l0.1,0.1c0.3-0.4,0-1-0.1-1.6c0,0,0.1,0.1,0.2,0.1
							c-0.1-0.1-0.3-0.2-0.2-0.2c0.1,0,0.1,0.1,0.2,0.1c0.5,0.1-0.2-0.4,0.2-0.3c0,0-0.2-0.2-0.4-0.2c0-0.4,0.1-0.8-0.2-1.4
							c0.1,0,0.2,0.1,0.4,0.1c-0.7-0.7-0.2-0.8,0-1.1c-0.2-0.1-0.2-0.1-0.5-0.2c-0.3,0,0.4,0.4,0,0.3l-0.2-0.1
							c-0.2,0,0.5,0.2,0.2,0.2c-0.2,0-0.3-0.1-0.3-0.1c0,0.2-0.2,0.2,0.2,0.6c-0.5-0.2-0.1,0.1-0.5,0c0.2,0.1,0.1,0.1,0.4,0.3
							c-0.5,0.4-0.2,1.1-0.5,1.6c0.8,0.6-0.4,0.5-0.2,0.9c0,0-0.1,0-0.1,0c0.2,0.2,0.2,0.4,0.1,0.4l0.3,0.3c-1,0.3-0.8,1.2-1.4,1.8
							c-0.5,0.7-1.5,1.1-0.6,2.3c-0.1,0-0.1-0.1-0.2-0.1c0.1,0.3-0.3,0.4-0.2,0.6l-0.1,0c0.5,0.8-0.5,1,0,1.8
							c-0.3,0.6-0.5,1.3-0.6,2l-0.2-0.1c0.2,0.7-1,0.7-0.9,1.4c-0.6,0.3,0.5,1.5-0.2,1.8c-1,0,0.7,1.2-0.4,1.1c-1.6,0-1,1-0.5,2
							c-0.7,0.4,0.3,1.5-0.9,1.6c0.5,0.5-1,0.2-0.9,0.6l0.2,0.1c-0.7-0.2,0.8,0.6-0.2,0.3l0,0c-0.5-0.2,1.1,0.6,0.5,0.4l0.2,0.1
							c0,0.1-0.3-0.1-0.4-0.1c0,0,0.4,0.2,0.3,0.2c-1-0.4,0.1,0.3-1-0.2c0,0-0.5-0.1-0.7-0.3c-0.1,0-0.1,0.1,0.4,0.3
							c0.5,0.2,0.9,0.5,1.3,0.6l-0.4-0.2c0.4,0.1,0.2,0.1,0.5,0.2c0.1-0.1,0.6,0.1,0.9,0.2c0,0,0,0,0,0c-0.4-0.2-0.1-0.2-0.1-0.2
							l0.2,0.1c0.4,0.2-0.8-0.5-0.1-0.1c-0.1-0.3,0-0.5,0.1-0.7c-0.3-0.1,0.1-0.1-0.5-0.3c0.6,0.2,0.9,0.1,0.9,0.1
							c0.1,0,0.1,0.1,0.1,0.1c0.8,0.2-0.7-0.4,0.3-0.1c-0.7-0.3,0.3-0.1-0.5-0.5c0.2,0.1,0.3,0.1,0.4,0.2c0.1-0.2,0.4-0.3,0.5-0.4
							c-0.5-0.4,0.4-0.2-0.4-0.7c0.2,0,0.6,0,0.3-0.3l0.1,0.1c0-0.2,0.1-0.4-0.4-0.7c0.8,0.3,0.7,0.2,1,0.2
							c-0.3-0.3-0.1-0.4-0.4-0.7c0.4,0.1-0.1-0.2,0.4,0c-0.8-0.9-0.3-1.2,0.7-1.4l0,0c-0.3-0.2-0.9-0.5-1.2-0.7c0,0,0.1,0.1,0.1,0.1
							c-0.1-0.1,0.5,0,0.4-0.1c0.1,0,0.1,0,0.2,0.1c-0.2-0.2,0.5,0,0.1-0.2l0.1,0.1l-0.2-0.1c0.2,0.1,0.4,0.2,0.4,0.2
							c0.5-0.6-0.1-1.8,0.3-2.4l0.2,0.1l-0.2-0.3c0.1,0,0.1,0.1,0.2,0.1c0.4-0.1,0-0.5,0.1-0.6c0.1,0,0.2,0.1,0.4,0.2
							c-0.4-0.3,0.7,0.1-0.3-0.4c0,0,0.3,0.1,0.3,0.2c-0.2-0.5,0-0.9,0.3-1.2c-0.8-0.7,0.2-0.7-0.4-1.3l0.2,0.1
							c-0.5-0.7,0.4-0.8,0.5-1.3c0.1-0.1,0-0.4,0-0.5l0.2,0.1c-0.7-0.7,1-0.3,0.2-1l0.3,0.2c-0.5-0.2,0.2-0.1-0.6-0.4l0.3,0.1
							c-1-0.7,0.7-0.2,0.1-0.7l0.2,0.1c-0.1-0.1-0.2-0.3,0-0.2c0,0,0.1,0,0.1,0.1c0.9,0.1,0.1-0.5,0.2-0.7l0.3,0.2
							c-0.4-0.3,0.1-0.3,0-0.5l0.2,0.1l-0.2-0.2l0.3,0.1C178.5,62.9,178.3,62.6,178.3,62.4z"/>
						<path fill="#202020" d="M178.7,60.4C178.7,60.4,178.7,60.4,178.7,60.4C178.8,60.4,178.8,60.4,178.7,60.4z"/>
						<path fill="#202020" d="M172.5,79.8C172.5,79.8,172.5,79.8,172.5,79.8C172.5,79.8,172.5,79.8,172.5,79.8z"/>
					</g>
				</g>
			</g>
		</g>
	</g>
	<g>
		<g>
			<g>
				<g>
					<g>
						<polygon fill="#202020" points="178.8,58.4 178.7,58.4 178.9,58.3 						"/>
						<path fill="#202020" d="M179.3,58.3c0,0,0.1,0,0.1-0.1l-0.6,0.1C178.5,58.6,179.5,58.2,179.3,58.3z"/>
						<path fill="#202020" d="M179.2,58.4c-0.1,0.1,0.2,0,0.2,0C179.3,58.4,179.5,58.3,179.2,58.4z"/>
						<path fill="#202020" d="M180.8,61.8C180.8,61.8,180.8,61.8,180.8,61.8C180.8,61.8,180.8,61.8,180.8,61.8z"/>
						<path fill="#202020" d="M182.1,62.3l0.2-0.1c-0.4,0-0.1-0.4-0.4-0.5l0.1,0c-0.1-0.5-0.6-0.7-1-1.1c0,0,0.1,0,0.1,0
							c-0.1,0-0.2,0-0.2,0c0,0,0.1,0,0.1,0c0.3-0.2-0.3-0.2-0.1-0.4c0,0-0.2,0-0.3,0.1c-0.2-0.3-0.5-0.7-0.9-0.9
							c0,0,0.1-0.1,0.2-0.1c-0.7-0.1-0.6-0.5-0.6-0.8c-0.1,0.1-0.1,0.1-0.3,0.1c-0.1,0.2,0.4,0,0.2,0.2l-0.1,0
							c-0.1,0.1,0.4-0.1,0.2,0c-0.1,0.1-0.2,0.1-0.2,0.1c0.1,0.1,0.1,0.3,0.4,0.3c-0.3,0.2,0.1,0.2-0.2,0.3c0.1,0,0.1,0,0.3,0
							c0.1,0.6,0.6,0.9,0.8,1.4c0.7,0,0.1,0.6,0.4,0.8c0,0,0,0-0.1,0c0.2,0,0.3,0.1,0.3,0.3l0.3,0c-0.2,0.9,0.4,1.4,0.5,2.1
							c0.2,0.8,0,1.7,1.1,2c-0.1,0-0.1,0-0.1,0c0.2,0.2,0.1,0.4,0.3,0.6l-0.1,0c0.7,0.3,0.4,1.1,1.1,1.3c0.2,0.6,0.5,1.2,0.9,1.8
							l-0.1,0c0.5,0.4,0,1.1,0.4,1.5c0,0.6,1.1,0.7,1,1.4c-0.4,0.6,1,0.4,0.5,1c-0.6,1,0.2,1.3,1,1.7c-0.1,0.7,1,0.9,0.6,1.7
							c0.5,0.1-0.3,0.8,0,1l0.1-0.1c-0.4,0.3,0.7,0,0.1,0.3l0,0c-0.3,0.2,0.8-0.2,0.5,0l0.2-0.1c0.1,0-0.2,0.1-0.2,0.2
							c0,0,0.3-0.1,0.2,0c-0.7,0.3,0.2,0.1-0.5,0.4c0,0-0.3,0.2-0.5,0.2c-0.1,0.1,0,0.1,0.3,0c0.3-0.1,0.6-0.2,0.9-0.4l-0.2,0.1
							c0.2-0.1,0.1-0.1,0.3-0.2c0-0.1,0.3-0.3,0.5-0.4c0,0,0,0,0,0c-0.3,0.1-0.2-0.1-0.1-0.1l0.1-0.1c0.3-0.1-0.6,0.1-0.1,0
							c-0.2-0.1-0.3-0.3-0.4-0.5c-0.2,0.1,0-0.2-0.4,0c0.4-0.2,0.4-0.4,0.4-0.5c0,0,0.1,0,0.1,0c0.5-0.3-0.5,0.1,0.1-0.3
							c-0.5,0.2,0.1-0.2-0.5-0.1c0.1-0.1,0.2-0.1,0.3-0.1c-0.1-0.2,0-0.5,0-0.6c-0.5,0,0-0.4-0.6-0.3c0.1-0.1,0.2-0.4,0-0.4l0.1,0
							c-0.1-0.1-0.2-0.3-0.6-0.3c0.5-0.3,0.4-0.3,0.5-0.4c-0.3,0-0.3-0.2-0.6-0.3c0.2-0.1-0.2-0.1,0.2-0.2c-0.9-0.1-0.8-0.7-0.5-1.4
							l0,0c-0.2,0-0.7,0.1-1,0.2c0,0,0.1,0,0.1,0c-0.1-0.1,0.2-0.3,0.1-0.3c0.1,0,0.1,0,0.1,0c-0.2,0,0.2-0.3-0.1-0.3l0.1,0l-0.2,0
							c0.1,0,0.3-0.1,0.3-0.1c-0.2-0.7-1.1-1.2-1.3-2l0.1,0l-0.3-0.1c0.1,0,0.1,0,0.1,0c0.1-0.3-0.3-0.3-0.3-0.5
							c0.1,0,0.2,0,0.2-0.1c-0.4,0,0.3-0.4-0.4-0.2c0,0,0.2-0.1,0.2-0.1c-0.4-0.3-0.5-0.6-0.6-1c-0.7,0-0.3-0.6-0.9-0.7l0.1-0.1
							c-0.6-0.2-0.3-0.8-0.6-1.2c0-0.2-0.2-0.2-0.3-0.4l0.1-0.1c-0.7,0,0.2-0.8-0.5-0.9l0.2-0.1c-0.3,0.1,0-0.2-0.5,0l0.1-0.1
							c-0.8,0.1,0.2-0.5-0.4-0.6l0.1,0c-0.1,0-0.2-0.1-0.1-0.2c0,0,0.1,0,0.1,0c0.4-0.4-0.2-0.4-0.3-0.7l0.2-0.1
							c-0.3,0-0.2-0.3-0.3-0.4l0.1,0l-0.2,0l0.2-0.1C182.5,62.5,182.2,62.4,182.1,62.3z"/>
						<path fill="#202020" d="M181,60.5C181,60.5,181,60.5,181,60.5C181,60.5,181,60.5,181,60.5z"/>
						<path fill="#202020" d="M190.1,78.3C190.1,78.3,190,78.3,190.1,78.3C190.1,78.3,190.1,78.3,190.1,78.3z"/>
					</g>
				</g>
			</g>
		</g>
	</g>
</g>
<g>
	<circle fill="none" stroke="#FFFFFF" stroke-miterlimit="10" cx="420" cy="34.7" r="26.8"/>
	<g>
		<g>
			<g>
				<g>
					<g>
						<polygon fill="#202020" points="445.4,34.7 445.5,34.6 445.2,34.4 						"/>
						<path fill="#202020" d="M444.6,33.4c-0.1,0-0.1,0-0.2,0.1l0.9,0.7C445.8,33.8,444.3,33.6,444.6,33.4z"/>
						<path fill="#202020" d="M444.7,33.2c0.2-0.3-0.2-0.4-0.4-0.4C444.6,32.8,444.2,33.3,444.7,33.2z"/>
						<path fill="#202020" d="M431.7,13.1C431.7,13.1,431.8,13.1,431.7,13.1C431.8,13.1,431.7,13.1,431.7,13.1z"/>
						<path fill="#202020" d="M425.3,12.2l-0.1,0.3c0.6-0.1,1.2,0,1.8,0.2c0.6,0.3,1.1,0.5,1.7,0.6l-0.1,0.1
							c2.7,1.3,5.4,2.3,7.9,4.3c-0.1,0-0.1,0.1-0.2,0c0.2,0,0.5,0,0.6,0.1c0,0.1-0.1,0.1-0.2,0.1c0.1,0.8,1.6,1.2,1.5,1.8
							c0.2,0.1,0.4,0,0.5-0.2c1.7,1.8,3.1,4.1,4.4,6.3c0,0.1-0.2,0.2-0.3,0.3c1.7,1.7,1.8,4.2,1.9,6.4c0.2,0.1,0.2-0.3,0.5-0.1
							c0.3-0.8-0.7-1.3-0.4-2l0.2,0c0.1-0.5-0.6,0-0.4-0.5c0.2-0.2,0.3,0,0.3-0.1c-0.3-1-0.4-2.1-1.2-2.9c0.4-0.4-0.4-1-0.1-1.6
							c-0.3-0.2-0.3-0.5-0.7-0.4c-1.2-3.4-3.8-6.2-6.4-8.7c-0.9-0.2-1.6-0.8-2.3-1.5c-0.7-0.7-1.5-1.3-2.4-1.7c0,0,0-0.1,0-0.1
							c-0.7-0.1-1.6-0.4-2.3-0.8l-0.8,0.1c-2-1.3-4.4-1.8-6.7-2c-2.4-0.2-4.8,0.1-7.2,0.4c-2.7,0.4-5.2,1.3-7.4,2.5
							c-1.1,0.6-2.1,1.4-3.1,2.3c-0.4,0.5-0.9,1-1.3,1.5c-0.4,0.5-0.7,1.1-1.1,1.7c-0.1-0.1-0.1-0.1-0.1-0.2
							c-0.5,0.6-0.9,1.2-1.4,1.7c-0.2,0.3-0.5,0.5-0.7,0.8c-0.2,0.3-0.4,0.6-0.5,0.9l-0.1-0.1c-0.1,0.4-0.3,0.8-0.5,1.3
							c-0.1,0.4-0.3,0.9-0.5,1.3c-0.4,0.8-0.7,1.7-1,2.5c-0.3,0.8-0.5,1.7-0.7,2.6c-0.1,0.9-0.1,1.8-0.1,2.6
							c-0.5,4,0.3,8.8,2.4,12.5l-0.2,0.1c0.2,0.4,0.4,0.7,0.6,1.1c0.2,0.4,0.4,0.7,0.6,1.1c0.4,0.8,0.8,1.5,1.3,2.2
							c0.9,1.4,2,2.8,3.4,3.8c0.6,0.6,1.4,1.2,2.2,1.6c0.4,0.2,0.8,0.4,1.2,0.6c0.4,0.2,0.8,0.4,1.3,0.5c0.9,0.3,1.7,0.6,2.6,0.8
							c0.4,0.1,0.8,0.3,1.3,0.4c0.4,0.1,0.8,0.3,1.2,0.5c0.2,0.2,0.5,0.3,0.8,0.4c0.3,0.1,0.6,0.1,0.9,0.2c0.6,0,1.2,0.1,1.9-0.1
							c0.6-0.1,1.2-0.2,1.8-0.2c0.6,0,1.1,0,1.7,0.2c1.1,0.4,2.1,0.3,3.2,0.3c0.5-0.1,1-0.2,1.6-0.3c0.5-0.1,1-0.3,1.5-0.5
							c0.5-0.2,1-0.5,1.4-0.7c0.5-0.3,0.9-0.6,1.3-0.9l0.6-0.5l0.6-0.5l1.1-1.1c1.7-0.9,3.1-2.3,4.2-3.8c0.6-0.7,1.1-1.5,1.7-2.2
							c0.5-0.8,1.1-1.5,1.8-2.2c0.1-1,0.7-1.6,1.3-2.5c0.3-0.4,0.6-0.8,0.9-1.2c0.2-0.4,0.4-0.9,0.5-1.4l-0.2,0
							c0.4-0.3,0.3-0.7,0.2-1.1c-0.1-0.4-0.3-0.7,0.3-0.9l0,0.1c0.6-0.3-1.1-1-0.5-1.2l-0.3-0.1c0-0.4,0.3,0,0.4-0.4
							c0-0.1-0.5-0.1-0.3-0.3c1.1,0-0.2-1.1,1-1.1c0,0.3,0.5-0.4,0.7,0.2c0.1-0.2,0.1-1-0.4-0.9c-0.5-0.1-1-0.4-1.5,0.1l0.4,0.1
							c-0.4,0.1-0.2,0.1-0.5,0.2c-0.1,0.6-0.7,0.6-0.9,1c0,0,0,0,0,0c0.5,0.3,0.2,0.7,0.1,0.9l-0.2,0.1c-0.5,0.1,0.8,0.7,0,0.5
							c0,0.6,0,1.2-0.1,1.8c-0.1,0.6-0.3,1.3-0.5,1.9c0.2,0.3-0.4,0.9,0.3,0.8c-0.8,0.1-1.2,0.9-1.3,1.3c-0.1,0-0.1-0.1-0.1-0.1
							c-1.1,0.2,0.4,1.1-0.9,1.2c0.3,0.2,0.1,0.5-0.1,0.7c-0.2,0.3-0.4,0.5-0.1,0.9c-0.2,0-0.3-0.1-0.4-0.2c-0.3,0.5-0.7,1-1.1,1.4
							c-0.4,0.4-0.8,0.8-1.1,1.2c-0.1,1-1.5,1.3-1.5,2.4c-0.3,0.1-0.7,0.3-1,0.5c-0.4,0.2-0.7,0.5-1,0.8l0-0.1
							c-0.7,0.6-1.7,1.2-2,2.1c-0.7-0.6-0.9-0.3-1.4-0.4c-0.2,0.3-0.6,0.6-1,0.9c-0.5,0.2-0.9,0.5-1.3,0.8c-0.3-0.3-0.7,0.4-0.9-0.1
							c-0.6,0.4-1.2,0.8-1.9,1.1c-0.7,0.2-1.5,0.4-2.2,0.4c-0.8,0-1.6,0-2.3-0.2c-0.8-0.2-1.5-0.4-2.2-0.7l0,0
							c-0.4,0.3-0.9,0.9-1.4,1.2c0-0.1,0-0.1,0.1-0.1c-0.3,0-0.5-0.1-0.8-0.3c-0.2-0.2-0.5-0.4-0.7-0.4c0-0.1,0-0.1,0.1-0.2
							c-0.5,0.1-0.9-0.7-1.6-0.4l0-0.2l-0.4,0.1c0.1-0.2,0.2-0.4,0.3-0.3c-2.1-0.8-4.2-1.6-6.2-2.8c-1-0.6-1.9-1.3-2.9-2.1
							c-0.4-0.4-0.8-0.8-1.2-1.3c-0.4-0.4-0.7-0.9-1.1-1.4l0.3,0l-0.8-0.5c0.1,0,0.1,0,0.2,0c-0.3-1.2-1.5-1.9-1.8-3
							c0.1,0,0.3,0,0.4-0.1c-0.9-0.5,0.1-1.5-1.1-1.5c0-0.1,0.3-0.2,0.4-0.1c-0.6-1-1-2.2-1.3-3.3c-0.2-1.2-0.4-2.4-0.3-3.5
							c-0.6-1-0.5-2-0.5-3.1c0-0.5,0.2-1.1,0.2-1.6c0-0.3,0-0.5,0-0.8c0-0.3,0-0.5,0-0.8l0.2,0.1c0-1.4,0.5-2.8,1.1-4
							c0.4-0.6,0.7-1.3,1.1-1.9c0.4-0.6,0.8-1.2,1.1-1.8c0.8-0.9,1-1.7,1.8-2.6l0.2,0.1c0.3-1.1,1.3-1.6,2.2-2.2
							c0.5-0.3,1-0.5,1.4-0.8c0.2-0.2,0.4-0.3,0.6-0.5c0.2-0.2,0.4-0.4,0.5-0.6l0.1,0.4c0-0.6,1.2-0.5,0.6-1.2l0.4,0
							c0.4-0.8,1-1,1.7-1.1c0.7-0.1,1.5-0.1,2.2-0.8l0,0.2c0.4-0.3,0.9-0.6,1.3-0.5c0,0,0,0.1-0.1,0.2c0.8,0.2,1.5,0,2.2-0.2
							c0.7-0.2,1.5-0.6,2.3-0.6l-0.1,0.4c0.3-0.2,0.9-0.3,1.4-0.3c0.5,0,1.1,0.1,1.6,0l-0.1,0.2l0.5-0.2l0,0.4
							c0.6,0,1.2,0.1,1.8,0.1C424.1,12,424.7,12,425.3,12.2z"/>
						<path fill="#202020" d="M436.6,17.9C436.6,17.9,436.6,17.9,436.6,17.9C436.5,17.9,436.5,17.9,436.6,17.9z"/>
						<path fill="#202020" d="M441.6,36.2c0-0.1,0-0.1,0.1-0.1C441.6,36.1,441.6,36.1,441.6,36.2z"/>
					</g>
				</g>
			</g>
		</g>
	</g>
	<g>
		<g>
			<g>
				<g>
					<g>
						<polygon fill="#202020" points="422,87 422.1,87 421.8,86.9 						"/>
						<path fill="#202020" d="M421.3,86.6c-0.1,0-0.2,0-0.2,0l0.9,0.2C422.5,86.8,421,86.7,421.3,86.6z"/>
						<path fill="#202020" d="M421.4,86.6c0.2-0.1-0.2-0.1-0.4-0.1C421.4,86.5,421,86.6,421.4,86.6z"/>
						<path fill="#202020" d="M421.2,79.1C421.2,79.1,421.2,79.1,421.2,79.1C421.2,79.1,421.2,79.1,421.2,79.1z"/>
						<path fill="#202020" d="M419.8,77.1l-0.3,0c0.6,0.4,0,0.8,0.2,1.2l-0.1,0c-0.1,1,0.4,1.9,0.7,2.8c0,0-0.1,0-0.2,0
							c0.1,0,0.3,0.1,0.3,0.2c-0.1,0-0.2,0-0.2,0c-0.6,0.2,0.3,0.6-0.1,0.7c0.1,0.1,0.3,0.1,0.5,0.1c0.1,0.8,0.2,1.6,0.7,2.3
							c-0.1,0-0.2,0-0.4,0c0.9,0.7,0.5,1.4,0.4,2c0.2,0,0.2-0.1,0.5,0c0.3-0.2-0.6-0.4-0.1-0.6l0.2,0c0.1-0.1-0.6,0-0.3-0.2
							c0.2-0.1,0.3,0,0.3,0c-0.1-0.3,0.1-0.6-0.4-0.9c0.5-0.1,0-0.3,0.5-0.4c-0.2-0.1-0.1-0.2-0.5-0.2c0.3-1.1-0.2-2.2-0.2-3.3
							c-1-0.5,0.2-1.1-0.1-1.7c0,0,0.1,0,0.1,0c-0.2-0.2-0.3-0.5-0.2-0.7l-0.4-0.2c0.8-1.4,0.2-2.9,0.6-4.3c0.2-1.6,0.9-3.1-0.3-4.7
							c0.1,0,0.1,0,0.2,0c-0.2-0.5,0.2-0.9,0-1.3l0.1,0c-0.8-1.1,0.1-2.2-0.7-3.3c0.1-1.3,0-2.7-0.2-4l0.2,0
							c-0.4-1.1,0.6-2.1,0.3-3.2c0.4-1.1-1.1-2.3-0.5-3.4c0.9-0.7-1.1-1.6-0.1-2.2c1.4-1.3,0.5-2.6-0.4-3.9c0.5-1.2-0.8-2.4,0.2-3.6
							c-0.7-0.6,0.8-1.2,0.6-1.8l-0.2,0c0.7-0.2-1-0.5,0.1-0.6l0,0c0.5-0.1-1.3-0.3-0.6-0.3l-0.3,0c-0.1-0.1,0.3,0,0.4-0.1
							c0,0-0.5,0-0.3-0.1c1.1,0-0.2-0.4,1-0.4c0,0.1,0.5-0.1,0.7,0.1c0.1-0.1,0.1-0.3-0.5-0.3c-0.5,0-1-0.1-1.4,0l0.4,0
							c-0.4,0-0.2,0-0.5,0.1c-0.1,0.2-0.6,0.2-0.9,0.4c0,0,0,0,0,0c0.5,0.1,0.2,0.2,0.1,0.3l-0.2,0c-0.5,0,0.9,0.2,0.1,0.2
							c0.2,0.4,0.2,0.8,0.2,1.3c0.3,0.1,0,0.3,0.6,0.2c-0.7,0.1-0.8,0.4-0.8,0.6c-0.1,0-0.1,0-0.1,0c-0.9,0.2,0.8,0.3-0.3,0.5
							c0.7,0-0.2,0.4,0.6,0.5c-0.2,0-0.3,0-0.4,0c0,0.4-0.3,0.8-0.3,1.2c0.7,0.3-0.3,0.7,0.6,0.9c-0.2,0.2-0.6,0.5-0.2,0.8l-0.1,0
							c0.1,0.3,0.1,0.7,0.7,0.9c-0.9,0.1-0.7,0.2-1,0.4c0.4,0.2,0.3,0.6,0.6,1c-0.4,0,0.2,0.3-0.4,0.3c1.1,0.9,0.7,2-0.1,3l0,0
							c0.3,0.1,1,0.3,1.4,0.4c-0.1,0-0.1,0-0.1,0c0.1,0.2-0.5,0.3-0.4,0.5c-0.1,0-0.1,0-0.2,0c0.3,0.2-0.5,0.3,0,0.5l-0.2,0l0.2,0.1
							c-0.2,0-0.5,0-0.4-0.1c-0.2,1.5,0.8,3.1,0.7,4.7l-0.2-0.1l0.3,0.3c-0.1,0-0.1,0-0.2,0c-0.3,0.4,0.2,0.8,0.1,1.2
							c-0.1,0-0.3-0.1-0.4,0c0.5,0.3-0.7,0.4,0.4,0.6c-0.1,0-0.3,0-0.4,0c0.4,0.8,0.3,1.6,0.2,2.3c1,0.6,0.1,1.4,0.9,2l-0.2,0
							c0.7,0.9,0,1.8,0.1,2.7c-0.1,0.4,0.2,0.6,0.2,1l-0.2,0c0.9,0.6-0.8,1.3,0.2,2l-0.3,0c0.5,0.1-0.2,0.4,0.7,0.4l-0.3,0.1
							c1.2,0.5-0.5,0.8,0.2,1.4l-0.2,0c0.2,0.1,0.3,0.3,0.1,0.4c0,0-0.1,0-0.1,0c-0.8,0.5,0.1,1,0.1,1.5l-0.4-0.1
							c0.5,0.2,0,0.7,0.2,1l-0.2,0l0.3,0.2l-0.4,0C419.4,76.4,419.7,76.7,419.8,77.1z"/>
						<path fill="#202020" d="M420.2,81.2C420.2,81.2,420.2,81.2,420.2,81.2C420.2,81.2,420.2,81.2,420.2,81.2z"/>
						<path fill="#202020" d="M418.3,41.2C418.3,41.2,418.4,41.2,418.3,41.2C418.3,41.1,418.3,41.2,418.3,41.2z"/>
					</g>
				</g>
			</g>
		</g>
	</g>
	<g>
		<g>
			<g>
				<g>
					<g>
						<polygon fill="#202020" points="419.5,87.5 419.4,87.5 419.6,87.5 						"/>
						<path fill="#202020" d="M420,87.6c0,0,0.1,0,0.1-0.1l-0.6,0.1C419.2,87.7,420.2,87.5,420,87.6z"/>
						<path fill="#202020" d="M419.9,87.6c-0.1,0.1,0.2,0,0.2,0C420,87.7,420.2,87.5,419.9,87.6z"/>
						<path fill="#202020" d="M421.4,91.8C421.4,91.8,421.4,91.8,421.4,91.8C421.4,91.8,421.4,91.8,421.4,91.8z"/>
						<path fill="#202020" d="M422.7,92.6l0.2-0.1c-0.4-0.1-0.1-0.4-0.4-0.6l0.1,0c-0.1-0.6-0.6-1-0.9-1.5c0,0,0.1,0,0.1,0
							c-0.1,0-0.2,0-0.2,0c0,0,0.1,0,0.1,0c0.3-0.2-0.3-0.3-0.1-0.4c0,0-0.2,0-0.3,0.1c-0.2-0.4-0.4-0.8-0.9-1.2
							c0,0,0.1-0.1,0.3-0.1c-0.7-0.2-0.6-0.7-0.6-1.1c-0.2,0-0.1,0.1-0.3,0.1c-0.1,0.2,0.4,0.1,0.2,0.3l-0.1,0
							c-0.1,0.1,0.4-0.1,0.2,0c-0.1,0.1-0.2,0.1-0.2,0.1c0.1,0.2,0,0.4,0.4,0.4c-0.3,0.1,0,0.2-0.2,0.3c0.1,0,0.1,0.1,0.3,0
							c0,0.7,0.5,1.2,0.7,1.8c0.7,0.1,0.1,0.7,0.4,0.9c0,0,0,0-0.1,0c0.2,0.1,0.3,0.2,0.3,0.4l0.3,0c-0.3,1,0.4,1.7,0.4,2.6
							c0.1,1,0,1.9,1.1,2.6c-0.1,0-0.1,0-0.1,0c0.2,0.2,0.1,0.5,0.3,0.7l-0.1,0c0.7,0.4,0.3,1.3,1.1,1.7c0.2,0.7,0.5,1.5,0.9,2.2
							l-0.1,0c0.4,0.5,0,1.3,0.4,1.8c-0.1,0.7,1.1,1.1,0.9,1.8c-0.5,0.6,1,0.7,0.5,1.2c-0.7,1,0.1,1.6,0.9,2.1
							c-0.1,0.8,1,1.2,0.5,2.1c0.5,0.2-0.3,0.8-0.1,1.1l0.1-0.1c-0.4,0.3,0.7,0.1,0.1,0.4l0,0c-0.3,0.2,0.8-0.1,0.5,0.1l0.2,0
							c0.1,0.1-0.2,0.1-0.2,0.2c0,0,0.3-0.1,0.2,0c-0.7,0.2,0.2,0.1-0.6,0.4c0,0-0.3,0.2-0.5,0.1c-0.1,0.1,0,0.2,0.3,0.1
							c0.4-0.1,0.7-0.1,0.9-0.3l-0.3,0.1c0.2-0.1,0.1-0.1,0.3-0.1c0-0.1,0.4-0.3,0.5-0.4c0,0,0,0,0,0c-0.3,0-0.2-0.1-0.1-0.1
							l0.1-0.1c0.3-0.1-0.6,0.1-0.1-0.1c-0.2-0.2-0.3-0.4-0.4-0.7c-0.2,0,0-0.2-0.4,0c0.4-0.2,0.5-0.4,0.4-0.5c0,0,0.1,0,0.1,0
							c0.5-0.3-0.6,0,0.1-0.3c-0.5,0.1,0.1-0.3-0.5-0.2c0.1,0,0.2-0.1,0.3-0.1c-0.1-0.2,0-0.5,0-0.7c-0.5,0,0.1-0.4-0.6-0.4
							c0.1-0.2,0.3-0.4,0-0.5l0.1,0c-0.1-0.2-0.2-0.4-0.6-0.4c0.5-0.2,0.4-0.3,0.5-0.4c-0.3,0-0.3-0.3-0.6-0.4
							c0.2-0.1-0.2-0.1,0.2-0.2c-0.9-0.3-0.8-1-0.5-1.7l0,0c-0.2,0-0.7,0.1-1,0.1c0,0,0.1,0,0.1,0c-0.1-0.1,0.2-0.3,0.1-0.4
							c0.1,0,0.1,0,0.1,0c-0.2,0,0.2-0.3-0.1-0.3l0.1,0l-0.2,0c0.1,0,0.3-0.1,0.3,0c-0.2-0.9-1.1-1.6-1.3-2.5l0.1,0l-0.3-0.1
							c0.1,0,0.1,0,0.1,0c0.1-0.3-0.3-0.4-0.3-0.6c0.1,0,0.2,0,0.2-0.1c-0.4,0,0.3-0.4-0.4-0.2c0,0,0.2-0.1,0.2-0.1
							c-0.4-0.4-0.5-0.8-0.5-1.3c-0.7-0.2-0.3-0.8-0.9-1l0.1,0c-0.6-0.4-0.3-1-0.5-1.5c0-0.2-0.2-0.3-0.3-0.5l0.2-0.1
							c-0.7-0.2,0.3-0.9-0.5-1.1l0.2,0c-0.3,0,0-0.3-0.5-0.1l0.1-0.1c-0.8,0,0.2-0.6-0.4-0.7l0.1,0c-0.1,0-0.2-0.1-0.1-0.2
							c0,0,0.1,0,0.1,0c0.4-0.4-0.2-0.5-0.3-0.8l0.3,0c-0.3,0-0.1-0.4-0.3-0.5l0.1,0l-0.2,0l0.2-0.1C423,93,422.8,92.8,422.7,92.6z"
							/>
						<path fill="#202020" d="M421.7,90.4C421.7,90.4,421.7,90.4,421.7,90.4C421.7,90.4,421.7,90.4,421.7,90.4z"/>
						<path fill="#202020" d="M430.1,112.5C430.1,112.5,430.1,112.6,430.1,112.5C430.1,112.6,430.1,112.5,430.1,112.5z"/>
					</g>
				</g>
			</g>
		</g>
	</g>
	<g>
		<g>
			<g>
				<g>
					<g>
						<polygon fill="#202020" points="420.5,84.4 420.3,84.4 420.6,84.5 						"/>
						<path fill="#202020" d="M421,84.9c0.1,0,0.1,0.1,0.2,0.1l-0.8-0.5C419.9,84.4,421.3,85,421,84.9z"/>
						<path fill="#202020" d="M420.9,84.9c-0.2,0,0.2,0.2,0.3,0.2C420.9,85,421.3,85.1,420.9,84.9z"/>
						<path fill="#202020" d="M419.2,89.5C419.2,89.5,419.2,89.5,419.2,89.5C419.2,89.5,419.2,89.5,419.2,89.5z"/>
						<path fill="#202020" d="M420.1,91.2l0.3,0.1c-0.5-0.4,0.2-0.5,0.1-0.8l0.1,0.1c0.4-0.5,0.1-1.3,0.1-2c0,0,0.1,0.1,0.2,0.1
							c-0.1-0.1-0.3-0.2-0.2-0.2c0.1,0,0.1,0.1,0.2,0.1c0.6,0.1-0.2-0.5,0.2-0.4c0-0.1-0.2-0.2-0.4-0.2c0.1-0.5,0.2-1,0-1.7
							c0.1,0,0.2,0.1,0.4,0.1c-0.7-0.7-0.2-1,0.1-1.4c-0.2-0.1-0.2-0.1-0.5-0.2c-0.3,0,0.4,0.5,0,0.4l-0.2-0.1
							c-0.2,0,0.5,0.2,0.2,0.2c-0.2,0-0.3-0.1-0.3-0.1c0,0.2-0.3,0.3,0.2,0.7c-0.5-0.1-0.1,0.2-0.6,0.1c0.2,0.1,0.1,0.2,0.4,0.3
							c-0.5,0.5-0.3,1.4-0.6,2c0.8,0.7-0.4,0.6-0.3,1.1c0,0-0.1,0-0.1,0c0.2,0.2,0.2,0.4,0,0.5l0.3,0.3c-1.1,0.5-0.9,1.6-1.6,2.4
							c-0.6,0.9-1.6,1.5-0.8,3c-0.1,0-0.1,0-0.2-0.1c0.1,0.4-0.4,0.5-0.3,0.8l-0.1,0c0.5,0.9-0.7,1.3-0.1,2.3
							c-0.4,0.7-0.7,1.6-0.8,2.5l-0.2-0.1c0.1,0.8-1.1,1-1.1,1.8c-0.7,0.5,0.4,1.8-0.4,2.2c-1,0.1,0.6,1.4-0.5,1.4
							c-1.7,0.3-1.1,1.4-0.6,2.5c-0.8,0.5,0.1,1.8-1.1,2.1c0.5,0.6-1.1,0.4-1,0.8l0.2,0.1c-0.7-0.1,0.8,0.7-0.2,0.4l0,0
							c-0.5-0.1,1.1,0.6,0.5,0.4l0.2,0.1c0,0.1-0.3-0.1-0.4-0.1c0,0,0.4,0.2,0.3,0.2c-1-0.4,0.1,0.3-1-0.2c0,0-0.5-0.1-0.7-0.3
							c-0.1,0-0.1,0.2,0.4,0.3c0.5,0.2,0.9,0.5,1.3,0.5l-0.4-0.2c0.4,0.1,0.2,0.1,0.5,0.2c0.1-0.1,0.6,0.1,0.9,0.1c0,0,0,0,0,0
							c-0.4-0.2-0.1-0.2,0-0.2l0.2,0.1c0.4,0.1-0.8-0.5-0.1-0.1c-0.1-0.3,0-0.6,0.1-0.8c-0.3-0.2,0.1-0.2-0.5-0.4
							c0.6,0.2,0.9,0.1,0.9,0c0.1,0,0.1,0.1,0.1,0.1c0.9,0.2-0.7-0.5,0.4-0.2c-0.7-0.3,0.3-0.1-0.5-0.6c0.2,0,0.3,0.1,0.4,0.2
							c0.1-0.2,0.5-0.4,0.6-0.6c-0.5-0.4,0.4-0.3-0.3-0.8c0.2,0,0.7-0.1,0.4-0.4l0.1,0.1c0-0.2,0.1-0.5-0.4-0.8
							c0.8,0.3,0.7,0.1,1,0.1c-0.3-0.3-0.1-0.5-0.4-0.8c0.4,0.1-0.1-0.2,0.4,0c-0.8-1-0.2-1.5,0.8-1.8l0,0c-0.3-0.2-0.9-0.5-1.2-0.8
							c0,0,0.1,0,0.1,0.1c-0.1-0.1,0.5,0,0.5-0.2c0.1,0,0.1,0,0.2,0.1c-0.2-0.2,0.5,0,0.1-0.3l0.1,0.1l-0.2-0.2
							c0.2,0.1,0.4,0.2,0.4,0.2c0.5-0.8,0-2.2,0.5-3.1l0.2,0.1l-0.2-0.3c0.1,0,0.1,0.1,0.2,0.1c0.4-0.1,0-0.6,0.2-0.8
							c0.1,0,0.2,0.1,0.4,0.1c-0.4-0.4,0.7,0-0.2-0.5c0,0,0.3,0.1,0.4,0.1c-0.1-0.6,0.1-1.1,0.4-1.5c-0.7-0.8,0.3-0.9-0.3-1.6
							l0.2,0.1c-0.4-0.8,0.5-1.1,0.6-1.7c0.2-0.2,0-0.4,0.1-0.7l0.2,0.1c-0.7-0.7,1.1-0.5,0.3-1.3l0.3,0.2c-0.5-0.3,0.3-0.2-0.6-0.5
							l0.3,0c-1-0.7,0.7-0.3,0.1-0.9l0.2,0.1c-0.1-0.1-0.2-0.3,0-0.3c0,0,0.1,0,0.1,0.1c0.9,0,0.2-0.6,0.3-0.9l0.3,0.2
							c-0.4-0.3,0.1-0.4,0-0.7l0.2,0.1l-0.2-0.2l0.3,0.1C420.2,91.8,420,91.5,420.1,91.2z"/>
						<path fill="#202020" d="M420.7,88.6C420.7,88.6,420.7,88.6,420.7,88.6C420.7,88.6,420.7,88.6,420.7,88.6z"/>
						<path fill="#202020" d="M412.6,113.5C412.5,113.5,412.5,113.5,412.6,113.5C412.6,113.5,412.6,113.5,412.6,113.5z"/>
					</g>
				</g>
			</g>
		</g>
	</g>
	<g>
		<g>
			<g>
				<g>
					<g>
						<polygon fill="#202020" points="418.2,57.8 418.1,57.8 418.4,57.9 						"/>
						<path fill="#202020" d="M418.8,58.2c0.1,0,0.1,0.1,0.2,0.1l-0.8-0.5C417.7,57.7,419.1,58.3,418.8,58.2z"/>
						<path fill="#202020" d="M418.7,58.2c-0.2,0,0.2,0.1,0.3,0.2C418.7,58.3,419.1,58.4,418.7,58.2z"/>
						<path fill="#202020" d="M417.4,61.8C417.4,61.8,417.4,61.8,417.4,61.8C417.4,61.8,417.4,61.8,417.4,61.8z"/>
						<path fill="#202020" d="M418.3,63.3l0.3,0.1c-0.5-0.4,0.2-0.4,0-0.6l0.1,0.1c0.3-0.4,0-1-0.1-1.6c0,0,0.1,0.1,0.2,0.1
							c-0.1-0.1-0.3-0.2-0.2-0.2c0.1,0,0.1,0.1,0.2,0.1c0.5,0.1-0.2-0.4,0.2-0.3c0,0-0.2-0.2-0.4-0.2c0-0.4,0.1-0.8-0.2-1.4
							c0.1,0,0.2,0.1,0.4,0.1c-0.7-0.7-0.2-0.8,0-1.1c-0.2-0.1-0.2-0.1-0.5-0.2c-0.3,0,0.4,0.4,0,0.3l-0.2-0.1
							c-0.2,0,0.5,0.2,0.2,0.2c-0.2,0-0.3-0.1-0.3-0.1c0,0.2-0.2,0.2,0.2,0.6c-0.5-0.2-0.1,0.1-0.5,0c0.2,0.1,0.1,0.1,0.4,0.3
							c-0.5,0.4-0.2,1.1-0.5,1.6c0.8,0.6-0.4,0.5-0.2,0.9c0,0-0.1,0-0.1,0c0.2,0.2,0.2,0.4,0.1,0.4l0.3,0.3c-1,0.3-0.8,1.2-1.4,1.8
							c-0.5,0.7-1.5,1.1-0.6,2.3c-0.1,0-0.1-0.1-0.2-0.1c0.1,0.3-0.3,0.4-0.2,0.6l-0.1,0c0.5,0.8-0.5,1,0,1.8
							c-0.3,0.6-0.5,1.3-0.6,2l-0.2-0.1c0.2,0.7-1,0.7-0.9,1.4c-0.6,0.3,0.5,1.5-0.2,1.8c-1,0,0.7,1.2-0.4,1.1c-1.6,0-1,1-0.5,2
							c-0.7,0.4,0.3,1.5-0.9,1.6c0.5,0.5-1,0.2-0.9,0.6l0.2,0.1c-0.7-0.2,0.8,0.6-0.2,0.3l0,0c-0.5-0.2,1.1,0.6,0.5,0.4l0.2,0.1
							c0,0.1-0.3-0.1-0.4-0.1c0,0,0.4,0.2,0.3,0.2c-1-0.4,0.1,0.3-1-0.2c0,0-0.5-0.1-0.7-0.3c-0.1,0-0.1,0.1,0.4,0.3
							c0.5,0.2,0.9,0.5,1.3,0.6l-0.4-0.2c0.4,0.1,0.2,0.1,0.5,0.2c0.1-0.1,0.6,0.1,0.9,0.2c0,0,0,0,0,0c-0.4-0.2-0.1-0.2-0.1-0.2
							l0.2,0.1c0.4,0.2-0.8-0.5-0.1-0.1c-0.1-0.3,0-0.5,0.1-0.7c-0.3-0.1,0.1-0.1-0.5-0.3c0.6,0.2,0.9,0.1,0.9,0.1
							c0.1,0,0.1,0.1,0.1,0.1c0.8,0.2-0.7-0.4,0.3-0.1c-0.7-0.3,0.3-0.1-0.5-0.5c0.2,0.1,0.3,0.1,0.4,0.2c0.1-0.2,0.4-0.3,0.5-0.4
							c-0.5-0.4,0.4-0.2-0.4-0.7c0.2,0,0.6,0,0.3-0.3l0.1,0.1c0-0.2,0.1-0.4-0.4-0.7c0.8,0.3,0.7,0.2,1,0.2
							c-0.3-0.3-0.1-0.4-0.4-0.7c0.4,0.1-0.1-0.2,0.4,0c-0.8-0.9-0.3-1.2,0.7-1.4l0,0c-0.3-0.2-0.9-0.5-1.2-0.7c0,0,0.1,0.1,0.1,0.1
							c-0.1-0.1,0.5,0,0.4-0.1c0.1,0,0.1,0,0.2,0.1c-0.2-0.2,0.5,0,0.1-0.2l0.1,0.1l-0.2-0.1c0.2,0.1,0.4,0.2,0.4,0.2
							c0.5-0.6-0.1-1.8,0.3-2.4l0.2,0.1l-0.2-0.3c0.1,0,0.1,0.1,0.2,0.1c0.4-0.1,0-0.5,0.1-0.6c0.1,0,0.2,0.1,0.4,0.2
							c-0.4-0.3,0.7,0.1-0.3-0.4c0,0,0.3,0.1,0.3,0.2c-0.2-0.5,0-0.9,0.3-1.2c-0.8-0.7,0.2-0.7-0.4-1.3l0.2,0.1
							c-0.5-0.7,0.4-0.8,0.5-1.3c0.1-0.1,0-0.4,0-0.5L417,67c-0.7-0.7,1-0.3,0.2-1l0.3,0.2c-0.5-0.2,0.2-0.1-0.6-0.4l0.3,0.1
							c-1-0.7,0.7-0.2,0.1-0.7l0.2,0.1c-0.1-0.1-0.2-0.3,0-0.2c0,0,0.1,0,0.1,0.1c0.9,0.1,0.1-0.5,0.2-0.7l0.3,0.2
							c-0.4-0.3,0.1-0.3,0-0.5l0.2,0.1l-0.2-0.2l0.3,0.1C418.5,63.8,418.3,63.5,418.3,63.3z"/>
						<path fill="#202020" d="M418.7,61.2C418.7,61.2,418.7,61.2,418.7,61.2C418.8,61.2,418.8,61.2,418.7,61.2z"/>
						<path fill="#202020" d="M412.5,80.6C412.5,80.6,412.5,80.6,412.5,80.6C412.5,80.6,412.5,80.6,412.5,80.6z"/>
					</g>
				</g>
			</g>
		</g>
	</g>
	<g>
		<g>
			<g>
				<g>
					<g>
						<polygon fill="#202020" points="418.8,59.2 418.7,59.2 418.9,59.2 						"/>
						<path fill="#202020" d="M419.3,59.2c0,0,0.1,0,0.1-0.1l-0.6,0.1C418.5,59.4,419.5,59.1,419.3,59.2z"/>
						<path fill="#202020" d="M419.2,59.2c-0.1,0.1,0.2,0,0.2,0C419.3,59.3,419.5,59.1,419.2,59.2z"/>
						<path fill="#202020" d="M420.8,62.6C420.8,62.6,420.8,62.6,420.8,62.6C420.8,62.6,420.8,62.6,420.8,62.6z"/>
						<path fill="#202020" d="M422.1,63.1l0.2-0.1c-0.4,0-0.1-0.4-0.4-0.5l0.1,0c-0.1-0.5-0.6-0.7-1-1.1c0,0,0.1,0,0.1,0
							c-0.1,0-0.2,0-0.2,0c0,0,0.1,0,0.1,0c0.3-0.2-0.3-0.2-0.1-0.4c0,0-0.2,0-0.3,0.1c-0.2-0.3-0.5-0.7-0.9-0.9
							c0,0,0.1-0.1,0.2-0.1c-0.7-0.1-0.6-0.5-0.6-0.8c-0.1,0.1-0.1,0.1-0.3,0.1c-0.1,0.2,0.4,0,0.2,0.2l-0.1,0
							c-0.1,0.1,0.4-0.1,0.2,0c-0.1,0.1-0.2,0.1-0.2,0.1c0.1,0.1,0.1,0.3,0.4,0.3c-0.3,0.2,0.1,0.2-0.2,0.3c0.1,0,0.1,0,0.3,0
							c0.1,0.6,0.6,0.9,0.8,1.4c0.7,0,0.1,0.6,0.4,0.8c0,0,0,0-0.1,0c0.2,0,0.3,0.1,0.3,0.3l0.3,0c-0.2,0.9,0.4,1.4,0.5,2.1
							c0.2,0.8,0,1.7,1.1,2c-0.1,0-0.1,0-0.1,0c0.2,0.2,0.1,0.4,0.3,0.6l-0.1,0c0.7,0.3,0.4,1.1,1.1,1.3c0.2,0.6,0.5,1.2,0.9,1.8
							l-0.1,0c0.5,0.4,0,1.1,0.4,1.5c0,0.6,1.1,0.7,1,1.4c-0.4,0.6,1,0.4,0.5,1c-0.6,1,0.2,1.3,1,1.7c-0.1,0.7,1,0.9,0.6,1.7
							c0.5,0.1-0.3,0.8,0,1l0.1-0.1c-0.4,0.3,0.7,0,0.1,0.3l0,0c-0.3,0.2,0.8-0.2,0.5,0l0.2-0.1c0.1,0-0.2,0.1-0.2,0.2
							c0,0,0.3-0.1,0.2,0c-0.7,0.3,0.2,0.1-0.5,0.4c0,0-0.3,0.2-0.5,0.2c-0.1,0.1,0,0.1,0.3,0c0.3-0.1,0.6-0.2,0.9-0.4l-0.2,0.1
							c0.2-0.1,0.1-0.1,0.3-0.2c0-0.1,0.3-0.3,0.5-0.4c0,0,0,0,0,0c-0.3,0.1-0.2-0.1-0.1-0.1L430,79c0.3-0.1-0.6,0.1-0.1,0
							c-0.2-0.1-0.3-0.3-0.4-0.5c-0.2,0.1,0-0.2-0.4,0c0.4-0.2,0.4-0.4,0.4-0.5c0,0,0.1,0,0.1,0c0.5-0.3-0.5,0.1,0.1-0.3
							c-0.5,0.2,0.1-0.2-0.5-0.1c0.1-0.1,0.2-0.1,0.3-0.1c-0.1-0.2,0-0.5,0-0.6c-0.5,0,0-0.4-0.6-0.3c0.1-0.1,0.2-0.4,0-0.4l0.1,0
							c-0.1-0.1-0.2-0.3-0.6-0.3c0.5-0.3,0.4-0.3,0.5-0.4c-0.3,0-0.3-0.2-0.6-0.3c0.2-0.1-0.2-0.1,0.2-0.2c-0.9-0.1-0.8-0.7-0.5-1.4
							l0,0c-0.2,0-0.7,0.1-1,0.2c0,0,0.1,0,0.1,0c-0.1-0.1,0.2-0.3,0.1-0.3c0.1,0,0.1,0,0.1,0c-0.2,0,0.2-0.3-0.1-0.3l0.1,0l-0.2,0
							c0.1,0,0.3-0.1,0.3-0.1c-0.2-0.7-1.1-1.2-1.3-2l0.1,0L426,71c0.1,0,0.1,0,0.1,0c0.1-0.3-0.3-0.3-0.3-0.5c0.1,0,0.2,0,0.2-0.1
							c-0.4,0,0.3-0.4-0.4-0.2c0,0,0.2-0.1,0.2-0.1c-0.4-0.3-0.5-0.6-0.6-1c-0.7,0-0.3-0.6-0.9-0.7l0.1-0.1
							c-0.6-0.2-0.3-0.8-0.6-1.2c0-0.2-0.2-0.2-0.3-0.4l0.1-0.1c-0.7,0,0.2-0.8-0.5-0.9l0.2-0.1c-0.3,0.1,0-0.2-0.5,0l0.1-0.1
							c-0.8,0.1,0.2-0.5-0.4-0.6l0.1,0c-0.1,0-0.2-0.1-0.1-0.2c0,0,0.1,0,0.1,0c0.4-0.4-0.2-0.4-0.3-0.7l0.2-0.1
							c-0.3,0-0.2-0.3-0.3-0.4l0.1,0l-0.2,0l0.2-0.1C422.5,63.4,422.2,63.3,422.1,63.1z"/>
						<path fill="#202020" d="M421,61.4C421,61.4,421,61.4,421,61.4C421,61.4,421,61.4,421,61.4z"/>
						<path fill="#202020" d="M430.1,79.1C430.1,79.2,430,79.2,430.1,79.1C430.1,79.2,430.1,79.2,430.1,79.1z"/>
					</g>
				</g>
			</g>
		</g>
	</g>
</g>
<g>
	<circle fill="none" stroke="#FFFFFF" stroke-miterlimit="10" cx="300" cy="33.8" r="26.8"/>
	<g>
		<g>
			<g>
				<g>
					<g>
						<polygon fill="#202020" points="325.4,33.8 325.5,33.8 325.2,33.6 						"/>
						<path fill="#202020" d="M324.6,32.6c-0.1,0-0.1,0-0.2,0.1l0.9,0.7C325.8,33,324.3,32.8,324.6,32.6z"/>
						<path fill="#202020" d="M324.7,32.4c0.2-0.3-0.2-0.4-0.4-0.4C324.6,32,324.2,32.5,324.7,32.4z"/>
						<path fill="#202020" d="M311.7,12.2C311.7,12.3,311.8,12.3,311.7,12.2C311.8,12.2,311.7,12.2,311.7,12.2z"/>
						<path fill="#202020" d="M305.3,11.3l-0.1,0.3c0.6-0.1,1.2,0,1.8,0.2c0.6,0.3,1.1,0.5,1.7,0.6l-0.1,0.1
							c2.7,1.3,5.4,2.3,7.9,4.3c-0.1,0-0.1,0.1-0.2,0c0.2,0,0.5,0,0.6,0.1c0,0.1-0.1,0.1-0.2,0.1c0.1,0.8,1.6,1.2,1.5,1.8
							c0.2,0.1,0.4,0,0.5-0.2c1.7,1.8,3.1,4.1,4.4,6.3c0,0.1-0.2,0.2-0.3,0.3c1.7,1.7,1.8,4.2,1.9,6.4c0.2,0.1,0.2-0.3,0.5-0.1
							c0.3-0.8-0.7-1.3-0.4-2l0.2,0c0.1-0.5-0.6,0-0.4-0.5c0.2-0.2,0.3,0,0.3-0.1c-0.3-1-0.4-2.1-1.2-2.9c0.4-0.4-0.4-1-0.1-1.6
							c-0.3-0.2-0.3-0.5-0.7-0.4c-1.2-3.4-3.8-6.2-6.4-8.7c-0.9-0.2-1.6-0.8-2.3-1.5c-0.7-0.7-1.5-1.3-2.4-1.7c0,0,0-0.1,0-0.1
							c-0.7-0.1-1.6-0.4-2.3-0.8l-0.8,0.1c-2-1.3-4.4-1.8-6.7-2c-2.4-0.2-4.8,0.1-7.2,0.4c-2.7,0.4-5.2,1.3-7.4,2.5
							c-1.1,0.6-2.1,1.4-3.1,2.3c-0.4,0.5-0.9,1-1.3,1.5c-0.4,0.5-0.7,1.1-1.1,1.7c-0.1-0.1-0.1-0.1-0.1-0.2
							c-0.5,0.6-0.9,1.2-1.4,1.7c-0.2,0.3-0.5,0.5-0.7,0.8c-0.2,0.3-0.4,0.6-0.5,0.9l-0.1-0.1c-0.1,0.4-0.3,0.8-0.5,1.3
							c-0.1,0.4-0.3,0.9-0.5,1.3c-0.4,0.8-0.7,1.7-1,2.5c-0.3,0.8-0.5,1.7-0.7,2.6c-0.1,0.9-0.1,1.8-0.1,2.6
							c-0.5,4,0.3,8.8,2.4,12.5l-0.2,0.1c0.2,0.4,0.4,0.7,0.6,1.1c0.2,0.4,0.4,0.7,0.6,1.1c0.4,0.8,0.8,1.5,1.3,2.2
							c0.9,1.4,2,2.8,3.4,3.8c0.6,0.6,1.4,1.2,2.2,1.6c0.4,0.2,0.8,0.4,1.2,0.6c0.4,0.2,0.8,0.4,1.3,0.5c0.9,0.3,1.7,0.6,2.6,0.8
							c0.4,0.1,0.8,0.3,1.3,0.4c0.4,0.1,0.8,0.3,1.2,0.5c0.2,0.2,0.5,0.3,0.8,0.4c0.3,0.1,0.6,0.1,0.9,0.2c0.6,0,1.2,0.1,1.9-0.1
							c0.6-0.1,1.2-0.2,1.8-0.2c0.6,0,1.1,0,1.7,0.2c1.1,0.4,2.1,0.3,3.2,0.3c0.5-0.1,1-0.2,1.6-0.3c0.5-0.1,1-0.3,1.5-0.5
							c0.5-0.2,1-0.5,1.4-0.7c0.5-0.3,0.9-0.6,1.3-0.9l0.6-0.5l0.6-0.5l1.1-1.1c1.7-0.9,3.1-2.3,4.2-3.8c0.6-0.7,1.1-1.5,1.7-2.2
							c0.5-0.8,1.1-1.5,1.8-2.2c0.1-1,0.7-1.6,1.3-2.5c0.3-0.4,0.6-0.8,0.9-1.2c0.2-0.4,0.4-0.9,0.5-1.4l-0.2,0
							c0.4-0.3,0.3-0.7,0.2-1.1c-0.1-0.4-0.3-0.7,0.3-0.9l0,0.1c0.6-0.3-1.1-1-0.5-1.2l-0.3-0.1c0-0.4,0.3,0,0.4-0.4
							c0-0.1-0.5-0.1-0.3-0.3c1.1,0-0.2-1.1,1-1.1c0,0.3,0.5-0.4,0.7,0.2c0.1-0.2,0.1-1-0.4-0.9c-0.5-0.1-1-0.4-1.5,0.1l0.4,0.1
							c-0.4,0.1-0.2,0.1-0.5,0.2c-0.1,0.6-0.7,0.6-0.9,1c0,0,0,0,0,0c0.5,0.3,0.2,0.7,0.1,0.9l-0.2,0.1c-0.5,0.1,0.8,0.7,0,0.5
							c0,0.6,0,1.2-0.1,1.8c-0.1,0.6-0.3,1.3-0.5,1.9c0.2,0.3-0.4,0.9,0.3,0.8c-0.8,0.1-1.2,0.9-1.3,1.3c-0.1,0-0.1-0.1-0.1-0.1
							c-1.1,0.2,0.4,1.1-0.9,1.2c0.3,0.2,0.1,0.5-0.1,0.7c-0.2,0.3-0.4,0.5-0.1,0.9c-0.2,0-0.3-0.1-0.4-0.2c-0.3,0.5-0.7,1-1.1,1.4
							c-0.4,0.4-0.8,0.8-1.1,1.2c-0.1,1-1.5,1.3-1.5,2.4c-0.3,0.1-0.7,0.3-1,0.5c-0.4,0.2-0.7,0.5-1,0.8l0-0.1
							c-0.7,0.6-1.7,1.2-2,2.1c-0.7-0.6-0.9-0.3-1.4-0.4c-0.2,0.3-0.6,0.6-1,0.9c-0.5,0.2-0.9,0.5-1.3,0.8c-0.3-0.3-0.7,0.4-0.9-0.1
							c-0.6,0.4-1.2,0.8-1.9,1.1c-0.7,0.2-1.5,0.4-2.2,0.4c-0.8,0-1.6,0-2.3-0.2c-0.8-0.2-1.5-0.4-2.2-0.7l0,0
							c-0.4,0.3-0.9,0.9-1.4,1.2c0-0.1,0-0.1,0.1-0.1c-0.3,0-0.5-0.1-0.8-0.3c-0.2-0.2-0.5-0.4-0.7-0.4c0-0.1,0-0.1,0.1-0.2
							c-0.5,0.1-0.9-0.7-1.6-0.4l0-0.2l-0.4,0.1c0.1-0.2,0.2-0.4,0.3-0.3c-2.1-0.8-4.2-1.6-6.2-2.8c-1-0.6-1.9-1.3-2.9-2.1
							c-0.4-0.4-0.8-0.8-1.2-1.3c-0.4-0.4-0.7-0.9-1.1-1.4l0.3,0l-0.8-0.5c0.1,0,0.1,0,0.2,0c-0.3-1.2-1.5-1.9-1.8-3
							c0.1,0,0.3,0,0.4-0.1c-0.9-0.5,0.1-1.5-1.1-1.5c0-0.1,0.3-0.2,0.4-0.1c-0.6-1-1-2.2-1.3-3.3c-0.2-1.2-0.4-2.4-0.3-3.5
							c-0.6-1-0.5-2-0.5-3.1c0-0.5,0.2-1.1,0.2-1.6c0-0.3,0-0.5,0-0.8c0-0.3,0-0.5,0-0.8l0.2,0.1c0-1.4,0.5-2.8,1.1-4
							c0.4-0.6,0.7-1.3,1.1-1.9c0.4-0.6,0.8-1.2,1.1-1.8c0.8-0.9,1-1.7,1.8-2.6l0.2,0.1c0.3-1.1,1.3-1.6,2.2-2.2
							c0.5-0.3,1-0.5,1.4-0.8c0.2-0.2,0.4-0.3,0.6-0.5c0.2-0.2,0.4-0.4,0.5-0.6l0.1,0.4c0-0.6,1.2-0.5,0.6-1.2l0.4,0
							c0.4-0.8,1-1,1.7-1.1c0.7-0.1,1.5-0.1,2.2-0.8l0,0.2c0.4-0.3,0.9-0.6,1.3-0.5c0,0,0,0.1-0.1,0.2c0.8,0.2,1.5,0,2.2-0.2
							c0.7-0.2,1.5-0.6,2.3-0.6l-0.1,0.4c0.3-0.2,0.9-0.3,1.4-0.3c0.5,0,1.1,0.1,1.6,0l-0.1,0.2l0.5-0.2l0,0.4
							c0.6,0,1.2,0.1,1.8,0.1C304.1,11.2,304.7,11.2,305.3,11.3z"/>
						<path fill="#202020" d="M316.6,17.1C316.6,17.1,316.6,17.1,316.6,17.1C316.5,17.1,316.5,17.1,316.6,17.1z"/>
						<path fill="#202020" d="M321.6,35.4c0-0.1,0-0.1,0.1-0.1C321.6,35.2,321.6,35.3,321.6,35.4z"/>
					</g>
				</g>
			</g>
		</g>
	</g>
	<g>
		<g>
			<g>
				<g>
					<g>
						<polygon fill="#202020" points="302,86.2 302.1,86.1 301.8,86.1 						"/>
						<path fill="#202020" d="M301.3,85.8c-0.1,0-0.1,0-0.2,0L302,86C302.5,85.9,301,85.9,301.3,85.8z"/>
						<path fill="#202020" d="M301.4,85.7c0.2-0.1-0.2-0.1-0.4-0.1C301.4,85.6,301,85.7,301.4,85.7z"/>
						<path fill="#202020" d="M301.2,78.2C301.2,78.3,301.2,78.3,301.2,78.2C301.2,78.3,301.2,78.2,301.2,78.2z"/>
						<path fill="#202020" d="M299.8,76.3l-0.3,0c0.6,0.4,0,0.8,0.2,1.2l-0.1,0c-0.1,1,0.4,1.9,0.7,2.8c0,0-0.1,0-0.2,0
							c0.1,0,0.3,0.1,0.3,0.2c-0.1,0-0.2,0-0.2,0c-0.6,0.2,0.3,0.6-0.1,0.7c0.1,0.1,0.3,0.1,0.5,0.1c0.1,0.8,0.2,1.6,0.7,2.3
							c-0.1,0-0.2,0-0.4,0c0.9,0.7,0.5,1.4,0.4,2c0.2,0,0.2-0.1,0.5,0c0.3-0.2-0.6-0.4-0.1-0.6l0.2,0c0.1-0.1-0.6,0-0.3-0.2
							c0.2-0.1,0.3,0,0.3,0c-0.1-0.3,0.1-0.6-0.4-0.9c0.5-0.1,0-0.3,0.5-0.4c-0.2-0.1-0.1-0.2-0.5-0.2c0.3-1.1-0.2-2.2-0.2-3.3
							c-1-0.5,0.2-1.1-0.1-1.7c0,0,0.1,0,0.1,0c-0.2-0.2-0.3-0.5-0.2-0.7l-0.4-0.2c0.8-1.4,0.2-2.9,0.6-4.3c0.2-1.6,0.9-3.1-0.3-4.7
							c0.1,0,0.1,0,0.2,0c-0.2-0.5,0.2-0.9,0-1.3l0.1,0c-0.8-1.1,0.1-2.2-0.7-3.3c0.1-1.3,0-2.7-0.2-4l0.2,0
							c-0.4-1.1,0.6-2.1,0.3-3.2c0.4-1.1-1.1-2.3-0.5-3.4c0.9-0.7-1.1-1.6-0.1-2.2c1.4-1.3,0.5-2.6-0.4-3.9c0.5-1.2-0.8-2.4,0.2-3.6
							c-0.7-0.6,0.8-1.2,0.6-1.8l-0.2,0c0.7-0.2-1-0.5,0.1-0.6l0,0c0.5-0.1-1.3-0.3-0.6-0.3l-0.3,0c-0.1-0.1,0.3,0,0.4-0.1
							c0,0-0.5,0-0.3-0.1c1.1,0-0.2-0.4,1-0.4c0,0.1,0.5-0.1,0.7,0.1c0.1-0.1,0.1-0.3-0.5-0.3c-0.5,0-1-0.1-1.4,0l0.4,0
							c-0.4,0-0.2,0-0.5,0.1c-0.1,0.2-0.6,0.2-0.9,0.4c0,0,0,0,0,0c0.5,0.1,0.2,0.2,0.1,0.3l-0.2,0c-0.5,0,0.9,0.2,0.1,0.2
							c0.2,0.4,0.2,0.8,0.2,1.3c0.3,0.1,0,0.3,0.6,0.2c-0.7,0.1-0.8,0.4-0.8,0.6c-0.1,0-0.1,0-0.1,0c-0.9,0.2,0.8,0.3-0.3,0.5
							c0.7,0-0.2,0.4,0.6,0.5c-0.2,0-0.3,0-0.4,0c0,0.4-0.3,0.8-0.3,1.2c0.7,0.3-0.3,0.7,0.6,0.9c-0.2,0.2-0.6,0.5-0.2,0.8l-0.1,0
							c0.1,0.3,0.1,0.7,0.7,0.9c-0.9,0.1-0.7,0.2-1,0.4c0.4,0.2,0.3,0.6,0.6,1c-0.4,0,0.2,0.3-0.4,0.3c1.1,0.9,0.7,2-0.1,3l0,0
							c0.3,0.1,1,0.3,1.4,0.4c-0.1,0-0.1,0-0.1,0c0.1,0.2-0.5,0.3-0.4,0.5c-0.1,0-0.1,0-0.2,0c0.3,0.2-0.5,0.3,0,0.5l-0.2,0l0.2,0.1
							c-0.2,0-0.5,0-0.4-0.1c-0.2,1.5,0.8,3.1,0.7,4.7l-0.2-0.1l0.3,0.3c-0.1,0-0.1,0-0.2,0c-0.3,0.4,0.2,0.8,0.1,1.2
							c-0.1,0-0.3-0.1-0.4,0c0.5,0.3-0.7,0.4,0.4,0.6c-0.1,0-0.3,0-0.4,0c0.4,0.8,0.3,1.6,0.2,2.3c1,0.6,0.1,1.4,0.9,2l-0.2,0
							c0.7,0.9,0,1.8,0.1,2.7c-0.1,0.4,0.2,0.6,0.2,1l-0.2,0c0.9,0.6-0.8,1.3,0.2,2l-0.3,0c0.5,0.1-0.2,0.4,0.7,0.4l-0.3,0.1
							c1.2,0.5-0.5,0.8,0.2,1.4l-0.2,0c0.2,0.1,0.3,0.3,0.1,0.4c0,0-0.1,0-0.1,0c-0.8,0.5,0.1,1,0.1,1.5l-0.4-0.1
							c0.5,0.2,0,0.7,0.2,1l-0.2,0l0.3,0.2l-0.4,0C299.4,75.5,299.7,75.9,299.8,76.3z"/>
						<path fill="#202020" d="M300.2,80.3C300.2,80.3,300.2,80.3,300.2,80.3C300.2,80.3,300.2,80.3,300.2,80.3z"/>
						<path fill="#202020" d="M298.3,40.4C298.3,40.3,298.4,40.3,298.3,40.4C298.3,40.3,298.3,40.3,298.3,40.4z"/>
					</g>
				</g>
			</g>
		</g>
	</g>
	<g>
		<g>
			<g>
				<g>
					<g>
						<polygon fill="#202020" points="299.4,84.6 299.3,84.7 299.5,84.7 						"/>
						<path fill="#202020" d="M299.8,84.8c0,0,0.1,0,0.1,0l-0.6-0.1C299,84.8,300.1,84.8,299.8,84.8z"/>
						<path fill="#202020" d="M299.8,84.9c-0.1,0.1,0.1,0.1,0.2,0.1C299.8,84.9,300.1,84.8,299.8,84.9z"/>
						<path fill="#202020" d="M300.4,89.3C300.4,89.3,300.4,89.3,300.4,89.3C300.4,89.3,300.4,89.3,300.4,89.3z"/>
						<path fill="#202020" d="M301.5,90.4l0.2,0c-0.4-0.2,0-0.5-0.2-0.7l0.1,0c0-0.6-0.4-1.1-0.6-1.7c0,0,0.1,0,0.1,0
							c-0.1,0-0.2,0-0.2-0.1c0,0,0.1,0,0.1,0c0.4-0.2-0.3-0.3,0-0.4c0,0-0.2,0-0.3,0c-0.1-0.4-0.3-0.9-0.6-1.4c0,0,0.1,0,0.3,0
							c-0.6-0.3-0.4-0.8-0.4-1.2c-0.2,0-0.2,0.1-0.3,0c-0.2,0.2,0.4,0.2,0.1,0.3l-0.2,0c-0.1,0.1,0.4,0,0.2,0.1c-0.1,0-0.2,0-0.2,0
							c0.1,0.2,0,0.4,0.3,0.5c-0.3,0.1,0,0.2-0.3,0.3c0.1,0,0.1,0.1,0.3,0.1c-0.1,0.7,0.3,1.3,0.3,1.9c0.7,0.2,0,0.7,0.2,1
							c0,0,0,0-0.1,0c0.2,0.1,0.3,0.3,0.2,0.4l0.3,0.1c-0.5,0.9,0,1.7-0.1,2.6c-0.1,1-0.4,1.9,0.5,2.8c-0.1,0-0.1,0-0.1,0
							c0.2,0.3,0,0.5,0.1,0.8l-0.1,0c0.6,0.6,0.1,1.4,0.7,1.9c0,0.8,0.2,1.6,0.4,2.4l-0.1,0c0.3,0.6-0.3,1.3,0,1.9
							c-0.2,0.7,0.9,1.3,0.6,2c-0.6,0.5,0.8,0.9,0.2,1.3c-0.9,0.9-0.2,1.6,0.5,2.3c-0.3,0.8,0.7,1.4,0.1,2.2
							c0.5,0.3-0.5,0.8-0.3,1.1l0.2,0c-0.5,0.2,0.7,0.2,0,0.4l0,0c-0.3,0.1,0.9,0.1,0.4,0.2l0.2,0c0.1,0.1-0.2,0-0.3,0.1
							c0,0,0.3,0,0.2,0c-0.7,0.1,0.2,0.2-0.6,0.3c0,0-0.3,0.1-0.5,0c-0.1,0,0,0.2,0.3,0.1c0.4,0,0.7,0,1-0.1l-0.3,0
							c0.3-0.1,0.1,0,0.3-0.1c0-0.1,0.4-0.2,0.6-0.3c0,0,0,0,0,0c-0.3,0-0.1-0.1-0.1-0.2l0.1,0c0.3-0.1-0.6-0.1-0.1-0.1
							c-0.2-0.2-0.2-0.5-0.2-0.7c-0.2,0,0-0.2-0.4-0.1c0.4-0.1,0.5-0.3,0.5-0.4c0,0,0.1,0,0.1,0c0.6-0.2-0.5-0.1,0.1-0.3
							c-0.5,0,0.1-0.3-0.5-0.3c0.1,0,0.2,0,0.3,0c0-0.2,0.1-0.5,0.1-0.7c-0.5-0.1,0.2-0.4-0.5-0.5c0.1-0.1,0.3-0.4,0.1-0.5l0.1,0
							c-0.1-0.2-0.1-0.4-0.5-0.5c0.6-0.1,0.4-0.2,0.6-0.3c-0.3-0.1-0.2-0.4-0.5-0.5c0.3-0.1-0.1-0.1,0.3-0.2
							c-0.8-0.5-0.6-1.2-0.1-1.8l0,0c-0.2-0.1-0.7-0.1-1-0.1c0,0,0.1,0,0.1,0c-0.1-0.1,0.3-0.2,0.2-0.3c0.1,0,0.1,0,0.1,0
							c-0.2-0.1,0.3-0.2,0-0.3l0.1,0l-0.2-0.1c0.1,0,0.3,0,0.3,0c0-0.9-0.7-1.8-0.7-2.7l0.1,0L303,101c0.1,0,0.1,0,0.1,0
							c0.2-0.3-0.2-0.5-0.2-0.7c0.1,0,0.2,0,0.3,0c-0.4-0.1,0.4-0.3-0.3-0.3c0,0,0.2,0,0.3,0c-0.3-0.4-0.3-0.9-0.3-1.4
							c-0.7-0.3-0.2-0.8-0.7-1.2l0.1,0c-0.5-0.5-0.1-1.1-0.2-1.6c0-0.2-0.1-0.4-0.2-0.6l0.2,0c-0.7-0.3,0.5-0.9-0.3-1.2l0.2,0
							c-0.3,0,0.1-0.3-0.5-0.2l0.2-0.1c-0.8-0.2,0.3-0.5-0.2-0.8l0.1,0c-0.1-0.1-0.2-0.2-0.1-0.2c0,0,0.1,0,0.1,0
							c0.5-0.3-0.1-0.6-0.1-0.9l0.3,0c-0.3-0.1-0.1-0.4-0.2-0.6l0.1,0l-0.2-0.1l0.2,0C301.8,90.9,301.5,90.6,301.5,90.4z"/>
						<path fill="#202020" d="M300.9,88C300.9,88,300.9,88,300.9,88C300.9,88,300.9,88,300.9,88z"/>
						<path fill="#202020" d="M304.8,111.9C304.7,111.9,304.7,111.9,304.8,111.9C304.8,111.9,304.7,111.9,304.8,111.9z"/>
					</g>
				</g>
			</g>
		</g>
	</g>
	<g>
		<g>
			<g>
				<g>
					<g>
						<polygon fill="#202020" points="300.3,84.1 300.2,84.1 300.5,84.2 						"/>
						<path fill="#202020" d="M301,84.4c0.1,0,0.1,0,0.2,0l-0.9-0.2C299.8,84.2,301.3,84.4,301,84.4z"/>
						<path fill="#202020" d="M300.9,84.4c-0.2,0,0.2,0.1,0.3,0.1C300.9,84.5,301.3,84.5,300.9,84.4z"/>
						<path fill="#202020" d="M300.6,89.1C300.6,89.1,300.6,89.1,300.6,89.1C300.5,89.1,300.5,89.1,300.6,89.1z"/>
						<path fill="#202020" d="M301.8,90.5l0.3,0.1c-0.6-0.3,0.1-0.5-0.2-0.7l0.1,0c0.2-0.6-0.3-1.2-0.5-1.8c0,0,0.1,0,0.2,0
							c-0.1,0-0.3-0.1-0.3-0.1c0.1,0,0.2,0,0.2,0c0.6-0.1-0.3-0.4,0.1-0.4c-0.1,0-0.3-0.1-0.5-0.1c-0.1-0.5-0.1-1-0.5-1.5
							c0.1,0,0.2,0,0.4,0c-0.8-0.5-0.4-0.9-0.2-1.3c-0.2,0-0.3,0-0.5-0.1c-0.3,0.1,0.5,0.3,0.1,0.4l-0.2,0c-0.2,0.1,0.6,0.1,0.3,0.1
							c-0.2,0-0.3,0-0.3,0c0.1,0.2-0.2,0.4,0.4,0.6c-0.5,0,0,0.2-0.5,0.2c0.2,0.1,0.1,0.1,0.5,0.2c-0.3,0.6,0.1,1.4-0.1,2
							c0.9,0.4-0.3,0.7,0,1.1c0,0-0.1,0-0.1,0c0.2,0.1,0.3,0.3,0.2,0.5l0.4,0.2c-0.9,0.8-0.4,1.8-0.9,2.6c-0.4,1-1.1,1.8,0,2.9
							c-0.1,0-0.1,0-0.2,0c0.2,0.3-0.2,0.5,0,0.8l-0.1,0c0.7,0.8-0.3,1.4,0.5,2.1c-0.2,0.8-0.2,1.7,0,2.5l-0.2,0
							c0.3,0.7-0.7,1.2-0.5,1.9c-0.5,0.6,0.9,1.5,0.3,2.1c-1,0.3,0.9,1.1-0.1,1.4c-1.5,0.7-0.7,1.6,0.1,2.5
							c-0.6,0.7,0.6,1.6-0.5,2.2c0.6,0.4-0.9,0.6-0.8,1l0.2,0c-0.7,0.1,1,0.4-0.1,0.4l0,0c-0.5,0,1.2,0.3,0.6,0.3l0.3,0
							c0.1,0.1-0.3,0-0.4,0c0,0,0.5,0.1,0.3,0.1c-1.1-0.1,0.2,0.2-1,0.1c0,0-0.5,0-0.7-0.1c-0.1,0-0.1,0.2,0.4,0.2
							c0.5,0.1,1,0.2,1.4,0.1l-0.4-0.1c0.4,0,0.2,0,0.5,0c0.1-0.1,0.6-0.1,0.9-0.1c0,0,0,0,0,0c-0.5-0.1-0.2-0.2-0.1-0.2l0.2,0
							c0.5,0-0.9-0.2-0.1-0.1c-0.2-0.3-0.1-0.5-0.1-0.8c-0.3-0.1,0.1-0.2-0.5-0.2c0.7,0,0.9-0.2,0.8-0.2c0.1,0,0.1,0,0.1,0
							c0.9,0-0.8-0.3,0.3-0.3c-0.7-0.1,0.3-0.2-0.6-0.4c0.2,0,0.3,0,0.4,0c0-0.2,0.3-0.5,0.4-0.7c-0.6-0.2,0.3-0.4-0.5-0.6
							c0.2-0.1,0.6-0.3,0.3-0.5l0.1,0c0-0.2,0-0.5-0.6-0.7c0.9,0,0.7-0.1,1-0.1c-0.4-0.2-0.2-0.4-0.6-0.7c0.4,0-0.1-0.2,0.4-0.1
							c-1-0.7-0.6-1.3,0.3-1.8l0,0c-0.3-0.1-1-0.3-1.4-0.4c0.1,0,0.1,0,0.1,0c-0.1-0.1,0.5-0.2,0.4-0.3c0.1,0,0.1,0,0.2,0
							c-0.2-0.1,0.5-0.2,0.1-0.3l0.2,0l-0.2-0.1c0.2,0,0.5,0.1,0.4,0.1c0.3-0.9-0.6-2-0.3-3l0.2,0.1l-0.3-0.2c0.1,0,0.1,0,0.2,0
							c0.4-0.2-0.2-0.5-0.1-0.7c0.1,0,0.3,0.1,0.4,0c-0.5-0.2,0.7-0.2-0.4-0.4c0.1,0,0.3,0,0.4,0c-0.3-0.5-0.2-1,0-1.5
							c-0.9-0.5,0-0.9-0.7-1.4l0.2,0c-0.6-0.6,0.2-1.1,0.1-1.7c0.1-0.2-0.1-0.4-0.1-0.6l0.2,0c-0.9-0.5,0.9-0.7,0-1.3l0.3,0.1
							c-0.5-0.1,0.2-0.2-0.7-0.3l0.3,0c-1.1-0.4,0.6-0.4-0.1-0.9l0.2,0c-0.2-0.1-0.3-0.2-0.1-0.3c0,0,0.1,0,0.1,0
							c0.9-0.2,0-0.6,0-0.9l0.4,0.1c-0.4-0.2,0-0.4-0.2-0.6l0.2,0l-0.2-0.1l0.4,0C302.1,91,301.9,90.7,301.8,90.5z"/>
						<path fill="#202020" d="M301.7,87.9C301.7,87.9,301.7,87.9,301.7,87.9C301.7,87.9,301.7,87.9,301.7,87.9z"/>
						<path fill="#202020" d="M300.8,112.9C300.7,112.9,300.7,112.9,300.8,112.9C300.8,112.9,300.7,112.9,300.8,112.9z"/>
					</g>
				</g>
			</g>
		</g>
	</g>
	<g>
		<g>
			<g>
				<g>
					<g>
						<polygon fill="#202020" points="298.1,57.5 298,57.5 298.3,57.6 						"/>
						<path fill="#202020" d="M298.8,57.8c0.1,0,0.1,0,0.2,0l-0.9-0.2C297.6,57.6,299.1,57.8,298.8,57.8z"/>
						<path fill="#202020" d="M298.7,57.8c-0.2,0,0.2,0.1,0.3,0.1C298.7,57.8,299.1,57.8,298.7,57.8z"/>
						<path fill="#202020" d="M298.5,61.1C298.5,61.1,298.5,61.1,298.5,61.1C298.5,61.1,298.5,61.1,298.5,61.1z"/>
						<path fill="#202020" d="M299.9,62.1l0.3,0c-0.6-0.2,0-0.3-0.2-0.5l0.1,0c0.2-0.4-0.3-0.9-0.5-1.3c0,0,0.1,0,0.2,0
							c-0.1,0-0.3-0.1-0.3-0.1c0.1,0,0.2,0,0.2,0c0.6,0-0.3-0.3,0.1-0.3c-0.1,0-0.3-0.1-0.5-0.1c-0.1-0.3-0.2-0.7-0.6-1.1
							c0.1,0,0.2,0,0.4,0c-0.9-0.4-0.5-0.6-0.3-0.9c-0.2,0-0.3,0-0.5,0c-0.3,0.1,0.6,0.2,0.1,0.3l-0.2,0c-0.2,0,0.6,0.1,0.3,0.1
							c-0.2,0-0.3,0-0.3,0c0.1,0.1-0.1,0.3,0.4,0.4c-0.5,0,0,0.1-0.5,0.1c0.2,0.1,0.1,0.1,0.5,0.1c-0.3,0.4,0.1,1,0,1.4
							c0.9,0.3-0.2,0.5,0.1,0.8c0,0-0.1,0-0.1,0c0.2,0.1,0.3,0.2,0.2,0.3l0.4,0.1c-0.9,0.5-0.4,1.2-0.8,1.8
							c-0.3,0.7-1.1,1.3,0.1,2.1c-0.1,0-0.1,0-0.2,0c0.2,0.2-0.2,0.4,0,0.6l-0.1,0c0.7,0.6-0.2,1,0.6,1.5c-0.1,0.5-0.1,1.2,0.1,1.8
							l-0.2,0c0.3,0.5-0.7,0.9-0.4,1.4c-0.5,0.4,1,1.1,0.4,1.5c-1,0.2,1,0.8,0,1c-1.5,0.4-0.6,1.1,0.2,1.8c-0.6,0.5,0.7,1.1-0.4,1.6
							c0.6,0.3-0.9,0.4-0.7,0.7l0.2,0c-0.7,0,1,0.3-0.1,0.3l0,0c-0.5,0,1.2,0.2,0.6,0.2l0.3,0c0.1,0.1-0.3,0-0.4,0
							c0,0,0.5,0.1,0.3,0.1c-1.1-0.1,0.2,0.2-1,0.1c0,0-0.5,0-0.7-0.1c-0.1,0-0.1,0.1,0.4,0.2c0.5,0.1,1,0.2,1.4,0.1l-0.4-0.1
							c0.4,0,0.2,0,0.5,0c0.1-0.1,0.6,0,0.9-0.1c0,0,0,0,0,0c-0.5-0.1-0.2-0.1-0.1-0.1l0.2,0c0.5,0-0.9-0.2-0.1-0.1
							c-0.2-0.2-0.1-0.4-0.1-0.6c-0.3-0.1,0-0.1-0.5-0.2c0.7,0,0.8-0.1,0.8-0.2c0.1,0,0.1,0,0.1,0c0.9,0-0.8-0.2,0.3-0.2
							c-0.7-0.1,0.3-0.1-0.6-0.3c0.2,0,0.3,0,0.4,0c0-0.2,0.3-0.3,0.4-0.5c-0.6-0.2,0.3-0.3-0.6-0.5c0.2-0.1,0.6-0.2,0.2-0.3l0.1,0
							c0-0.1-0.1-0.3-0.6-0.5c0.9,0,0.7,0,1-0.1c-0.4-0.1-0.3-0.3-0.6-0.5c0.4,0-0.2-0.1,0.4-0.1c-1.1-0.5-0.6-1,0.3-1.3l0,0
							c-0.3-0.1-1-0.2-1.4-0.3c0.1,0,0.1,0,0.1,0c-0.1-0.1,0.5-0.1,0.4-0.2c0.1,0,0.1,0,0.2,0c-0.2-0.1,0.5-0.1,0-0.2l0.2,0
							l-0.2-0.1c0.2,0,0.5,0.1,0.4,0.1c0.3-0.6-0.7-1.4-0.5-2.1l0.2,0l-0.3-0.2c0.1,0,0.1,0,0.2,0c0.3-0.1-0.2-0.4-0.1-0.5
							c0.1,0,0.3,0.1,0.4,0c-0.5-0.2,0.7-0.1-0.4-0.3c0.1,0,0.3,0,0.4,0c-0.3-0.4-0.3-0.7-0.1-1c-0.9-0.4,0-0.6-0.8-1l0.2,0
							c-0.6-0.5,0.1-0.8,0-1.2c0.1-0.2-0.1-0.3-0.1-0.5l0.2,0c-0.9-0.4,0.9-0.5-0.1-0.9l0.3,0.1c-0.5-0.1,0.2-0.2-0.7-0.2l0.3,0
							c-1.1-0.3,0.6-0.3-0.2-0.6l0.2,0c-0.2-0.1-0.3-0.2-0.1-0.2c0,0,0.1,0,0.1,0c0.8-0.1,0-0.4,0-0.6l0.4,0.1
							c-0.4-0.1,0-0.3-0.2-0.4l0.2,0l-0.2-0.1l0.4,0C300.2,62.5,299.9,62.3,299.9,62.1z"/>
						<path fill="#202020" d="M299.6,60.3C299.6,60.3,299.6,60.3,299.6,60.3C299.6,60.3,299.6,60.3,299.6,60.3z"/>
						<path fill="#202020" d="M299.7,77.9C299.7,78,299.7,78,299.7,77.9C299.7,78,299.7,78,299.7,77.9z"/>
					</g>
				</g>
			</g>
		</g>
	</g>
	<g>
		<g>
			<g>
				<g>
					<g>
						<polygon fill="#202020" points="298.7,58 298.6,58 298.8,58 						"/>
						<path fill="#202020" d="M299.1,58.1c0,0,0.1,0,0.1,0l-0.6,0C298.4,58.1,299.4,58,299.1,58.1z"/>
						<path fill="#202020" d="M299.1,58.1c-0.1,0.1,0.1,0,0.2,0C299.1,58.2,299.4,58.1,299.1,58.1z"/>
						<path fill="#202020" d="M299.5,61.4C299.5,61.4,299.5,61.3,299.5,61.4C299.5,61.4,299.5,61.4,299.5,61.4z"/>
						<path fill="#202020" d="M300.6,62.1l0.2,0c-0.4-0.1,0-0.3-0.2-0.5l0.1,0c0-0.4-0.4-0.8-0.6-1.2c0,0,0.1,0,0.1,0
							c-0.1,0-0.2,0-0.2,0c0,0,0.1,0,0.1,0c0.4-0.1-0.3-0.2,0-0.3c0,0-0.2,0-0.3,0c-0.1-0.3-0.2-0.7-0.6-1c0,0,0.1,0,0.3,0
							c-0.6-0.2-0.4-0.6-0.3-0.9c-0.2,0-0.2,0-0.3,0c-0.2,0.1,0.4,0.1,0.1,0.2l-0.2,0c-0.1,0.1,0.4,0,0.2,0.1c-0.1,0-0.2,0-0.2,0
							c0.1,0.1,0,0.3,0.3,0.4c-0.3,0.1,0,0.1-0.3,0.2c0.1,0,0.1,0.1,0.3,0.1c-0.1,0.5,0.2,0.9,0.3,1.4c0.7,0.2-0.1,0.5,0.2,0.7
							c0,0,0,0-0.1,0c0.2,0.1,0.3,0.2,0.2,0.3l0.3,0.1c-0.5,0.7,0,1.3-0.2,1.9c-0.1,0.7-0.5,1.4,0.4,2c-0.1,0-0.1,0-0.1,0
							c0.1,0.2-0.1,0.4,0.1,0.6l-0.1,0c0.6,0.4,0,1,0.6,1.4c0,0.6,0.1,1.2,0.3,1.7l-0.1,0c0.3,0.4-0.3,1-0.1,1.4
							c-0.2,0.5,0.8,0.9,0.5,1.4c-0.6,0.4,0.8,0.6,0.2,1c-0.9,0.7-0.2,1.2,0.4,1.7c-0.3,0.6,0.6,1,0,1.6c0.5,0.2-0.5,0.6-0.3,0.8
							l0.2,0c-0.5,0.1,0.7,0.2,0,0.3l0,0c-0.4,0.1,0.8,0,0.4,0.1l0.2,0c0.1,0.1-0.2,0-0.3,0.1c0,0,0.3,0,0.2,0
							c-0.7,0.1,0.2,0.1-0.6,0.2c0,0-0.3,0.1-0.5,0c-0.1,0,0,0.1,0.3,0.1c0.4,0,0.7,0,1-0.1l-0.3,0c0.3,0,0.1,0,0.3-0.1
							c0-0.1,0.4-0.1,0.6-0.2c0,0,0,0,0,0c-0.3,0-0.1-0.1-0.1-0.1l0.1,0c0.3-0.1-0.6,0-0.1-0.1c-0.1-0.2-0.2-0.4-0.2-0.5
							c-0.2,0,0-0.1-0.4-0.1c0.4-0.1,0.5-0.2,0.5-0.3c0,0,0.1,0,0.1,0c0.6-0.2-0.5-0.1,0.1-0.2c-0.5,0,0.1-0.2-0.4-0.2
							c0.1,0,0.2,0,0.3,0c0-0.2,0.2-0.4,0.2-0.5c-0.4-0.1,0.2-0.3-0.4-0.4c0.1-0.1,0.4-0.3,0.1-0.4l0.1,0c0-0.1-0.1-0.3-0.5-0.4
							c0.6-0.1,0.4-0.1,0.6-0.2c-0.3-0.1-0.2-0.3-0.5-0.4c0.3,0-0.1-0.1,0.3-0.2c-0.8-0.3-0.6-0.8-0.1-1.3l0,0c-0.2,0-0.7-0.1-1-0.1
							c0,0,0.1,0,0.1,0c-0.1-0.1,0.3-0.2,0.2-0.2c0.1,0,0.1,0,0.1,0c-0.2-0.1,0.3-0.2,0-0.2l0.1,0l-0.1,0c0.1,0,0.3,0,0.3,0
							c0.1-0.7-0.7-1.3-0.6-2l0.1,0l-0.2-0.1c0.1,0,0.1,0,0.1,0c0.2-0.2-0.2-0.3-0.1-0.5c0.1,0,0.2,0,0.3,0
							c-0.4-0.1,0.4-0.2-0.3-0.2c0,0,0.2,0,0.3,0c-0.3-0.3-0.3-0.7-0.2-1c-0.7-0.2-0.1-0.6-0.7-0.8l0.1,0c-0.5-0.3,0-0.8-0.2-1.2
							c0-0.2-0.1-0.3-0.2-0.4l0.2,0c-0.6-0.2,0.5-0.6-0.2-0.9l0.2,0c-0.3,0,0.1-0.2-0.5-0.1l0.2-0.1c-0.8-0.1,0.3-0.4-0.2-0.6l0.1,0
							c-0.1-0.1-0.2-0.1-0.1-0.2c0,0,0.1,0,0.1,0c0.5-0.3-0.1-0.4-0.1-0.6l0.3,0c-0.3-0.1,0-0.3-0.2-0.4l0.1,0l-0.2-0.1l0.2,0
							C300.8,62.4,300.6,62.3,300.6,62.1z"/>
						<path fill="#202020" d="M300.1,60.4C300.1,60.4,300.1,60.4,300.1,60.4C300.1,60.4,300.1,60.4,300.1,60.4z"/>
						<path fill="#202020" d="M303.1,77.7C303.1,77.7,303.1,77.7,303.1,77.7C303.1,77.7,303.1,77.7,303.1,77.7z"/>
					</g>
				</g>
			</g>
		</g>
	</g>
</g>
<g>
	<circle fill="none" stroke="#FFFFFF" stroke-miterlimit="10" cx="540" cy="33.3" r="26.8"/>
	<g>
		<g>
			<g>
				<g>
					<g>
						<polygon fill="#202020" points="565.4,33.3 565.5,33.3 565.2,33.1 						"/>
						<path fill="#202020" d="M564.6,32.1c-0.1,0-0.1,0-0.2,0.1l0.9,0.7C565.8,32.5,564.3,32.3,564.6,32.1z"/>
						<path fill="#202020" d="M564.7,31.9c0.2-0.3-0.2-0.4-0.4-0.4C564.6,31.5,564.2,32,564.7,31.9z"/>
						<path fill="#202020" d="M551.7,11.7C551.7,11.8,551.8,11.8,551.7,11.7C551.8,11.7,551.7,11.7,551.7,11.7z"/>
						<path fill="#202020" d="M545.3,10.8l-0.1,0.3c0.6-0.1,1.2,0,1.8,0.2c0.6,0.3,1.1,0.5,1.7,0.6l-0.1,0.1
							c2.7,1.3,5.4,2.3,7.9,4.3c-0.1,0-0.1,0.1-0.2,0c0.2,0,0.5,0,0.6,0.1c0,0.1-0.1,0.1-0.2,0.1c0.1,0.8,1.6,1.2,1.5,1.8
							c0.2,0.1,0.4,0,0.5-0.2c1.7,1.8,3.1,4.1,4.4,6.3c0,0.1-0.2,0.2-0.3,0.3c1.7,1.7,1.8,4.2,1.9,6.4c0.2,0.1,0.2-0.3,0.5-0.1
							c0.3-0.8-0.7-1.3-0.4-2l0.2,0c0.1-0.5-0.6,0-0.4-0.5c0.2-0.2,0.3,0,0.3-0.1c-0.3-1-0.4-2.1-1.2-2.9c0.4-0.4-0.4-1-0.1-1.6
							c-0.3-0.2-0.3-0.5-0.7-0.4c-1.2-3.4-3.8-6.2-6.4-8.7c-0.9-0.2-1.6-0.8-2.3-1.5c-0.7-0.7-1.5-1.3-2.4-1.7c0,0,0-0.1,0-0.1
							c-0.7-0.1-1.6-0.4-2.3-0.8l-0.8,0.1c-2-1.3-4.4-1.8-6.7-2c-2.4-0.2-4.8,0.1-7.2,0.4c-2.7,0.4-5.2,1.3-7.4,2.5
							c-1.1,0.6-2.1,1.4-3.1,2.3c-0.4,0.5-0.9,1-1.3,1.5c-0.4,0.5-0.7,1.1-1.1,1.7c-0.1-0.1-0.1-0.1-0.1-0.2
							c-0.5,0.6-0.9,1.2-1.4,1.7c-0.2,0.3-0.5,0.5-0.7,0.8c-0.2,0.3-0.4,0.6-0.5,0.9l-0.1-0.1c-0.1,0.4-0.3,0.8-0.5,1.3
							c-0.1,0.4-0.3,0.9-0.5,1.3c-0.4,0.8-0.7,1.7-1,2.5c-0.3,0.8-0.5,1.7-0.7,2.6c-0.1,0.9-0.1,1.8-0.1,2.6
							c-0.5,4,0.3,8.8,2.4,12.5l-0.2,0.1c0.2,0.4,0.4,0.7,0.6,1.1c0.2,0.4,0.4,0.7,0.6,1.1c0.4,0.8,0.8,1.5,1.3,2.2
							c0.9,1.4,2,2.8,3.4,3.8c0.6,0.6,1.4,1.2,2.2,1.6c0.4,0.2,0.8,0.4,1.2,0.6c0.4,0.2,0.8,0.4,1.3,0.5c0.9,0.3,1.7,0.6,2.6,0.8
							c0.4,0.1,0.8,0.3,1.3,0.4c0.4,0.1,0.8,0.3,1.2,0.5c0.2,0.2,0.5,0.3,0.8,0.4c0.3,0.1,0.6,0.1,0.9,0.2c0.6,0,1.2,0.1,1.9-0.1
							c0.6-0.1,1.2-0.2,1.8-0.2c0.6,0,1.1,0,1.7,0.2c1.1,0.4,2.1,0.3,3.2,0.3c0.5-0.1,1-0.2,1.6-0.3c0.5-0.1,1-0.3,1.5-0.5
							c0.5-0.2,1-0.5,1.4-0.7c0.5-0.3,0.9-0.6,1.3-0.9l0.6-0.5l0.6-0.5l1.1-1.1c1.7-0.9,3.1-2.3,4.2-3.8c0.6-0.7,1.1-1.5,1.7-2.2
							c0.5-0.8,1.1-1.5,1.8-2.2c0.1-1,0.7-1.6,1.3-2.5c0.3-0.4,0.6-0.8,0.9-1.2c0.2-0.4,0.4-0.9,0.5-1.4l-0.2,0
							c0.4-0.3,0.3-0.7,0.2-1.1c-0.1-0.4-0.3-0.7,0.3-0.9l0,0.1c0.6-0.3-1.1-1-0.5-1.2l-0.3-0.1c0-0.4,0.3,0,0.4-0.4
							c0-0.1-0.5-0.1-0.3-0.3c1.1,0-0.2-1.1,1-1.1c0,0.3,0.5-0.4,0.7,0.2c0.1-0.2,0.1-1-0.4-0.9c-0.5-0.1-1-0.4-1.5,0.1l0.4,0.1
							c-0.4,0.1-0.2,0.1-0.5,0.2c-0.1,0.6-0.7,0.6-0.9,1c0,0,0,0,0,0c0.5,0.3,0.2,0.7,0.1,0.9l-0.2,0.1c-0.5,0.1,0.8,0.7,0,0.5
							c0,0.6,0,1.2-0.1,1.8c-0.1,0.6-0.3,1.3-0.5,1.9c0.2,0.3-0.4,0.9,0.3,0.8c-0.8,0.1-1.2,0.9-1.3,1.3c-0.1,0-0.1-0.1-0.1-0.1
							c-1.1,0.2,0.4,1.1-0.9,1.2c0.3,0.2,0.1,0.5-0.1,0.7c-0.2,0.3-0.4,0.5-0.1,0.9c-0.2,0-0.3-0.1-0.4-0.2c-0.3,0.5-0.7,1-1.1,1.4
							c-0.4,0.4-0.8,0.8-1.1,1.2c-0.1,1-1.5,1.3-1.5,2.4c-0.3,0.1-0.7,0.3-1,0.5c-0.4,0.2-0.7,0.5-1,0.8l0-0.1
							c-0.7,0.6-1.7,1.2-2,2.1c-0.7-0.6-0.9-0.3-1.4-0.4c-0.2,0.3-0.6,0.6-1,0.9c-0.5,0.2-0.9,0.5-1.3,0.8c-0.3-0.3-0.7,0.4-0.9-0.1
							c-0.6,0.4-1.2,0.8-1.9,1.1c-0.7,0.2-1.5,0.4-2.2,0.4c-0.8,0-1.6,0-2.3-0.2c-0.8-0.2-1.5-0.4-2.2-0.7l0,0
							c-0.4,0.3-0.9,0.9-1.4,1.2c0-0.1,0-0.1,0.1-0.1c-0.3,0-0.5-0.1-0.8-0.3c-0.2-0.2-0.5-0.4-0.7-0.4c0-0.1,0-0.1,0.1-0.2
							c-0.5,0.1-0.9-0.7-1.6-0.4l0-0.2l-0.4,0.1c0.1-0.2,0.2-0.4,0.3-0.3c-2.1-0.8-4.2-1.6-6.2-2.8c-1-0.6-1.9-1.3-2.9-2.1
							c-0.4-0.4-0.8-0.8-1.2-1.3c-0.4-0.4-0.7-0.9-1.1-1.4l0.3,0l-0.8-0.5c0.1,0,0.1,0,0.2,0c-0.3-1.2-1.5-1.9-1.8-3
							c0.1,0,0.3,0,0.4-0.1c-0.9-0.5,0.1-1.5-1.1-1.5c0-0.1,0.3-0.2,0.4-0.1c-0.6-1-1-2.2-1.3-3.3c-0.2-1.2-0.4-2.4-0.3-3.5
							c-0.6-1-0.5-2-0.5-3.1c0-0.5,0.2-1.1,0.2-1.6c0-0.3,0-0.5,0-0.8c0-0.3,0-0.5,0-0.8l0.2,0.1c0-1.4,0.5-2.8,1.1-4
							c0.4-0.6,0.7-1.3,1.1-1.9c0.4-0.6,0.8-1.2,1.1-1.8c0.8-0.9,1-1.7,1.8-2.6l0.2,0.1c0.3-1.1,1.3-1.6,2.2-2.2
							c0.5-0.3,1-0.5,1.4-0.8c0.2-0.2,0.4-0.3,0.6-0.5c0.2-0.2,0.4-0.4,0.5-0.6l0.1,0.4c0-0.6,1.2-0.5,0.6-1.2l0.4,0
							c0.4-0.8,1-1,1.7-1.1c0.7-0.1,1.5-0.1,2.2-0.8l0,0.2c0.4-0.3,0.9-0.6,1.3-0.5c0,0,0,0.1-0.1,0.2c0.8,0.2,1.5,0,2.2-0.2
							c0.7-0.2,1.5-0.6,2.3-0.6l-0.1,0.4c0.3-0.2,0.9-0.3,1.4-0.3c0.5,0,1.1,0.1,1.6,0l-0.1,0.2l0.5-0.2l0,0.4
							c0.6,0,1.2,0.1,1.8,0.1C544.1,10.7,544.7,10.7,545.3,10.8z"/>
						<path fill="#202020" d="M556.6,16.6C556.6,16.6,556.6,16.6,556.6,16.6C556.5,16.6,556.5,16.6,556.6,16.6z"/>
						<path fill="#202020" d="M561.6,34.9c0-0.1,0-0.1,0.1-0.1C561.6,34.7,561.6,34.8,561.6,34.9z"/>
					</g>
				</g>
			</g>
		</g>
	</g>
	<g>
		<g>
			<g>
				<g>
					<g>
						<polygon fill="#202020" points="542,85.7 542.1,85.6 541.8,85.6 						"/>
						<path fill="#202020" d="M541.3,85.3c-0.1,0-0.2,0-0.2,0l0.9,0.2C542.5,85.4,541,85.4,541.3,85.3z"/>
						<path fill="#202020" d="M541.4,85.2c0.2-0.1-0.2-0.1-0.4-0.1C541.4,85.1,541,85.2,541.4,85.2z"/>
						<path fill="#202020" d="M541.2,77.7C541.2,77.8,541.2,77.8,541.2,77.7C541.2,77.8,541.2,77.7,541.2,77.7z"/>
						<path fill="#202020" d="M539.8,75.8l-0.3,0c0.6,0.4,0,0.8,0.2,1.2l-0.1,0c-0.1,1,0.4,1.9,0.7,2.8c0,0-0.1,0-0.2,0
							c0.1,0,0.3,0.1,0.3,0.2c-0.1,0-0.2,0-0.2,0c-0.6,0.2,0.3,0.6-0.1,0.7c0.1,0.1,0.3,0.1,0.5,0.1c0.1,0.8,0.2,1.6,0.7,2.3
							c-0.1,0-0.2,0-0.4,0c0.9,0.7,0.5,1.4,0.4,2c0.2,0,0.2-0.1,0.5,0c0.3-0.2-0.6-0.4-0.1-0.6l0.2,0c0.1-0.1-0.6,0-0.3-0.2
							c0.2-0.1,0.3,0,0.3,0c-0.1-0.3,0.1-0.6-0.4-0.9c0.5-0.1,0-0.3,0.5-0.4c-0.2-0.1-0.1-0.2-0.5-0.2c0.3-1.1-0.2-2.2-0.2-3.3
							c-1-0.5,0.2-1.1-0.1-1.7c0,0,0.1,0,0.1,0c-0.2-0.2-0.3-0.5-0.2-0.7l-0.4-0.2c0.8-1.4,0.2-2.9,0.6-4.3c0.2-1.6,0.9-3.1-0.3-4.7
							c0.1,0,0.1,0,0.2,0c-0.2-0.5,0.2-0.9,0-1.3l0.1,0c-0.8-1.1,0.1-2.2-0.7-3.3c0.1-1.3,0-2.7-0.2-4l0.2,0
							c-0.4-1.1,0.6-2.1,0.3-3.2c0.4-1.1-1.1-2.3-0.5-3.4c0.9-0.7-1.1-1.6-0.1-2.2c1.4-1.3,0.5-2.6-0.4-3.9c0.5-1.2-0.8-2.4,0.2-3.6
							c-0.7-0.6,0.8-1.2,0.6-1.8l-0.2,0c0.7-0.2-1-0.5,0.1-0.6l0,0c0.5-0.1-1.3-0.3-0.6-0.3l-0.3,0c-0.1-0.1,0.3,0,0.4-0.1
							c0,0-0.5,0-0.3-0.1c1.1,0-0.2-0.4,1-0.4c0,0.1,0.5-0.1,0.7,0.1c0.1-0.1,0.1-0.3-0.5-0.3c-0.5,0-1-0.1-1.4,0l0.4,0
							c-0.4,0-0.2,0-0.5,0.1c-0.1,0.2-0.6,0.2-0.9,0.4c0,0,0,0,0,0c0.5,0.1,0.2,0.2,0.1,0.3l-0.2,0c-0.5,0,0.9,0.2,0.1,0.2
							c0.2,0.4,0.2,0.8,0.2,1.3c0.3,0.1,0,0.3,0.6,0.2c-0.7,0.1-0.8,0.4-0.8,0.6c-0.1,0-0.1,0-0.1,0c-0.9,0.2,0.8,0.3-0.3,0.5
							c0.7,0-0.2,0.4,0.6,0.5c-0.2,0-0.3,0-0.4,0c0,0.4-0.3,0.8-0.3,1.2c0.7,0.3-0.3,0.7,0.6,0.9c-0.2,0.2-0.6,0.5-0.2,0.8l-0.1,0
							c0.1,0.3,0.1,0.7,0.7,0.9c-0.9,0.1-0.7,0.2-1,0.4c0.4,0.2,0.3,0.6,0.6,1c-0.4,0,0.2,0.3-0.4,0.3c1.1,0.9,0.7,2-0.1,3l0,0
							c0.3,0.1,1,0.3,1.4,0.4c-0.1,0-0.1,0-0.1,0c0.1,0.2-0.5,0.3-0.4,0.5c-0.1,0-0.1,0-0.2,0c0.3,0.2-0.5,0.3,0,0.5l-0.2,0l0.2,0.1
							c-0.2,0-0.5,0-0.4-0.1c-0.2,1.5,0.8,3.1,0.7,4.7l-0.2-0.1l0.3,0.3c-0.1,0-0.1,0-0.2,0c-0.3,0.4,0.2,0.8,0.1,1.2
							c-0.1,0-0.3-0.1-0.4,0c0.5,0.3-0.7,0.4,0.4,0.6c-0.1,0-0.3,0-0.4,0c0.4,0.8,0.3,1.6,0.2,2.3c1,0.6,0.1,1.4,0.9,2l-0.2,0
							c0.7,0.9,0,1.8,0.1,2.7c-0.1,0.4,0.2,0.6,0.2,1l-0.2,0c0.9,0.6-0.8,1.3,0.2,2l-0.3,0c0.5,0.1-0.2,0.4,0.7,0.4l-0.3,0.1
							c1.2,0.5-0.5,0.8,0.2,1.4l-0.2,0c0.2,0.1,0.3,0.3,0.1,0.4c0,0-0.1,0-0.1,0c-0.8,0.5,0.1,1,0.1,1.5l-0.4-0.1
							c0.5,0.2,0,0.7,0.2,1l-0.2,0l0.3,0.2l-0.4,0C539.4,75,539.7,75.4,539.8,75.8z"/>
						<path fill="#202020" d="M540.2,79.8C540.2,79.8,540.2,79.8,540.2,79.8C540.2,79.8,540.2,79.8,540.2,79.8z"/>
						<path fill="#202020" d="M538.3,39.9C538.3,39.8,538.4,39.8,538.3,39.9C538.3,39.8,538.3,39.8,538.3,39.9z"/>
					</g>
				</g>
			</g>
		</g>
	</g>
	<g>
		<g>
			<g>
				<g>
					<g>
						<polygon fill="#202020" points="539.7,84.9 539.7,85 539.9,84.9 						"/>
						<path fill="#202020" d="M540.3,84.8c0,0,0.1-0.1,0.1-0.1l-0.5,0.3C539.6,85.3,540.4,84.6,540.3,84.8z"/>
						<path fill="#202020" d="M540.2,84.9c-0.1,0.1,0.2,0,0.2-0.1C540.3,84.9,540.4,84.7,540.2,84.9z"/>
						<path fill="#202020" d="M544,88.4C544,88.4,544,88.4,544,88.4C544,88.5,544,88.4,544,88.4z"/>
						<path fill="#202020" d="M545.6,88.7l0.2-0.1c-0.5,0.1-0.4-0.4-0.7-0.5l0.1,0c-0.4-0.5-1.1-0.7-1.7-1.1c0,0,0.1-0.1,0.1-0.1
							c-0.1,0-0.2,0.1-0.2,0.1c0,0,0.1-0.1,0.1-0.1c0.2-0.4-0.5-0.1-0.3-0.4c-0.1,0-0.2,0.1-0.2,0.2c-0.4-0.3-0.9-0.7-1.5-0.8
							c0-0.1,0.1-0.1,0.2-0.2c-0.7,0.1-0.9-0.4-1.2-0.8c-0.1,0.1-0.1,0.2-0.2,0.2c0,0.2,0.5-0.1,0.4,0.2l-0.1,0.1
							c0,0.1,0.3-0.3,0.2,0c-0.1,0.1-0.1,0.1-0.1,0.2c0.2,0.1,0.3,0.4,0.7,0.2c-0.2,0.3,0.2,0.2,0,0.4c0.1-0.1,0.1,0,0.3-0.1
							c0.4,0.6,1.2,1,1.7,1.5c0.7-0.2,0.5,0.6,0.9,0.8c0,0,0,0,0,0c0.2,0,0.4,0.1,0.5,0.2l0.3-0.1c0.3,1.1,1.3,1.5,1.8,2.4
							c0.7,0.9,1.1,1.9,2.4,2.1c0,0-0.1,0.1-0.1,0.1c0.3,0.1,0.4,0.5,0.7,0.6l0,0c0.9,0.2,1,1.1,2,1.3c0.6,0.7,1.3,1.3,2.1,1.9
							l-0.1,0.1c0.7,0.3,0.7,1.3,1.4,1.7c0.3,0.7,1.6,0.6,1.9,1.4c-0.1,0.8,1.3,0.3,1.1,1c0,1.3,1,1.5,2.1,1.8
							c0.4,0.8,1.6,0.8,1.7,1.9c0.6,0,0.2,1,0.6,1.2l0.1-0.1c-0.2,0.4,0.7-0.2,0.3,0.3l0,0c-0.2,0.3,0.7-0.5,0.5-0.1l0.1-0.1
							c0.1,0-0.1,0.1-0.1,0.3c0,0,0.2-0.2,0.2-0.1c-0.5,0.5,0.3,0.1-0.3,0.6c0,0-0.2,0.3-0.4,0.3c0,0.1,0.1,0.2,0.3-0.1
							c0.3-0.2,0.5-0.4,0.7-0.7l-0.2,0.2c0.2-0.2,0.1-0.1,0.2-0.3c-0.1-0.1,0.2-0.4,0.2-0.6c0,0,0,0,0,0c-0.3,0.2-0.2,0-0.2-0.1
							l0.1-0.1c0.2-0.2-0.5,0.3-0.1,0c-0.3-0.1-0.5-0.3-0.7-0.5c-0.2,0.1-0.1-0.2-0.4,0.1c0.3-0.4,0.2-0.6,0.1-0.7
							c0,0,0.1-0.1,0.1,0c0.3-0.5-0.5,0.2-0.1-0.4c-0.4,0.3-0.1-0.3-0.6,0c0.1-0.1,0.1-0.2,0.2-0.2c-0.2-0.2-0.3-0.5-0.4-0.7
							c-0.4,0.2-0.2-0.5-0.7-0.2c0-0.2,0-0.5-0.3-0.5l0.1,0c-0.2-0.1-0.4-0.3-0.8-0.1c0.4-0.5,0.2-0.4,0.3-0.6
							c-0.3,0.1-0.4-0.2-0.8-0.2c0.2-0.2-0.2-0.1,0.1-0.3c-1,0.1-1.3-0.7-1.4-1.5l0,0c-0.2,0.1-0.6,0.3-0.9,0.5c0,0,0.1-0.1,0.1-0.1
							c-0.1,0,0-0.4-0.1-0.4c0,0,0,0,0.1-0.1c-0.2,0,0.1-0.4-0.3-0.3l0.1-0.1l-0.2,0c0.1-0.1,0.2-0.2,0.2-0.2
							c-0.7-0.8-1.9-1.1-2.6-2l0.1-0.1l-0.3,0c0,0,0.1-0.1,0.1-0.1c0-0.3-0.5-0.3-0.6-0.5c0,0,0.2-0.1,0.2-0.2
							c-0.4,0.1,0.1-0.5-0.5-0.1c0,0,0.1-0.1,0.2-0.2c-0.5-0.2-0.9-0.6-1.2-1.1c-0.8,0.1-0.7-0.6-1.4-0.6l0.1-0.1
							c-0.8-0.1-0.9-0.9-1.4-1.3c-0.1-0.2-0.4-0.2-0.6-0.4l0.1-0.1c-0.7,0.1-0.3-1-1.1-0.9l0.2-0.1c-0.3,0.2-0.1-0.3-0.5,0.2
							l0.1-0.2c-0.8,0.3-0.1-0.7-0.8-0.6l0.1-0.1c-0.1,0-0.3,0-0.3-0.2c0,0,0,0,0.1,0c0.2-0.6-0.5-0.4-0.7-0.7l0.2-0.2
							c-0.3,0.1-0.3-0.3-0.6-0.4l0.1-0.1l-0.2,0l0.2-0.2C546.2,88.9,545.8,88.9,545.6,88.7z"/>
						<path fill="#202020" d="M543.4,86.9C543.4,86.9,543.4,86.9,543.4,86.9C543.5,86.9,543.5,86.9,543.4,86.9z"/>
						<path fill="#202020" d="M563.9,105.6C563.9,105.6,563.9,105.7,563.9,105.6C563.9,105.6,563.9,105.6,563.9,105.6z"/>
					</g>
				</g>
			</g>
		</g>
	</g>
	<g>
		<g>
			<g>
				<g>
					<g>
						<polygon fill="#202020" points="540.9,82.4 540.8,82.3 541,82.6 						"/>
						<path fill="#202020" d="M541.2,83.1c0,0,0.1,0.1,0.2,0.1l-0.5-0.7C540.4,82.2,541.4,83.3,541.2,83.1z"/>
						<path fill="#202020" d="M541.1,83.1c-0.2-0.1,0.1,0.2,0.2,0.3C541,83.2,541.4,83.4,541.1,83.1z"/>
						<path fill="#202020" d="M537.1,87.4C537.1,87.4,537.1,87.4,537.1,87.4C537.1,87.3,537.1,87.4,537.1,87.4z"/>
						<path fill="#202020" d="M537,89.5l0.2,0.2c-0.2-0.6,0.4-0.4,0.5-0.8l0.1,0.1c0.6-0.4,0.7-1.3,1.1-2.1c0,0,0.1,0.1,0.1,0.1
							c-0.1-0.1-0.2-0.3-0.1-0.3c0.1,0,0.1,0.1,0.1,0.2c0.5,0.3,0.1-0.6,0.5-0.4c0-0.1-0.2-0.3-0.3-0.4c0.3-0.5,0.7-1,0.8-1.8
							c0.1,0,0.2,0.1,0.3,0.3c-0.3-1,0.4-1.1,0.8-1.4c-0.2-0.2-0.2-0.1-0.3-0.3c-0.3-0.1,0.2,0.6-0.2,0.4l-0.1-0.2
							c-0.2,0,0.4,0.4,0.1,0.3c-0.2-0.1-0.2-0.2-0.2-0.2c-0.1,0.2-0.4,0.3-0.2,0.8c-0.4-0.3-0.2,0.2-0.6-0.1c0.1,0.2,0,0.2,0.2,0.4
							c-0.8,0.4-1,1.3-1.7,1.9c0.4,1-0.8,0.5-0.9,1.1c0,0-0.1,0-0.1-0.1c0.1,0.3,0,0.5-0.2,0.6l0.2,0.4c-1.4,0.2-1.8,1.4-2.8,2
							c-1.1,0.7-2.4,1.1-2.4,2.8c-0.1-0.1-0.1-0.1-0.1-0.1c-0.1,0.4-0.6,0.4-0.7,0.8l-0.1-0.1c0,1.2-1.3,1.2-1.3,2.3
							c-0.8,0.6-1.5,1.5-2.1,2.4l-0.1-0.1c-0.3,0.9-1.6,0.7-2,1.5c-0.9,0.3-0.5,2-1.5,2.2c-1-0.3-0.1,1.6-1.2,1.3
							c-1.8-0.3-1.8,1.1-1.9,2.4c-1,0.3-0.8,1.9-2.2,1.8c0.2,0.8-1.2,0.1-1.5,0.5l0.2,0.2c-0.6-0.4,0.4,1-0.4,0.3l0,0
							c-0.4-0.3,0.7,1,0.2,0.6l0.2,0.2c0,0.1-0.2-0.2-0.4-0.2c0,0,0.3,0.3,0.2,0.3c-0.8-0.8,0,0.4-0.9-0.5c0,0-0.4-0.3-0.5-0.5
							c-0.1-0.1-0.2,0.1,0.2,0.5c0.4,0.4,0.7,0.8,1,1l-0.3-0.3c0.3,0.3,0.2,0.1,0.4,0.3c0.1-0.1,0.6,0.3,0.8,0.4c0,0,0,0,0,0
							c-0.3-0.4,0-0.3,0.1-0.3l0.2,0.1c0.4,0.3-0.5-0.8,0-0.2c0.1-0.4,0.3-0.6,0.6-0.8c-0.2-0.2,0.2-0.2-0.3-0.5
							c0.5,0.4,0.8,0.4,0.9,0.3c0,0,0.1,0.1,0.1,0.1c0.7,0.5-0.4-0.7,0.5-0.1c-0.5-0.5,0.4-0.1-0.2-0.7c0.1,0.1,0.2,0.2,0.3,0.3
							c0.2-0.2,0.7-0.3,0.9-0.4c-0.3-0.6,0.6-0.2,0.1-0.9c0.2,0,0.7,0.1,0.6-0.3l0.1,0.1c0.1-0.2,0.3-0.5,0-1
							c0.7,0.6,0.6,0.4,0.9,0.5c-0.2-0.4,0.2-0.6,0.1-1c0.3,0.3,0-0.3,0.4,0.1c-0.3-1.3,0.6-1.6,1.7-1.6l0,0
							c-0.2-0.3-0.6-0.9-0.8-1.2c0,0,0.1,0.1,0.1,0.1c0-0.2,0.5,0.1,0.5,0c0.1,0.1,0.1,0.1,0.1,0.1c-0.1-0.3,0.5,0.1,0.3-0.3
							l0.1,0.1l-0.1-0.2c0.1,0.1,0.3,0.3,0.3,0.3c1-0.7,1.1-2.3,2.1-3l0.1,0.2l-0.1-0.4c0.1,0.1,0.1,0.1,0.1,0.1
							c0.4,0,0.3-0.6,0.5-0.7c0.1,0.1,0.2,0.2,0.3,0.3c-0.2-0.5,0.7,0.2,0-0.6c0,0,0.2,0.2,0.3,0.3c0.2-0.7,0.6-1.1,1.2-1.4
							c-0.3-1.1,0.7-0.8,0.5-1.8l0.1,0.1c0-1,1-1,1.4-1.6c0.3-0.2,0.2-0.5,0.4-0.7l0.2,0.2c-0.3-1,1.3-0.2,1-1.2L534,93
							c-0.3-0.4,0.4-0.1-0.3-0.7l0.3,0.1c-0.6-1.1,0.8-0.1,0.6-0.9l0.1,0.2c0-0.2,0-0.4,0.2-0.3c0,0,0.1,0.1,0.1,0.1
							c0.8,0.3,0.5-0.6,0.8-0.8l0.2,0.3c-0.2-0.5,0.3-0.4,0.4-0.7l0.1,0.1l-0.1-0.3l0.3,0.3C536.8,90.1,536.8,89.7,537,89.5z"/>
						<path fill="#202020" d="M538.9,86.9C538.9,86.9,538.9,86.9,538.9,86.9C538.9,86.9,539,86.9,538.9,86.9z"/>
						<path fill="#202020" d="M518.1,110.4C518.1,110.4,518.1,110.4,518.1,110.4C518.1,110.4,518.1,110.4,518.1,110.4z"/>
					</g>
				</g>
			</g>
		</g>
	</g>
	<g>
		<g>
			<g>
				<g>
					<g>
						<polygon fill="#202020" points="538.7,55.8 538.6,55.8 538.8,56 						"/>
						<path fill="#202020" d="M539,56.5c0,0,0.1,0.1,0.2,0.1l-0.5-0.7C538.2,55.6,539.3,56.7,539,56.5z"/>
						<path fill="#202020" d="M538.9,56.4c-0.2-0.1,0.1,0.2,0.2,0.3C538.9,56.5,539.2,56.7,538.9,56.4z"/>
						<path fill="#202020" d="M536.1,59.6C536.1,59.5,536.1,59.5,536.1,59.6C536.1,59.5,536.1,59.5,536.1,59.6z"/>
						<path fill="#202020" d="M536.3,61.3l0.2,0.2c-0.3-0.6,0.3-0.3,0.3-0.6l0.1,0.1c0.5-0.3,0.4-1,0.7-1.6c0,0,0.1,0.1,0.1,0.1
							c-0.1-0.1-0.2-0.3-0.2-0.3c0.1,0,0.1,0.1,0.1,0.1c0.5,0.3,0-0.5,0.3-0.2c0-0.1-0.2-0.2-0.3-0.3c0.2-0.4,0.5-0.8,0.5-1.4
							c0.1,0,0.2,0.1,0.3,0.3c-0.4-0.9,0.2-0.9,0.5-1.1c-0.2-0.2-0.2-0.1-0.3-0.3c-0.3-0.1,0.2,0.6-0.1,0.3l-0.1-0.2
							c-0.2,0,0.4,0.4,0.1,0.3c-0.2-0.1-0.2-0.2-0.2-0.2c-0.1,0.2-0.3,0.2-0.1,0.7c-0.4-0.3-0.1,0.1-0.5-0.2c0.1,0.2,0,0.2,0.3,0.4
							c-0.6,0.2-0.7,1-1.2,1.4c0.5,0.9-0.6,0.3-0.6,0.8c0,0-0.1,0-0.1-0.1c0.1,0.2,0.1,0.4-0.1,0.4l0.2,0.4c-1.1,0-1.3,1-2.1,1.3
							c-0.8,0.5-1.9,0.6-1.6,2.1c-0.1-0.1-0.1-0.1-0.1-0.1c0,0.3-0.5,0.2-0.5,0.6l-0.1-0.1c0.1,1-1,0.8-0.8,1.8
							c-0.6,0.4-1.1,1.1-1.4,1.8l-0.1-0.1c-0.1,0.7-1.3,0.4-1.5,1c-0.7,0.1-0.1,1.7-1,1.7c-0.9-0.4,0.1,1.4-0.8,1
							c-1.5-0.5-1.4,0.7-1.3,1.8c-0.8,0.1-0.4,1.5-1.6,1.3c0.3,0.7-1.1-0.1-1.2,0.3l0.2,0.2c-0.6-0.4,0.5,0.9-0.3,0.2l0,0
							c-0.4-0.3,0.8,1,0.3,0.6l0.2,0.2c0,0.1-0.2-0.2-0.3-0.2c0,0,0.3,0.3,0.2,0.3c-0.8-0.8,0,0.3-0.8-0.5c0,0-0.4-0.3-0.5-0.5
							c-0.1-0.1-0.2,0.1,0.2,0.4c0.4,0.4,0.7,0.8,1,1l-0.3-0.3c0.3,0.3,0.2,0.1,0.4,0.3c0.1,0,0.5,0.4,0.8,0.5c0,0,0,0,0,0
							c-0.3-0.4,0-0.2,0-0.2l0.2,0.1c0.3,0.3-0.6-0.7,0-0.1c0-0.3,0.2-0.5,0.4-0.6c-0.2-0.2,0.2-0.1-0.3-0.5
							c0.5,0.4,0.8,0.4,0.8,0.4c0,0,0.1,0.1,0.1,0.1c0.7,0.5-0.5-0.7,0.4,0c-0.5-0.5,0.3,0-0.2-0.7c0.1,0.1,0.2,0.2,0.3,0.3
							c0.2-0.1,0.5-0.1,0.7-0.2c-0.3-0.6,0.5-0.1-0.1-0.8c0.2,0.1,0.6,0.2,0.5-0.2l0.1,0.1c0.1-0.2,0.2-0.4-0.1-0.8
							c0.6,0.6,0.6,0.4,0.8,0.5c-0.2-0.4,0.1-0.5-0.1-0.8c0.3,0.3,0-0.2,0.4,0.2c-0.4-1.2,0.3-1.3,1.3-1.1l0,0
							c-0.2-0.3-0.6-0.8-0.9-1.2c0,0,0.1,0.1,0.1,0.1c0-0.1,0.5,0.2,0.5,0c0.1,0.1,0.1,0.1,0.1,0.1c-0.1-0.2,0.5,0.2,0.2-0.2
							l0.1,0.1l-0.1-0.2c0.1,0.1,0.3,0.3,0.3,0.3c0.7-0.5,0.7-1.8,1.4-2.3l0.1,0.2l-0.1-0.4c0.1,0.1,0.1,0.1,0.1,0.1
							c0.4,0.1,0.2-0.5,0.4-0.6c0.1,0.1,0.2,0.2,0.3,0.3c-0.3-0.5,0.7,0.3-0.1-0.5c0,0,0.2,0.2,0.3,0.3c0.1-0.6,0.4-0.9,0.8-1
							c-0.4-1,0.5-0.6,0.2-1.4l0.1,0.1c-0.1-0.8,0.7-0.7,1-1.1c0.2-0.1,0.1-0.4,0.3-0.5l0.2,0.2c-0.4-0.9,1.1,0.1,0.7-0.9l0.2,0.3
							c-0.3-0.4,0.3,0-0.4-0.6l0.2,0.1c-0.6-1,0.7,0.1,0.4-0.7l0.1,0.2c-0.1-0.2-0.1-0.3,0.1-0.2c0,0,0.1,0.1,0.1,0.1
							c0.8,0.4,0.3-0.4,0.5-0.6l0.3,0.3c-0.2-0.4,0.2-0.3,0.2-0.6l0.1,0.1l-0.1-0.2l0.3,0.3C536.3,61.9,536.2,61.5,536.3,61.3z"/>
						<path fill="#202020" d="M537.6,59.4C537.6,59.4,537.6,59.4,537.6,59.4C537.6,59.4,537.6,59.4,537.6,59.4z"/>
						<path fill="#202020" d="M523.1,76.7C523,76.7,523,76.6,523.1,76.7C523.1,76.7,523.1,76.7,523.1,76.7z"/>
					</g>
				</g>
			</g>
		</g>
	</g>
	<g>
		<g>
			<g>
				<g>
					<g>
						<polygon fill="#202020" points="539.1,58.3 539,58.3 539.2,58.2 						"/>
						<path fill="#202020" d="M539.5,58.1c0,0,0.1-0.1,0.1-0.1l-0.5,0.3C538.9,58.6,539.7,57.9,539.5,58.1z"/>
						<path fill="#202020" d="M539.5,58.2c-0.1,0.1,0.1-0.1,0.2-0.1C539.6,58.2,539.7,57.9,539.5,58.2z"/>
						<path fill="#202020" d="M542.6,61C542.6,61,542.5,61,542.6,61C542.5,61,542.5,61,542.6,61z"/>
						<path fill="#202020" d="M544,61.1l0.2-0.1c-0.4,0.1-0.3-0.3-0.6-0.3l0.1,0c-0.3-0.4-0.9-0.5-1.4-0.8c0,0,0.1-0.1,0.1-0.1
							c-0.1,0-0.2,0.1-0.2,0.1c0,0,0.1-0.1,0.1-0.1c0.2-0.3-0.4-0.1-0.3-0.3c-0.1,0-0.2,0.1-0.2,0.2c-0.4-0.2-0.7-0.5-1.2-0.6
							c0-0.1,0.1-0.1,0.2-0.2c-0.7,0.2-0.8-0.3-1-0.6c-0.1,0.1-0.1,0.1-0.2,0.2c-0.1,0.2,0.4-0.1,0.3,0.2l-0.1,0.1
							c0,0.1,0.3-0.3,0.2-0.1c-0.1,0.1-0.1,0.1-0.1,0.1c0.2,0.1,0.2,0.3,0.6,0.2c-0.2,0.3,0.1,0.1-0.1,0.4c0.1-0.1,0.1,0,0.3-0.1
							c0.3,0.5,1,0.7,1.4,1.2c0.7-0.2,0.4,0.5,0.7,0.6c0,0,0,0,0,0c0.2,0,0.4,0,0.4,0.2l0.3-0.1c0.2,1,1,1.2,1.4,2
							c0.5,0.8,0.8,1.6,2,1.7c0,0-0.1,0.1-0.1,0.1c0.3,0.1,0.3,0.4,0.5,0.5l0,0c0.8,0.1,0.8,0.9,1.6,0.9c0.5,0.5,1.1,1.1,1.7,1.5
							l-0.1,0.1c0.6,0.2,0.5,1.1,1.1,1.4c0.2,0.6,1.4,0.4,1.6,1.1c-0.2,0.7,1.1,0.1,0.9,0.8c-0.2,1.2,0.8,1.3,1.7,1.4
							c0.2,0.7,1.3,0.6,1.3,1.5c0.5-0.1,0.1,0.9,0.4,1l0.1-0.1c-0.2,0.4,0.7-0.3,0.2,0.3l0,0c-0.2,0.3,0.7-0.5,0.4-0.2l0.1-0.1
							c0.1,0-0.1,0.1-0.1,0.2c0,0,0.2-0.2,0.2-0.1c-0.5,0.5,0.2,0-0.3,0.6c0,0-0.2,0.3-0.4,0.3c0,0.1,0.1,0.1,0.3-0.1
							c0.3-0.2,0.5-0.4,0.7-0.7l-0.2,0.2c0.2-0.2,0.1-0.1,0.2-0.3c-0.1-0.1,0.2-0.4,0.3-0.6c0,0,0,0,0,0c-0.3,0.2-0.2,0-0.2-0.1
							l0.1-0.1c0.2-0.2-0.5,0.3-0.1,0c-0.2-0.1-0.4-0.2-0.6-0.4c-0.2,0.1-0.1-0.1-0.4,0.2c0.3-0.4,0.2-0.6,0.2-0.6
							c0,0,0.1-0.1,0.1,0c0.3-0.5-0.5,0.3-0.1-0.3c-0.4,0.3,0-0.3-0.5,0.1c0.1-0.1,0.1-0.2,0.2-0.2c-0.1-0.2-0.2-0.5-0.3-0.6
							c-0.4,0.2-0.1-0.4-0.7-0.1c0-0.2,0.1-0.5-0.2-0.4l0.1,0c-0.2-0.1-0.3-0.2-0.7-0.1c0.4-0.4,0.2-0.4,0.3-0.6
							c-0.3,0.1-0.4-0.1-0.7-0.1c0.2-0.2-0.2,0,0.1-0.3c-0.9,0.2-1.1-0.5-1.1-1.2l0,0c-0.2,0.1-0.6,0.4-0.8,0.5c0,0,0.1-0.1,0.1-0.1
							c-0.1,0,0.1-0.4,0-0.4c0,0,0,0,0.1-0.1c-0.2,0.1,0.1-0.4-0.2-0.2l0.1-0.1l-0.2,0.1c0.1-0.1,0.2-0.2,0.2-0.2
							c-0.5-0.7-1.6-0.8-2.1-1.5l0.1-0.1l-0.3,0c0,0,0.1-0.1,0.1-0.1c0-0.3-0.4-0.2-0.5-0.4c0,0,0.2-0.1,0.2-0.2
							c-0.4,0.1,0.1-0.5-0.4,0c0,0,0.1-0.1,0.2-0.2c-0.5-0.1-0.8-0.5-1-0.8c-0.7,0.2-0.6-0.5-1.2-0.4l0.1-0.1c-0.7,0-0.7-0.7-1.1-1
							c-0.1-0.2-0.3-0.2-0.5-0.3l0.1-0.1c-0.7,0.2-0.1-0.9-0.9-0.7l0.2-0.1c-0.3,0.2-0.1-0.2-0.5,0.2l0.1-0.2
							c-0.7,0.4-0.1-0.6-0.6-0.4l0.1-0.1c-0.1,0-0.3,0-0.2-0.1c0,0,0,0,0.1-0.1c0.2-0.6-0.4-0.3-0.6-0.5l0.2-0.2
							c-0.3,0.1-0.3-0.2-0.5-0.3l0.1-0.1l-0.2,0.1l0.2-0.2C544.5,61.2,544.2,61.2,544,61.1z"/>
						<path fill="#202020" d="M542.2,59.7C542.2,59.7,542.2,59.7,542.2,59.7C542.2,59.7,542.2,59.7,542.2,59.7z"/>
						<path fill="#202020" d="M558.9,74.6C558.9,74.6,558.8,74.6,558.9,74.6C558.9,74.6,558.9,74.6,558.9,74.6z"/>
					</g>
				</g>
			</g>
		</g>
	</g>
</g>
</svg>
